<svg xmlns="http://www.w3.org/2000/svg" width="20" height="20" fill="currentColor"><path d="M12 17.5a.5.5 0 0 1-.5.5H5a3 3 0 0 1-3-3V5a3 3 0 0 1 3-3h6.5a.5.5 0 0 1 0 1H5a2 2 0 0 0-2 2v10a2 2 0 0 0 2 2h6.5a.5.5 0 0 1 .5.5"/><path d="M14.414 5.354a.5.5 0 0 1 .707 0l1.768 1.768a.5.5 0 0 1 0 .707l-1.768 1.768a.5.5 0 1 1-.707-.707l.89-.89H8.5a.5.5 0 0 1 0-1h6.853l-.939-.939a.5.5 0 0 1 0-.707m-3.794 5a.5.5 0 0 0-.706 0l-1.768 1.768a.5.5 0 0 0 0 .707l1.768 1.768a.5.5 0 1 0 .707-.707L9.73 13h6.804a.5.5 0 0 0 0-1H9.682l.939-.939a.5.5 0 0 0 0-.707Z"/></svg>