<svg xmlns="http://www.w3.org/2000/svg" width="20" height="20" fill="currentColor"><path d="M10 2a8 8 0 1 1 0 16 8 8 0 0 1 0-16m0 1a7 7 0 1 0 0 14 7 7 0 0 0 0-14"/><path d="m10.492 6.41.008.09v2.293l1.622-1.622a.5.5 0 0 1 .637-.058l.07.058a.5.5 0 0 1 .057.638l-.057.07-1.621 1.62H13.5a.5.5 0 0 1 .492.41L14 10a.5.5 0 0 1-.41.492l-.09.009h-2.293l1.622 1.621a.5.5 0 0 1 .057.638l-.057.07a.5.5 0 0 1-.638.057l-.07-.058-1.621-1.621V13.5a.5.5 0 0 1-.41.492L10 14a.5.5 0 0 1-.492-.41L9.5 13.5v-2.293l-1.621 1.621a.5.5 0 0 1-.638.058l-.07-.058a.5.5 0 0 1-.057-.638l.058-.069L8.793 10.5H6.5a.5.5 0 0 1-.492-.41L6 10a.5.5 0 0 1 .41-.492L6.5 9.5h2.293L7.172 7.878a.5.5 0 0 1-.058-.637l.058-.07a.5.5 0 0 1 .638-.058l.069.058L9.5 8.792V6.5a.5.5 0 0 1 .41-.492L10 6a.5.5 0 0 1 .492.41"/></svg>