<svg xmlns="http://www.w3.org/2000/svg" width="20" height="20" fill="currentColor"><path d="M8 3.5a.5.5 0 0 1 .5-.5h3a.5.5 0 0 1 0 1h-1v5.5h.74a.5.5 0 0 1 0 1h-.74V16h1a.5.5 0 0 1 0 1h-3a.5.5 0 0 1 0-1h1v-5.5h-.705a.5.5 0 0 1 0-1H9.5V4h-1a.5.5 0 0 1-.5-.5m-2.46.553A2 2 0 0 0 4.052 5.54a.51.51 0 0 1-.6.462.51.51 0 0 1-.38-.663 3 3 0 0 1 2.265-2.265.51.51 0 0 1 .663.38.51.51 0 0 1-.462.6Zm0 11.894a2 2 0 0 1-1.487-1.486.51.51 0 0 0-.6-.463.51.51 0 0 0-.38.664 3 3 0 0 0 2.265 2.265.505.505 0 1 0 .201-.98Zm9.05-12.893a1 1 0 0 1 .072.02 3 3 0 0 1 2.265 2.264.506.506 0 0 1-.38.664.51.51 0 0 1-.6-.463 2 2 0 0 0-1.486-1.486.51.51 0 0 1-.462-.6.51.51 0 0 1 .592-.4Zm-.13 12.893a2 2 0 0 0 1.487-1.486.51.51 0 0 1 .6-.462.51.51 0 0 1 .38.663 3 3 0 0 1-2.265 2.265.51.51 0 0 1-.663-.38.51.51 0 0 1 .462-.6ZM16 11.5a.5.5 0 0 0 1 0v-3a.5.5 0 0 0-1 0v1h-1.094a.5.5 0 0 0 0 1H16zM3.5 12a.5.5 0 0 1-.5-.5v-3a.5.5 0 0 1 1 0v1h1.128a.5.5 0 0 1 0 1H4v1a.5.5 0 0 1-.5.5"/></svg>