<svg xmlns="http://www.w3.org/2000/svg" width="24" height="24" fill="none"><path fill="#000" d="M10.25 3.5h3.5a.75.75 0 0 1 .75.75V6h-5V4.25a.75.75 0 0 1 .75-.75M8 4.25V6H6.25A3.25 3.25 0 0 0 3 9.25v7.5A3.25 3.25 0 0 0 6.25 20h11.5A3.25 3.25 0 0 0 21 16.75v-7.5A3.25 3.25 0 0 0 17.75 6H16V4.25A2.25 2.25 0 0 0 13.75 2h-3.5A2.25 2.25 0 0 0 8 4.25m9.75 3.25c.966 0 1.75.784 1.75 1.75v7.5a1.75 1.75 0 0 1-1.75 1.75H6.25a1.75 1.75 0 0 1-1.75-1.75v-7.5c0-.966.784-1.75 1.75-1.75z"/><path fill="#000" d="M10.572 9a.75.75 0 0 1 .7.432l2.197 4.686.691-1.217a.75.75 0 0 1 .652-.38H16.5a.75.75 0 0 1 0 1.5h-1.251l-1.19 2.1a.75.75 0 0 1-1.332-.053l-2.079-4.434-.764 1.916a.75.75 0 0 1-.697.471H7.5a.75.75 0 0 1 0-1.5h1.18l1.217-3.05.048-.099A.75.75 0 0 1 10.572 9"/></svg>