<svg xmlns="http://www.w3.org/2000/svg" width="32" height="32" fill="currentColor"><path d="M8.29 4a2 2 0 0 0-1.519.698l-4.286 5C1.373 10.996 2.295 13 4.004 13h24.651c1.71 0 2.63-2.004 1.519-3.302l-4.286-5A2 2 0 0 0 24.37 4zm20.04 11h-24v9.5a3.5 3.5 0 0 0 3.5 3.5h9.888a5.75 5.75 0 0 1-3.388-5.25c0-.954.232-1.855.642-2.647a1.75 1.75 0 0 1 2.459-2.464A5.7 5.7 0 0 1 20.056 17h6.546c.602 0 1.182.093 1.727.266zm-17.25 5.75a1.75 1.75 0 1 1 0-3.5 1.75 1.75 0 0 1 0 3.5"/><path d="M15.83 22.75a4.25 4.25 0 0 1 4.25-4.25h1a.75.75 0 0 1 0 1.5h-1a2.75 2.75 0 1 0 0 5.5h1a.75.75 0 0 1 0 1.5h-1a4.25 4.25 0 0 1-4.25-4.25m15 0a4.25 4.25 0 0 0-4.25-4.25h-1.5a.75.75 0 0 0 0 1.5h1.5a2.75 2.75 0 1 1 0 5.5h-1.5a.75.75 0 0 0 0 1.5h1.5a4.25 4.25 0 0 0 4.25-4.25"/><path d="M19.83 22.75a.75.75 0 0 1 .75-.75h5.5a.75.75 0 0 1 0 1.5h-5.5a.75.75 0 0 1-.75-.75"/></svg>