<svg xmlns="http://www.w3.org/2000/svg" width="20" height="20" fill="none"><path fill="#242424" d="M12 16.5a.5.5 0 0 0 1 0V16h3v.5a.5.5 0 0 0 1 0V16h2v1.5a1.5 1.5 0 0 1-1.5 1.5h-6a1.5 1.5 0 0 1-1.5-1.5V16h2z"/><path fill="#242424" d="M14.5 3A2.5 2.5 0 0 1 17 5.5v4.002a2.5 2.5 0 0 0-1-.45V5.5A1.5 1.5 0 0 0 14.5 4h-9A1.5 1.5 0 0 0 4 5.5v9A1.5 1.5 0 0 0 5.5 16H9v1H5.5A2.5 2.5 0 0 1 3 14.5v-9A2.5 2.5 0 0 1 5.5 3z"/><path fill="#242424" d="M15.5 10a1.5 1.5 0 0 1 1.5 1.5v.5h.5a1.5 1.5 0 0 1 1.5 1.5V15h-2v-.5a.5.5 0 0 0-1 0v.5h-3v-.5a.5.5 0 0 0-1 0v.5h-2v-1.5a1.5 1.5 0 0 1 1.5-1.5h.5v-.5a1.5 1.5 0 0 1 1.5-1.5zm-2 1a.5.5 0 0 0-.5.5v.5h3v-.5a.5.5 0 0 0-.5-.5zM7 11a1 1 0 1 1 0 2 1 1 0 0 1 0-2m3 0c.213 0 .41.067.571.18a2.5 2.5 0 0 0-1.391 1.39A1 1 0 0 1 10 11M7 7a1 1 0 1 1 0 2 1 1 0 0 1 0-2m3 0a1 1 0 1 1 0 2 1 1 0 0 1 0-2m3 0a1 1 0 1 1 0 2 1 1 0 0 1 0-2"/></svg>