<svg xmlns="http://www.w3.org/2000/svg" width="32" height="32" fill="currentColor"><path d="M7.5 3A4.5 4.5 0 0 0 3 7.5v17A4.5 4.5 0 0 0 7.5 29h9.71a4.9 4.9 0 0 1-.679-2H7.5A2.5 2.5 0 0 1 5 24.5v-17A2.5 2.5 0 0 1 7.5 5h17A2.5 2.5 0 0 1 27 7.5V15c1.214.912 2 2.364 2 4V7.5A4.5 4.5 0 0 0 24.5 3z"/><path d="M12 12.5a1.5 1.5 0 1 1-3 0 1.5 1.5 0 0 1 3 0m0 6a1.5 1.5 0 1 1-3 0 1.5 1.5 0 0 1 3 0m5.5 0a1.5 1.5 0 1 1-3 0 1.5 1.5 0 0 1 3 0m0-6a1.5 1.5 0 1 1-3 0 1.5 1.5 0 0 1 3 0m5.5 0a1.5 1.5 0 1 1-3 0 1.5 1.5 0 0 1 3 0m4.5 6.5a3.5 3.5 0 1 1-7 0 3.5 3.5 0 0 1 7 0m2.5 7.438c0 2.023-1.714 4.062-6 4.062s-6-2.031-6-4.063C18 25.102 19.082 24 20.417 24h7.166C28.918 24 30 25.102 30 26.438"/></svg>