<svg xmlns="http://www.w3.org/2000/svg" width="32" height="32" fill="currentColor"><path d="M7.5 3A4.5 4.5 0 0 0 3 7.5v17A4.5 4.5 0 0 0 7.5 29h9.71a4.93 4.93 0 0 1-.71-2.563c0-2.147 1.738-3.937 3.917-3.937h.012A5 5 0 1 1 29 19V7.5A4.5 4.5 0 0 0 24.501 3h-17Zm3 11a1.5 1.5 0 1 1 0-3 1.5 1.5 0 0 1 0 3m1.5 4.5a1.5 1.5 0 1 1-3 0 1.5 1.5 0 0 1 3 0m5.5 0a1.5 1.5 0 1 1-3 0 1.5 1.5 0 0 1 3 0m0-6a1.5 1.5 0 1 1-3 0 1.5 1.5 0 0 1 3 0m5.5 0a1.5 1.5 0 1 1-3 0 1.5 1.5 0 0 1 3 0"/><path d="M27.5 19a3.5 3.5 0 1 1-7 0 3.5 3.5 0 0 1 7 0m2.5 7.438c0 2.023-1.714 4.062-6 4.062s-6-2.031-6-4.063C18 25.102 19.082 24 20.417 24h7.166C28.918 24 30 25.102 30 26.438"/></svg>