<svg xmlns="http://www.w3.org/2000/svg" width="32" height="32" fill="currentColor"><path d="M27.852 18.892q.147-.925.148-1.892c0-4.878-2.911-9.077-7.09-10.953a5.002 5.002 0 0 0-9.82 0C6.912 7.923 4 12.122 4 17q0 .967.148 1.892a5 5 0 0 0 5.547 8.32A11.94 11.94 0 0 0 16 29a11.94 11.94 0 0 0 6.305-1.788 5 5 0 0 0 5.547-8.32M11.157 8.25a5.002 5.002 0 0 0 9.686 0 10 10 0 0 1 5.098 9.84 5 5 0 0 0-5.112 7.67A9.96 9.96 0 0 1 16 27a9.96 9.96 0 0 1-4.83-1.241 5 5 0 0 0-5.112-7.67 10 10 0 0 1 5.099-9.84Z"/></svg>