<svg xmlns="http://www.w3.org/2000/svg" width="20" height="20" fill="currentColor"><path d="M10 3c2.817 0 4.415 1.923 4.647 4.246h.07c1.814 0 3.283 1.512 3.283 3.377 0 .379-.06.743-.172 1.082l-.266-.266a1.5 1.5 0 0 0-.602-.368 2.5 2.5 0 0 0 .04-.448c0-1.32-1.028-2.377-2.282-2.377h-.071a1 1 0 0 1-.995-.9C13.45 5.325 12.109 4 10 4 7.886 4 6.551 5.316 6.348 7.345a1 1 0 0 1-.995.901h-.07C4.027 8.246 3 9.304 3 10.623 3 11.943 4.028 13 5.282 13h5.364v1H5.282C3.469 14 2 12.488 2 10.623 2 8.82 3.373 7.347 5.102 7.251l.251-.005C5.587 4.908 7.183 3 10 3"/><path d="m12.646 16.293.793-.793a.5.5 0 0 1 .707.707L12.5 17.854a.5.5 0 0 1-.707 0l-1.647-1.647a.5.5 0 1 1 .708-.707l.792.793V12.5a.5.5 0 0 1 1 0zm4.208-4.147 1.646 1.647a.5.5 0 0 1-.707.707L17 13.707V17.5a.5.5 0 0 1-1 0v-3.793l-.793.793a.5.5 0 0 1-.707-.707l1.646-1.647a.5.5 0 0 1 .708 0"/></svg>