<svg xmlns="http://www.w3.org/2000/svg" width="20" height="20" fill="currentColor"><g clip-path="url(#i808263-a)"><path d="M7.863 2.146a.5.5 0 1 0-.707.708L8.294 3.99H6.5A2.5 2.5 0 0 0 4 6.49a.5.5 0 0 0 1 0 1.5 1.5 0 0 1 1.5-1.5h1.794L7.156 6.128a.5.5 0 1 0 .707.708l1.991-1.991a.5.5 0 0 0 0-.708l-1.99-1.99ZM6 12.686l-1.727-.867a.45.45 0 0 1-.2-.188.6.6 0 0 1-.073-.255.505.505 0 0 1 .727-.446l1.773.881 1.773-.883a.51.51 0 0 1 .58.096.505.505 0 0 1 .077.609.45.45 0 0 1-.2.188L7 12.686v2.19a.5.5 0 0 1-1 0z"/><path d="M2 14.756v-3.765a1.5 1.5 0 0 1 .219-.789 1.4 1.4 0 0 1 .609-.555l3-1.5a1.53 1.53 0 0 1 1.344 0l3 1.5a1.4 1.4 0 0 1 .36.25l3.023-6.118a.45.45 0 0 1 .187-.2.5.5 0 0 1 .25-.063H14l.008-.003c.087 0 .173.021.25.063a.45.45 0 0 1 .187.2l3.298 6.677a5.5 5.5 0 0 0-1.314-.399L14 5.124l-2.853 5.789a1.5 1.5 0 0 0-.1.234.7.7 0 0 0-.047.242.8.8 0 0 0 .2.524l.056.064a5.48 5.48 0 0 0-1.213 4.188L7.172 17.6a1.53 1.53 0 0 1-1.344 0l-3-1.5a1.4 1.4 0 0 1-.6-.555A1.57 1.57 0 0 1 2 14.756m7.93-4.023a.45.45 0 0 0-.2-.188l-3-1.5a.5.5 0 0 0-.454 0l-3 1.5a.46.46 0 0 0-.195.188.6.6 0 0 0-.081.258v3.765c0 .09.024.18.07.258a.45.45 0 0 0 .2.188l3 1.5q.109.05.23.054a.6.6 0 0 0 .227-.054l3-1.5a.46.46 0 0 0 .195-.188.6.6 0 0 0 .078-.258v-3.765a.5.5 0 0 0-.07-.258"/><path d="M18 19.218a4.5 4.5 0 1 1-5-7.484 4.5 4.5 0 0 1 5 7.484m-2.146-6.095a.5.5 0 0 0-.854.353v1.5h-1.5a.5.5 0 0 0 0 1H15v1.5a.5.5 0 0 0 1 0v-1.5h1.5a.5.5 0 0 0 0-1H16v-1.5a.5.5 0 0 0-.146-.354Z"/></g><defs><clipPath id="i808263-a"><path d="M0 0h20v20H0z"/></clipPath></defs></svg>