<svg xmlns="http://www.w3.org/2000/svg" width="20" height="20" fill="currentColor"><path d="M7.863 2.17a.5.5 0 0 0-.707.707l1.138 1.137H6.5a2.5 2.5 0 0 0-2.5 2.5.5.5 0 1 0 1 0 1.5 1.5 0 0 1 1.5-1.5h1.794L7.156 6.152a.5.5 0 0 0 .707.707l1.991-1.991a.5.5 0 0 0 0-.707zm-4.177 8.866a.5.5 0 1 0-.372.928l2.186.874V15a.5.5 0 0 0 1 0v-2.162l2.186-.874a.5.5 0 1 0-.372-.928L6 11.96z"/><path d="M6.551 8.105a1.5 1.5 0 0 0-1.102 0l-3.5 1.384A1.5 1.5 0 0 0 1 10.884v4.23a1.5 1.5 0 0 0 .949 1.395l3.5 1.384a1.5 1.5 0 0 0 1.102 0l3.5-1.384A1.5 1.5 0 0 0 11 15.114v-1.997q.28.205.594.35.39.185.8.32a5.3 5.3 0 0 0 1.524.228l.04-.003a.4.4 0 0 1 .077 0l.04.003a5.3 5.3 0 0 0 1.523-.227q.41-.137.8-.32.425-.197.782-.5a2.8 2.8 0 0 0 .585-.68A1.57 1.57 0 0 0 18 11.46q0-.256-.07-.5a3 3 0 0 0-.18-.47L14.445 3.8a.45.45 0 0 0-.187-.2.5.5 0 0 0-.25-.063L14 3.54h-.008a.5.5 0 0 0-.25.063.45.45 0 0 0-.187.2l-2.981 6.033a1.5 1.5 0 0 0-.523-.347zm-.735.93a.5.5 0 0 1 .368 0l3.5 1.384a.5.5 0 0 1 .316.465v4.23a.5.5 0 0 1-.316.465l-3.5 1.384a.5.5 0 0 1-.368 0l-3.5-1.384A.5.5 0 0 1 2 15.114v-4.23a.5.5 0 0 1 .316-.465z"/></svg>