<svg xmlns="http://www.w3.org/2000/svg" width="20" height="20" fill="currentColor"><path d="M12.646 13.316a2.25 2.25 0 1 0-2.236-3.873l.506.877a1.25 1.25 0 1 1 1.224 2.12zM9 9.501a.5.5 0 0 1 .433.25l2.598 4.5a.5.5 0 0 1-.433.75H6.402a.5.5 0 0 1-.433-.75l2.598-4.5A.5.5 0 0 1 9 9.501m-1.732 4.5h3.464l-1.732-3z"/><path d="M16 8.126v7.875c.002.266-.05.529-.156.773a2.1 2.1 0 0 1-.43.641 1.9 1.9 0 0 1-.633.43c-.248.1-.513.154-.78.156H6a1.9 1.9 0 0 1-.774-.156 2.1 2.1 0 0 1-.64-.43 1.9 1.9 0 0 1-.43-.633A2.1 2.1 0 0 1 4 16.001v-12a1.9 1.9 0 0 1 .156-.773c.103-.238.249-.455.43-.641.179-.186.395-.332.633-.43.248-.1.513-.154.781-.156h3.875c.263 0 .523.05.766.148.244.099.465.248.648.438l4.125 4.125c.186.185.332.405.43.648.099.244.152.503.156.766m-1 7.875V8.063a.3.3 0 0 0-.008-.062H12a1.9 1.9 0 0 1-.773-.156 2.1 2.1 0 0 1-.64-.43 1.9 1.9 0 0 1-.43-.633A2.1 2.1 0 0 1 10 6.001V3.009a.3.3 0 0 0-.062-.008H6a.97.97 0 0 0-.703.289 1.1 1.1 0 0 0-.219.32.86.86 0 0 0-.078.391v12a1 1 0 0 0 .078.391q.079.178.211.32a.85.85 0 0 0 .313.211q.192.074.398.078h8a.97.97 0 0 0 .703-.289 1.1 1.1 0 0 0 .22-.32.86.86 0 0 0 .077-.391m-.7-9-3.3-3.3v2.3a1 1 0 0 0 .078.391q.078.178.211.32a.85.85 0 0 0 .313.211q.192.074.398.078z"/></svg>