<svg xmlns="http://www.w3.org/2000/svg" width="20" height="20" fill="currentColor"><path d="M10 6.501v-3.5h-.5a.5.5 0 0 1 0-1h1.104a1.5 1.5 0 0 1 1.042.44l3.915 3.914A1.5 1.5 0 0 1 16 7.415v2.086a.5.5 0 0 1-1 0v-1.5h-3.5a1.5 1.5 0 0 1-1.5-1.5m1-3.293v3.293a.5.5 0 0 0 .5.5h3.293zm-6.5 8.293a.5.5 0 0 1 .5.5v1a.5.5 0 0 1-1 0v-1a.5.5 0 0 1 .5-.5m11.5.5a.5.5 0 1 0-1 0v1a.5.5 0 0 0 1 0zm-11.5 3a.5.5 0 0 1 .5.5v.5a1 1 0 0 0 1 1h.5a.5.5 0 1 1 0 1H6a2 2 0 0 1-2-2v-.5a.5.5 0 0 1 .5-.5m11.5.5a.5.5 0 1 0-1 0v.5a1 1 0 0 1-1 1h-.5a.5.5 0 1 0 0 1h.5a2 2 0 0 0 2-2zm-7.5 2a.5.5 0 0 1 .5-.5h2a.5.5 0 1 1 0 1H9a.5.5 0 0 1-.5-.5m-4-12.5a.5.5 0 0 1-.5-.5v-.5a2 2 0 0 1 2-2h.5a.5.5 0 1 1 0 1H6a1 1 0 0 0-1 1v.5a.5.5 0 0 1-.5.5m0 5a.5.5 0 0 1-.5-.5v-2a.5.5 0 1 1 1 0v2a.5.5 0 0 1-.5.5"/></svg>