<svg xmlns="http://www.w3.org/2000/svg" width="32" height="32" fill="currentColor"><path d="M5 5.501a3.5 3.5 0 0 1 3.5-3.5h11a3.5 3.5 0 0 1 3.5 3.5v16a3.5 3.5 0 0 1-3.5 3.5h-11a3.5 3.5 0 0 1-3.5-3.5zm4.75 1.5a.75.75 0 0 0-.75.75v2.5c0 .414.336.75.75.75h2a.75.75 0 0 0 .75-.75v-2.5a.75.75 0 0 0-.75-.75zm5.25 1a1 1 0 1 0 0 2h2.906a1 1 0 0 0 0-2zm-5 5a1 1 0 1 0 0 2h8a1 1 0 1 0 0-2zm0 5a1 1 0 1 0 0 2h8a1 1 0 1 0 0-2z"/><path d="M15.5 29a5.49 5.49 0 0 1-4.243-2H21.5a3.5 3.5 0 0 0 3.5-3.5V8.259a5.49 5.49 0 0 1 2 4.243v11a5.5 5.5 0 0 1-5.5 5.5h-6Z"/></svg>