<svg xmlns="http://www.w3.org/2000/svg" width="24" height="24" fill="currentColor"><path d="M4 4.25A2.25 2.25 0 0 1 6.25 2h4.381a2.25 2.25 0 0 1 1.591.659l4.619 4.619c.422.422.659.994.659 1.59v8.382a2.25 2.25 0 0 1-2.25 2.25h-2.563c.154-.478.255-.98.294-1.5h2.269a.75.75 0 0 0 .75-.75V8.998h-3.246a2.25 2.25 0 0 1-2.25-2.25V3.5H6.25a.75.75 0 0 0-.75.75v6.826a6.5 6.5 0 0 0-1.5.422zm8.004.312v2.186c0 .414.336.75.75.75h2.185z"/><path d="M12.268 20.5A6.5 6.5 0 0 1 11.19 22h4.06A4.75 4.75 0 0 0 20 17.25v-5.881a2.25 2.25 0 0 0-.658-1.591l-.841-.841v8.313a3.25 3.25 0 0 1-3.25 3.25zm-.268-3a5.5 5.5 0 1 1-11 0 5.5 5.5 0 0 1 11 0m-2.146-2.354a.5.5 0 0 0-.708 0L5.5 18.793l-1.646-1.647a.5.5 0 0 0-.708.708l2 2a.5.5 0 0 0 .708 0l4-4a.5.5 0 0 0 0-.708"/></svg>