<svg xmlns="http://www.w3.org/2000/svg" width="20" height="20" fill="currentColor"><path d="M4 4a2 2 0 0 1 2-2h3.586a1.5 1.5 0 0 1 1.06.44l3.915 3.914A1.5 1.5 0 0 1 15 7.414V14a2 2 0 0 1-2 2h-2.6q.244-.476.393-1H13a1 1 0 0 0 1-1V8h-3.5A1.5 1.5 0 0 1 9 6.5V3H6a1 1 0 0 0-1 1v4.022a5.5 5.5 0 0 0-1 .185zm6-.793V6.5a.5.5 0 0 0 .5.5h3.293z"/><path d="M9.743 17a5.5 5.5 0 0 1-1.08 1h4.398A3.94 3.94 0 0 0 17 14.06V9a1 1 0 0 0-1-1v6a3 3 0 0 1-3 3zM10 13.5a4.5 4.5 0 1 1-9 0 4.5 4.5 0 0 1 9 0m-4.5 1.88a.625.625 0 1 0 0 1.25.625.625 0 0 0 0-1.25m0-4.877c-1.048 0-1.864.818-1.853 1.955a.5.5 0 1 0 1-.01c-.006-.579.36-.945.853-.945.472 0 .853.392.853.95 0 .202-.07.315-.36.544l-.277.215C5.21 13.616 5 13.929 5 14.5a.5.5 0 0 0 .992.09l.011-.156c.017-.148.1-.254.346-.448l.277-.215c.513-.41.727-.732.727-1.318 0-1.104-.822-1.95-1.853-1.95"/></svg>