<svg xmlns="http://www.w3.org/2000/svg" width="20" height="20" fill="currentColor"><path d="M4 4a2 2 0 0 1 2-2h3.586a1.5 1.5 0 0 1 1.06.44l3.915 3.914A1.5 1.5 0 0 1 15 7.414V14a2 2 0 0 1-2 2H6a2 2 0 0 1-2-2v-2.487l.615 1.539c.086.216.22.404.385.554V14a1 1 0 0 0 1 1h7a1 1 0 0 0 1-1V8h-3.5A1.5 1.5 0 0 1 9 6.5V3H6a1 1 0 0 0-1 1v2.372A1.5 1.5 0 0 0 4 6zm6-.793V6.5a.5.5 0 0 0 .5.5h3.293z"/><path d="M17 9a1 1 0 0 0-1-1v6a3 3 0 0 1-3 3H6a1 1 0 0 0 1 1h6.06A3.94 3.94 0 0 0 17 14.06zM4.03 6.999a.5.5 0 0 1 .443.314l1.585 3.963 1.5-3.002a.5.5 0 0 1 .894 0l.86 1.723h1.189a.5.5 0 0 1 0 .999H9.004a.5.5 0 0 1-.447-.276l-.552-1.105-1.551 3.103a.5.5 0 0 1-.91-.037L3.959 8.716l-1 2.003a.5.5 0 0 1-.447.276H.499a.5.5 0 0 1 0-1h1.704l1.36-2.721a.5.5 0 0 1 .468-.276Z"/></svg>