<svg xmlns="http://www.w3.org/2000/svg" width="32" height="32" fill="currentColor"><path d="M9 7.751a.75.75 0 0 1 .75-.75h2a.75.75 0 0 1 .75.75v2.5a.75.75 0 0 1-.75.75h-2a.75.75 0 0 1-.75-.75zm6 .25a1 1 0 1 0 0 2h2.906a1 1 0 0 0 0-2zm-6 6a1 1 0 0 1 1-1h8a1 1 0 1 1 0 2h-8a1 1 0 0 1-1-1m1 4a1 1 0 1 0 0 2h8a1 1 0 1 0 0-2z"/><path d="M8.5 2.001a3.5 3.5 0 0 0-3.5 3.5v16a3.5 3.5 0 0 0 3.5 3.5h11a3.5 3.5 0 0 0 3.5-3.5v-16a3.5 3.5 0 0 0-3.5-3.5zM7 5.501a1.5 1.5 0 0 1 1.5-1.5h11a1.5 1.5 0 0 1 1.5 1.5v16a1.5 1.5 0 0 1-1.5 1.5h-11a1.5 1.5 0 0 1-1.5-1.5z"/><path d="M15.5 29a5.49 5.49 0 0 1-4.243-2H21.5a3.5 3.5 0 0 0 3.5-3.5V8.259a5.49 5.49 0 0 1 2 4.243v11a5.5 5.5 0 0 1-5.5 5.5h-6Z"/></svg>