<svg xmlns="http://www.w3.org/2000/svg" width="64" height="64" fill="currentColor"><path fill="url(#i8fe5d8-a)" d="M29.99 7.138a3 3 0 0 1 4.02 0l20 18.036a3 3 0 0 1 .99 2.228V47h-1V27.402a2 2 0 0 0-.66-1.485l-20-18.036a2 2 0 0 0-2.68 0l-20 18.036a2 2 0 0 0-.66 1.485V54a2 2 0 0 0 2 2h30.241a1.5 1.5 0 0 0 .234 1H12a3 3 0 0 1-3-3V27.402a3 3 0 0 1 .99-2.228z"/><path fill="url(#i8fe5d8-b)" d="M55.5 48c.28 0 .5.22.5.5v10.79a.5.5 0 0 1-.85.35L44.36 48.85c-.32-.31-.1-.85.35-.85z"/><path fill="url(#i8fe5d8-c)" d="M46.92 53c.2.2.2.51 0 .71l-2.83 2.83c-.2.2-.51.2-.71 0s-.2-.51 0-.71L46.21 53c.2-.2.51-.2.71 0"/><path fill="url(#i8fe5d8-d)" d="M49.04 55.83c.2-.2.2-.51 0-.71s-.51-.2-.71 0l-4.95 4.95c-.2.2-.2.51 0 .71s.51.2.71 0z"/><path fill="url(#i8fe5d8-e)" d="M51.16 57.24c.2.2.2.51 0 .71l-2.83 2.83c-.2.2-.51.2-.71 0s-.2-.51 0-.71l2.83-2.83c.2-.2.51-.2.71 0"/><defs><linearGradient id="i8fe5d8-a" x1="9" x2="62.962" y1="6.366" y2="52.848" gradientUnits="userSpaceOnUse"><stop stop-color="#209782"/><stop offset="1" stop-color="#0C695A"/></linearGradient><linearGradient id="i8fe5d8-b" x1="9" x2="62.962" y1="6.366" y2="52.849" gradientUnits="userSpaceOnUse"><stop stop-color="#209782"/><stop offset="1" stop-color="#0C695A"/></linearGradient><linearGradient id="i8fe5d8-c" x1="9" x2="62.962" y1="6.366" y2="52.848" gradientUnits="userSpaceOnUse"><stop stop-color="#209782"/><stop offset="1" stop-color="#0C695A"/></linearGradient><linearGradient id="i8fe5d8-d" x1="9" x2="62.962" y1="6.366" y2="52.848" gradientUnits="userSpaceOnUse"><stop stop-color="#209782"/><stop offset="1" stop-color="#0C695A"/></linearGradient><linearGradient id="i8fe5d8-e" x1="9" x2="62.962" y1="6.366" y2="52.848" gradientUnits="userSpaceOnUse"><stop stop-color="#209782"/><stop offset="1" stop-color="#0C695A"/></linearGradient></defs></svg>