<svg xmlns="http://www.w3.org/2000/svg" width="20" height="20" fill="currentColor"><path d="M3.5 5h13a.5.5 0 0 1 .09.992L16.5 6h-13a.5.5 0 0 1-.09-.992zm7.837 5H5.5a.5.5 0 0 1-.09-.992L5.5 9h9c-1.177 0-2.268.37-3.163 1m-2.13 3H7.5l-.09.008A.5.5 0 0 0 7.5 14h1.522a5.5 5.5 0 0 1 .185-1m2.858-1.558a2 2 0 0 1-1.43 2.478l-.462.118a4.7 4.7 0 0 0 .01 1.016l.35.083a2 2 0 0 1 1.456 2.519l-.127.423q.387.306.835.517l.325-.344a2 2 0 0 1 2.91.002l.337.358q.44-.203.822-.498l-.156-.556a2 2 0 0 1 1.43-2.478l.46-.118a4.7 4.7 0 0 0-.01-1.017l-.348-.082a2 2 0 0 1-1.456-2.52l.126-.421a4.3 4.3 0 0 0-.835-.519l-.325.344a2 2 0 0 1-2.91-.001l-.337-.358a4.3 4.3 0 0 0-.821.497zm2.434 4.058a1 1 0 1 1 0-2 1 1 0 0 1 0 2"/></svg>