<svg xmlns="http://www.w3.org/2000/svg" width="20" height="20" fill="currentColor"><path d="M16.996 7.073V7a2.5 2.5 0 0 0-2.5-2.5H9.664l-1.6-1.2a1.5 1.5 0 0 0-.9-.3H4.5A2.5 2.5 0 0 0 2 5.5l.001 8.998a2.5 2.5 0 0 0 2.201 2.482 1.6 1.6 0 0 0 .26.022H10v-1H4.463a.5.5 0 0 1-.49-.595l1.36-7a.5.5 0 0 1 .491-.405h10.713a.5.5 0 0 1 .491.595l-.278 1.434c.16.287.25.617.25.969v.268q.264-.155.572-.222l.438-2.258a1.5 1.5 0 0 0-1.014-1.715M4.5 4h2.664a.5.5 0 0 1 .3.1l1.734 1.3a.5.5 0 0 0 .3.1h4.998a1.5 1.5 0 0 1 1.5 1.5v.002H5.824a1.5 1.5 0 0 0-1.472 1.214l-1.298 6.676A1.5 1.5 0 0 1 3 14.498V5.5A1.5 1.5 0 0 1 4.5 4"/><path d="M14 11a1 1 0 1 1 2 0v7a1 1 0 1 1-2 0zm-3 4a1 1 0 1 1 2 0v3a1 1 0 1 1-2 0zm7-3a1 1 0 0 0-1 1v5a1 1 0 1 0 2 0v-5a1 1 0 0 0-1-1"/></svg>