<svg xmlns="http://www.w3.org/2000/svg" width="20" height="20" fill="currentColor"><path d="M4.5 3A2.5 2.5 0 0 0 2 5.5v9A2.5 2.5 0 0 0 4.5 17h3.12a9 9 0 0 1 .232-1H4.5A1.5 1.5 0 0 1 3 14.5V8h4.086a1.5 1.5 0 0 0 1.06-.44L9.707 6H15.5A1.5 1.5 0 0 1 17 7.5v3.432l1 .778V7.5A2.5 2.5 0 0 0 15.5 5H9.707L8.22 3.513A1.75 1.75 0 0 0 6.982 3zM3 5.5A1.5 1.5 0 0 1 4.5 4h2.482a.75.75 0 0 1 .53.22l1.28 1.28L7.44 6.854A.5.5 0 0 1 7.086 7H3z"/><path d="M14.307 10.105a.5.5 0 0 0-.806.395v1.993q-.06.001-.126.006l-.009.001a5.4 5.4 0 0 0-1.544.337 4.7 4.7 0 0 0-2.095 1.574c-.623.826-1.081 1.971-1.224 3.543a.499.499 0 0 0 .852.399c1.189-1.189 2.369-1.776 3.242-2.067.36-.121.668-.19.904-.231v1.944a.5.5 0 0 0 .832.374l4.5-4a.5.5 0 0 0-.026-.768z"/></svg>