<svg xmlns="http://www.w3.org/2000/svg" width="20" height="20" fill="none"><path fill="#000" d="M17.883 3.914a1.5 1.5 0 0 0-.8-.8A1.5 1.5 0 0 0 16.5 3h-13A1.495 1.495 0 0 0 2 4.5a1.44 1.44 0 0 0 .47 1.086l5.061 4.828q.11.11.2.234a1.4 1.4 0 0 1 .27.852v4A1.5 1.5 0 0 0 9.5 17h1a1.5 1.5 0 0 0 1.5-1.5v-4a1.4 1.4 0 0 1 .272-.852 2 2 0 0 1 .2-.234l5.062-4.828A1.44 1.44 0 0 0 18 4.5c.002-.201-.038-.4-.117-.586m-1.039.945-5.07 4.83A2.53 2.53 0 0 0 11 11.5v4a.5.5 0 0 1-.5.5h-1a.5.5 0 0 1-.5-.5v-4a2.53 2.53 0 0 0-.773-1.812L3.157 4.86A.47.47 0 0 1 3 4.492a.46.46 0 0 1 .148-.35A.5.5 0 0 1 3.5 4h13a.53.53 0 0 1 .463.304q.039.091.037.188a.47.47 0 0 1-.156.367"/></svg>