<svg xmlns="http://www.w3.org/2000/svg" width="20" height="20" fill="none"><path fill="#000" d="M11.2 10.518c-.133.31-.2.645-.2.984v4a.5.5 0 0 1-.5.5h-1a.5.5 0 0 1-.5-.5v-4a2.53 2.53 0 0 0-.773-1.812l-5.07-4.83A.47.47 0 0 1 3 4.495a.46.46 0 0 1 .148-.351.5.5 0 0 1 .352-.141h5.715q.15-.52.4-1H3.5a1.5 1.5 0 0 0-1.386.917A1.5 1.5 0 0 0 2 4.502a1.44 1.44 0 0 0 .47 1.086l5.061 4.828q.11.108.2.234a1.4 1.4 0 0 1 .27.852v4a1.5 1.5 0 0 0 1.5 1.5h1a1.5 1.5 0 0 0 1.5-1.5v-4a1.4 1.4 0 0 1 .272-.852c.023-.032.052-.06.077-.091a5.5 5.5 0 0 1-.9-.484 2.5 2.5 0 0 0-.25.443m7.711-5.894a4.5 4.5 0 1 0-.257 2.6 4.5 4.5 0 0 0 .26-2.6zm-2.06 1.232a.5.5 0 0 1-.35.146H15v1.5a.5.5 0 0 1-1 0v-1.5h-1.5a.5.5 0 0 1 0-1H14v-1.5a.5.5 0 0 1 1 0v1.5h1.5a.5.5 0 0 1 .353.854z"/></svg>