<svg xmlns="http://www.w3.org/2000/svg" width="20" height="20" fill="currentColor"><path d="M10 18q.128 0 .254-.004a5.5 5.5 0 0 1-.698-1.083c-.536-.207-1.098-.793-1.578-1.821A9.3 9.3 0 0 1 7.42 13.5h1.672a5.4 5.4 0 0 1 .284-1h-2.17A15 15 0 0 1 7 10c0-.883.073-1.725.206-2.5h5.588c.092.541.156 1.115.186 1.713q.48-.138.992-.188a16 16 0 0 0-.165-1.525h2.733c.251.656.406 1.36.448 2.094a5.5 5.5 0 0 1 1.008.66A8 8 0 1 0 10 18m0-15c.657 0 1.407.59 2.022 1.908.217.466.406 1.002.559 1.592H7.419c.153-.59.342-1.126.56-1.592C8.592 3.59 9.342 3 10 3M7.072 4.485A10.5 10.5 0 0 0 6.389 6.5H3.936a7.02 7.02 0 0 1 3.778-3.118c-.241.33-.456.704-.642 1.103M6.192 7.5A16 16 0 0 0 6 10c0 .87.067 1.712.193 2.5H3.46A7 7 0 0 1 3 10c0-.88.163-1.724.46-2.5zm.197 6c.176.743.407 1.422.683 2.015.186.399.401.773.642 1.103A7.02 7.02 0 0 1 3.936 13.5zm5.897-10.118A7.02 7.02 0 0 1 16.064 6.5H13.61a10.5 10.5 0 0 0-.683-2.015 6.6 6.6 0 0 0-.642-1.103Z"/><path d="M12.065 11.442a2 2 0 0 1-1.43 2.478l-.461.118a4.7 4.7 0 0 0 .01 1.016l.35.083a2 2 0 0 1 1.455 2.519l-.126.422q.387.307.835.518l.325-.344a2 2 0 0 1 2.909.002l.337.358q.44-.203.822-.498l-.156-.556a2 2 0 0 1 1.43-2.479l.461-.117a4.7 4.7 0 0 0-.01-1.017l-.349-.082a2 2 0 0 1-1.456-2.52l.126-.421a4.3 4.3 0 0 0-.835-.519l-.324.344a2 2 0 0 1-2.91-.001l-.337-.358a4.3 4.3 0 0 0-.822.497zM14.5 15.5a1 1 0 1 1 0-2 1 1 0 0 1 0 2"/></svg>