<svg xmlns="http://www.w3.org/2000/svg" width="64" height="64" fill="none"><path fill="url(#i403fe7-paint0_linear_62588_472)" d="M6 13a7 7 0 0 1 7-7h38a7 7 0 0 1 7 7v38a7 7 0 0 1-7 7H13a7 7 0 0 1-7-7z"/><path fill="url(#i403fe7-paint1_radial_62588_472)" fill-opacity=".2" d="M6 13a7 7 0 0 1 7-7h38a7 7 0 0 1 7 7v38a7 7 0 0 1-7 7H13a7 7 0 0 1-7-7z"/><path fill="url(#i403fe7-paint2_linear_62588_472)" fill-rule="evenodd" d="M51 7H13a6 6 0 0 0-6 6v38a6 6 0 0 0 6 6h38a6 6 0 0 0 6-6V13a6 6 0 0 0-6-6M13 6a7 7 0 0 0-7 7v38a7 7 0 0 0 7 7h38a7 7 0 0 0 7-7V13a7 7 0 0 0-7-7z" clip-rule="evenodd"/><path fill="url(#i403fe7-paint3_linear_62588_472)" d="M16 32a3.5 3.5 0 0 1 6.854-1h5.272a4 4 0 0 1 2.328-2.69l-1.564-5.332a3.5 3.5 0 1 1 1.422-.482l1.615 5.506L32 28c1.072 0 2.044.423 2.762 1.11l6.591-5.075a3.5 3.5 0 1 1 .93 1.176l-6.65 5.12a3.98 3.98 0 0 1 .044 3.244l6.236 4.068a3.5 3.5 0 1 1-.751 1.3l-6.325-4.125a3.99 3.99 0 0 1-3.361 1.148l-1.485 5.367A3.5 3.5 0 1 1 28.5 41l.026.001 1.524-5.508A4 4 0 0 1 28.03 32.5h-5.067A3.5 3.5 0 0 1 16 32"/><defs><linearGradient id="i403fe7-paint0_linear_62588_472" x1="20.444" x2="27.022" y1="6" y2="58.622" gradientUnits="userSpaceOnUse"><stop stop-color="#fff"/><stop offset="1" stop-color="#EBEBEB"/></linearGradient><radialGradient id="i403fe7-paint1_radial_62588_472" cx="0" cy="0" r="1" gradientTransform="matrix(27.4444 41.1667 -41.1667 15.4375 22.611 19.542)" gradientUnits="userSpaceOnUse"><stop offset=".177" stop-color="#fff"/><stop offset="1" stop-color="#B8B8B8"/></radialGradient><linearGradient id="i403fe7-paint2_linear_62588_472" x1="22.792" x2="29.793" y1="6" y2="58.511" gradientUnits="userSpaceOnUse"><stop stop-color="#BBB"/><stop offset="1" stop-color="#888"/></linearGradient><linearGradient id="i403fe7-paint3_linear_62588_472" x1="16" x2="48" y1="48" y2="16" gradientUnits="userSpaceOnUse"><stop stop-color="#7751B8"/><stop offset="1" stop-color="#5A409C"/></linearGradient></defs></svg>