<svg xmlns="http://www.w3.org/2000/svg" width="64" height="64" fill="none"><path fill="url(#i4d0438-paint0_linear_62588_479)" d="M49 6a7 7 0 0 1 7 7v38c0 1.137-.172 2.234-.492 3.266h-3.914v5.538A10.95 10.95 0 0 1 45 62H19a7 7 0 0 1-7-7V13a7 7 0 0 1 7-7z"/><path fill="url(#i4d0438-paint1_radial_62588_479)" fill-opacity=".2" d="M49 6a7 7 0 0 1 7 7v38c0 1.137-.172 2.234-.492 3.266h-3.914v5.538A10.95 10.95 0 0 1 45 62H19a7 7 0 0 1-7-7V13a7 7 0 0 1 7-7z"/><path fill="url(#i4d0438-paint2_linear_62588_479)" d="M49 6a7 7 0 0 1 7 7v38a11 11 0 0 1-.466 3.172h-1.05A10 10 0 0 0 55 51V13a6 6 0 0 0-6-6H19a6 6 0 0 0-6 6v42a6 6 0 0 0 6 6h26a9.96 9.96 0 0 0 6.813-2.683v1.316A10.95 10.95 0 0 1 45 62H19a7 7 0 0 1-7-7V13a7 7 0 0 1 7-7z"/><path fill="url(#i4d0438-paint3_linear_62588_479)" d="M8 9a7 7 0 0 1 7-7h30a7 7 0 0 1 7 7v42a7 7 0 0 1-7 7H15a7 7 0 0 1-7-7z"/><path fill="url(#i4d0438-paint4_radial_62588_479)" fill-opacity=".2" d="M8 9a7 7 0 0 1 7-7h30a7 7 0 0 1 7 7v42a7 7 0 0 1-7 7H15a7 7 0 0 1-7-7z"/><path fill="url(#i4d0438-paint5_linear_62588_479)" fill-rule="evenodd" d="M45 3H15a6 6 0 0 0-6 6v42a6 6 0 0 0 6 6h30a6 6 0 0 0 6-6V9a6 6 0 0 0-6-6M15 2a7 7 0 0 0-7 7v42a7 7 0 0 0 7 7h30a7 7 0 0 0 7-7V9a7 7 0 0 0-7-7z" clip-rule="evenodd"/><path fill="url(#i4d0438-paint6_linear_62588_479)" d="M32.54 18.246a.5.5 0 0 1 .386.593l-4.782 22.528a.5.5 0 0 1-.979-.207l4.782-22.528a.5.5 0 0 1 .593-.386m-11.36 4.321a.5.5 0 0 1 .71.706l-6.727 6.779 6.728 6.781a.5.5 0 0 1-.71.705l-7.007-7.062a.6.6 0 0 1 0-.846zm16.986.065a.5.5 0 0 1 .707.002l7.007 7.03a.6.6 0 0 1 0 .846l-7.007 7.03a.5.5 0 0 1-.708-.707l6.725-6.747-6.725-6.747a.5.5 0 0 1 .001-.707"/><mask id="i4d0438-path-6-outside-1_62588_479" width="18" height="19" x="43" y="44.859" fill="#000" maskUnits="userSpaceOnUse"><path fill="#fff" d="M43 44.859H61V63.859H43z"/><path d="M44 54.858a1.714 1.714 0 0 1 3.197-.856h2.997a2 2 0 0 1 1.166-1.036l-.712-2.718q-.176.039-.363.04a1.715 1.715 0 1 1 1.26-.556l.832 3.163c.492.094.918.37 1.21.752l3.298-2.659a1.714 1.714 0 1 1 .818.624l-3.72 3.001q.016.122.017.246c0 .335-.084.65-.228.926l3.114 2.088a1.715 1.715 0 1 1-.314.994l-3.48-2.333a2 2 0 0 1-1.447.292l-.812 2.697a1.713 1.713 0 0 1-.548 3.336 1.715 1.715 0 0 1-.491-3.355l.934-3.1a2 2 0 0 1-.721-1.402H47.42A1.713 1.713 0 0 1 44 54.858"/></mask><path fill="url(#i4d0438-paint7_linear_62588_479)" d="M44 54.858a1.714 1.714 0 0 1 3.197-.856h2.997a2 2 0 0 1 1.166-1.036l-.712-2.718q-.176.039-.363.04a1.715 1.715 0 1 1 1.26-.556l.832 3.163c.492.094.918.37 1.21.752l3.298-2.659a1.714 1.714 0 1 1 .818.624l-3.72 3.001q.016.122.017.246c0 .335-.084.65-.228.926l3.114 2.088a1.715 1.715 0 1 1-.314.994l-3.48-2.333a2 2 0 0 1-1.447.292l-.812 2.697a1.713 1.713 0 0 1-.548 3.336 1.715 1.715 0 0 1-.491-3.355l.934-3.1a2 2 0 0 1-.721-1.402H47.42A1.713 1.713 0 0 1 44 54.858"/><path fill="#F5F5F5" d="M44 54.858h-1zm1.714-1.713v-1zm1.483.857-.865.501.289.499h.576zm2.997 0v1h.632l.271-.57zm1.166-1.036.32.947.884-.298-.236-.903zm-.712-2.718.967-.254-.243-.925-.935.201zm-.363.04v1zm-1.714-1.716h-1zm1.714-1.714v-1zM52 48.572h1zm-.454 1.16-.736-.677-.37.403.139.529zm.831 3.163-.967.255.16.61.62.118zm1.21.752-.794.608.624.815.799-.644zm3.298-2.659.628.779.73-.59-.541-.765zm-.314-.987h-1zm1.714-1.714v-1zM60 50.001h1zm-1.715 1.715v1zm-.582-.104.34-.94-.53-.192-.438.354zm-3.72 3.001-.628-.778-.433.349.068.551zm.017.246h1zm-.228.926-.886-.464-.417.795.746.5zm3.114 2.088-.557.83.81.544.564-.797zm1.4-.727v-1h-.001zM60 58.859h1zm-1.715 1.715v1zm-1.714-1.707 1-.004-.002-.53-.44-.296zm-3.48-2.333.558-.83-.55-.369-.554.362zM52 56.86v1zm-.355-.033.177-.984-.877-.157-.257.853zm-.812 2.697-.957-.29-.28.928.917.309zM52 61.144h1zm-1.715 1.715v1zm-1.714-1.715h-1zm1.223-1.64.287.958.515-.154.155-.515zm.934-3.1.958.289.192-.637-.514-.423zm-.721-1.402.997-.07-.065-.93h-.932zm-2.586 0v-1h-.92l-.077.917zm-1.707 1.571v1zM44 54.858h1c0-.394.32-.713.714-.713v-2A2.714 2.714 0 0 0 43 54.858zm1.714-1.713v1c.261 0 .492.14.618.358l.865-.501.866-.501a2.71 2.71 0 0 0-2.35-1.356zm1.483.857v1h2.997v-2h-2.997zm2.997 0 .903.43c.116-.244.327-.432.583-.519l-.32-.947-.32-.948a3 3 0 0 0-1.749 1.554zm1.166-1.036.968-.254-.713-2.718-.968.254-.967.254.713 2.717zm-.712-2.718-.21-.978a.7.7 0 0 1-.153.017v2q.3-.001.573-.061zm-.363.04v-1a.715.715 0 0 1-.714-.716h-2a2.715 2.715 0 0 0 2.714 2.715zm-1.714-1.716h1c0-.394.32-.714.714-.714v-2a2.714 2.714 0 0 0-2.714 2.714zm1.714-1.714v1c.395 0 .715.32.715.715h1l1-.001c0-1.5-1.217-2.714-2.715-2.714zM52 48.572h-1c0 .185-.07.353-.19.483l.736.677.736.678c.442-.481.718-1.127.718-1.838zm-.454 1.16-.967.255.83 3.163.968-.255.967-.254-.83-3.163zm.831 3.163-.187.983a1 1 0 0 1 .603.377l.795-.608.794-.607a3 3 0 0 0-1.818-1.127zm1.21.752.629.779 3.297-2.66-.628-.778-.628-.778-3.297 2.66zm3.298-2.659.817-.576a.7.7 0 0 1-.13-.411h-2c0 .582.184 1.123.496 1.564zm-.314-.987h1c0-.394.32-.714.714-.714v-2a2.714 2.714 0 0 0-2.714 2.714zm1.714-1.714v1c.395 0 .715.32.715.714h2c0-1.5-1.217-2.714-2.715-2.714zM60 50.001h-1c0 .395-.32.715-.715.715v2A2.715 2.715 0 0 0 61 50zm-1.715 1.715v-1a.7.7 0 0 1-.242-.044l-.34.94-.34.94c.283.103.593.164.922.164zm-.582-.104-.628-.778-3.72 3 .627.78.628.778 3.72-3.001zm-3.72 3.001-.993.122c.008.064.01.1.01.124h2a3 3 0 0 0-.025-.368zm.017.246h-1a1 1 0 0 1-.114.462l.886.464.885.464A3 3 0 0 0 55 54.86zm-.228.926-.557.83 3.114 2.089.557-.831.557-.83-3.115-2.088zm3.114 2.088.817.577a.71.71 0 0 1 .582-.305v-2c-.92 0-1.728.46-2.216 1.151zm1.4-.727v1c.394 0 .714.32.714.714h2c0-1.5-1.217-2.715-2.715-2.715zM60 58.859h-1c0 .395-.32.715-.715.715v2A2.715 2.715 0 0 0 61 58.86zm-1.715 1.715v-1a.714.714 0 0 1-.714-.711l-1 .004-1 .004a2.714 2.714 0 0 0 2.714 2.703zm-1.714-1.707.557-.83-3.48-2.333-.556.83-.557.83 3.48 2.334zm-3.48-2.333-.546-.837a1 1 0 0 1-.545.162v2a3 3 0 0 0 1.639-.488zM52 56.86v-1q-.077 0-.178-.017l-.177.984-.176.984c.163.03.34.05.531.05zm-.355-.033-.957-.288-.812 2.696.957.288.958.289.812-2.696zm-.812 2.697-.32.947a.71.71 0 0 1 .487.675h2c0-1.2-.778-2.21-1.847-2.57zM52 61.144h-1c0 .395-.32.715-.715.715v2A2.715 2.715 0 0 0 53 61.144zm-1.715 1.715v-1a.715.715 0 0 1-.714-.715h-2a2.715 2.715 0 0 0 2.714 2.715zm-1.714-1.715h1c0-.32.213-.593.51-.682l-.287-.958-.287-.958a2.71 2.71 0 0 0-1.936 2.598zm1.223-1.64.957.289.935-3.1-.958-.289-.957-.288-.934 3.1zm.934-3.1.636-.772a1 1 0 0 1-.36-.7l-.997.07-.998.07c.06.845.467 1.596 1.084 2.104zm-.721-1.402v-1H47.42v2h2.586zm-2.586 0-.997-.083a.713.713 0 0 1-.71.654v2a2.713 2.713 0 0 0 2.703-2.489zm-1.707 1.571v-1a.715.715 0 0 1-.714-.715h-2a2.715 2.715 0 0 0 2.714 2.715z" mask="url(#i4d0438-path-6-outside-1_62588_479)"/><defs><linearGradient id="i4d0438-paint0_linear_62588_479" x1="24.222" x2="33.153" y1="6" y2="62.135" gradientUnits="userSpaceOnUse"><stop stop-color="#fff"/><stop offset="1" stop-color="#EBEBEB"/></linearGradient><radialGradient id="i4d0438-paint1_radial_62588_479" cx="0" cy="0" r="1" gradientTransform="matrix(23.2222 44.3333 -34.8333 16.625 26.056 20.583)" gradientUnits="userSpaceOnUse"><stop offset=".177" stop-color="#fff"/><stop offset="1" stop-color="#B8B8B8"/></radialGradient><linearGradient id="i4d0438-paint2_linear_62588_479" x1="26.208" x2="35.702" y1="6" y2="61.944" gradientUnits="userSpaceOnUse"><stop stop-color="#BBB"/><stop offset="1" stop-color="#888"/></linearGradient><linearGradient id="i4d0438-paint3_linear_62588_479" x1="20.222" x2="29.153" y1="2" y2="58.135" gradientUnits="userSpaceOnUse"><stop stop-color="#fff"/><stop offset="1" stop-color="#EBEBEB"/></linearGradient><radialGradient id="i4d0438-paint4_radial_62588_479" cx="0" cy="0" r="1" gradientTransform="matrix(23.2222 44.3333 -34.8333 16.625 22.056 16.583)" gradientUnits="userSpaceOnUse"><stop offset=".177" stop-color="#fff"/><stop offset="1" stop-color="#B8B8B8"/></radialGradient><linearGradient id="i4d0438-paint5_linear_62588_479" x1="22.208" x2="31.702" y1="2" y2="57.944" gradientUnits="userSpaceOnUse"><stop stop-color="#BBB"/><stop offset="1" stop-color="#888"/></linearGradient><linearGradient id="i4d0438-paint6_linear_62588_479" x1="14" x2="36.447" y1="18.235" y2="48.816" gradientUnits="userSpaceOnUse"><stop stop-color="#4BA446"/><stop offset="1" stop-color="#3F7D35"/></linearGradient><linearGradient id="i4d0438-paint7_linear_62588_479" x1="57.105" x2="45.566" y1="62.859" y2="46.32" gradientUnits="userSpaceOnUse"><stop stop-color="#3F7D35"/><stop offset="1" stop-color="#4BA446"/></linearGradient></defs></svg>