<svg xmlns="http://www.w3.org/2000/svg" width="32" height="32" fill="currentColor"><path d="M15 2.423a2 2 0 0 1 2 0l4.63 2.672a2 2 0 0 1 1 1.732v5.346a2 2 0 0 1-1 1.732L17 16.577a2 2 0 0 1-2 0l-4.629-2.672a2 2 0 0 1-1-1.732V6.827a2 2 0 0 1 1-1.732l4.63-2.672Zm1 1.732-4.629 2.672v5.346l4.63 2.672 4.628-2.672V6.827zM7.5 15.173a2 2 0 0 1 2 0l4.63 2.672a2 2 0 0 1 1 1.732v5.346a2 2 0 0 1-1 1.732L9.5 29.327a2 2 0 0 1-2 0l-4.629-2.672a2 2 0 0 1-1-1.732v-5.346a2 2 0 0 1 1-1.732l4.63-2.672Zm1 1.732-4.629 2.672v5.346l4.63 2.672 4.628-2.672v-5.346zm16-1.732a2 2 0 0 0-2 0l-4.629 2.672a2 2 0 0 0-1 1.732v5.346a2 2 0 0 0 1 1.732l4.63 2.672a2 2 0 0 0 2 0l4.628-2.672a2 2 0 0 0 1-1.732v-5.346a2 2 0 0 0-1-1.732zm-5.629 4.404 4.63-2.672 4.628 2.672v5.346L23.5 27.595l-4.629-2.672z"/></svg>