<svg xmlns="http://www.w3.org/2000/svg" width="32" height="32" fill="currentColor"><path d="M17 2.423a2 2 0 0 0-2 0l-4.629 2.672a2 2 0 0 0-1 1.732v5.346a2 2 0 0 0 1 1.732l4.63 2.672a2 2 0 0 0 2 0l4.628-2.672a2 2 0 0 0 1-1.732V6.827a2 2 0 0 0-1-1.732zm-7.5 12.75a2 2 0 0 0-2 0l-4.629 2.672a2 2 0 0 0-1 1.732v5.346a2 2 0 0 0 1 1.732l4.63 2.672a2 2 0 0 0 2 0l4.628-2.672a2 2 0 0 0 1-1.732v-5.346a2 2 0 0 0-1-1.732zm15 0a2 2 0 0 0-2 0l-4.629 2.672a2 2 0 0 0-1 1.732v5.346a2 2 0 0 0 1 1.732l4.63 2.672a2 2 0 0 0 2 0l4.628-2.672a2 2 0 0 0 1-1.732v-5.346a2 2 0 0 0-1-1.732z"/></svg>