<svg xmlns="http://www.w3.org/2000/svg" width="20" height="20" fill="currentColor"><path d="M16 9v-.557a.5.5 0 0 0-.166-.372l-5.5-4.943a.5.5 0 0 0-.668 0l-5.5 4.943A.5.5 0 0 0 4 8.443V15.5a.5.5 0 0 0 .5.5h5.337c.202.567.74 1 1.415 1H4.5A1.5 1.5 0 0 1 3 15.5V8.443c0-.425.18-.831.498-1.116l5.5-4.943a1.5 1.5 0 0 1 2.005 0l5.5 4.943A1.5 1.5 0 0 1 17 8.443v.569A2 2 0 0 0 16.808 9z"/><path d="M7 11a1 1 0 1 0 0-2 1 1 0 0 0 0 2m3 0a1 1 0 1 0 0-2 1 1 0 0 0 0 2m.267 2.964.605-1.454a1 1 0 1 0-.605 1.454M7 14a1 1 0 1 0 0-2 1 1 0 0 0 0 2m5.362 2a.5.5 0 0 1 .485.621l-.434 1.738c-.121.483.462.827.826.487l4.872-4.548A.75.75 0 0 0 17.6 13h-.404a.5.5 0 0 1-.474-.658l.561-1.684A.5.5 0 0 0 16.81 10h-3.473a.5.5 0 0 0-.462.308l-2.083 5a.5.5 0 0 0 .461.692z"/></svg>