<svg xmlns="http://www.w3.org/2000/svg" width="32" height="32" fill="currentColor"><path d="M21 10a3 3 0 1 0-2.218-.98l-1.271 2.212A5 5 0 0 0 16 11a4.98 4.98 0 0 0-2.734.813l-1.546-1.546a3 3 0 1 0-1.4 1.428l1.524 1.524A4.98 4.98 0 0 0 11 16c0 .526.081 1.032.231 1.508l-2.229 1.258a3 3 0 1 0 .96 1.755l2.243-1.266A4.99 4.99 0 0 0 16 21c.798 0 1.553-.187 2.223-.52a5 5 0 0 1-.155-2.307A3 3 0 1 1 19 16a5 5 0 0 1 1.777-1.479 5 5 0 0 0-1.52-2.313l1.288-2.241q.222.034.455.034Zm0-2a1 1 0 1 1 0-2 1 1 0 0 1 0 2M9 10a1 1 0 1 1 0-2 1 1 0 0 1 0 2M8 21a1 1 0 1 1-2 0 1 1 0 0 1 2 0"/><path d="M26.5 19a3.5 3.5 0 1 1-7 0 3.5 3.5 0 0 1 7 0m2.5 7.438c0 2.023-1.714 4.062-6 4.062s-6-2.031-6-4.063C17 25.102 18.082 24 19.417 24h7.166C27.918 24 29 25.102 29 26.438"/></svg>