<svg xmlns="http://www.w3.org/2000/svg" width="32" height="32" fill="currentColor"><path d="M24 7a3 3 0 0 1-3.455 2.966l-1.287 2.24a5 5 0 0 1 1.52 2.314A5 5 0 0 0 19 16a3 3 0 1 0-.932 2.173 5.04 5.04 0 0 0 .155 2.307c-.67.333-1.425.52-2.223.52a4.99 4.99 0 0 1-3.795-1.745l-2.243 1.266a3 3 0 1 1-.96-1.755l2.23-1.258A5 5 0 0 1 11 16c0-1.03.31-1.986.844-2.78l-1.524-1.525a3 3 0 1 1 1.4-1.428l1.546 1.546A4.98 4.98 0 0 1 16 11c.527 0 1.034.081 1.51.232l1.272-2.212A3 3 0 1 1 24 7"/><path d="M26.5 19a3.5 3.5 0 1 1-7 0 3.5 3.5 0 0 1 7 0m2.5 7.438c0 2.023-1.714 4.062-6 4.062s-6-2.031-6-4.063C17 25.102 18.082 24 19.417 24h7.166C27.918 24 29 25.102 29 26.438"/></svg>