<svg xmlns="http://www.w3.org/2000/svg" width="24" height="24" fill="currentColor"><path d="M3 6.25A3.25 3.25 0 0 1 6.25 3h11.5A3.25 3.25 0 0 1 21 6.25V14c0-1.19-.593-2.24-1.5-2.873V10h-15v4H14v.05a2.5 2.5 0 0 0-1.792 1.45H4.5v2.25c0 .966.784 1.75 1.75 1.75H12V21H6.25A3.25 3.25 0 0 1 3 17.75zM6.25 4.5A1.75 1.75 0 0 0 4.5 6.25V8.5h15V6.25a1.75 1.75 0 0 0-1.75-1.75z"/><path d="M15 15v-1a2.5 2.5 0 0 1 5 0v1h.5a1.5 1.5 0 0 1 1.5 1.5v5a1.5 1.5 0 0 1-1.5 1.5h-6a1.5 1.5 0 0 1-1.5-1.5v-5a1.5 1.5 0 0 1 1.5-1.5zm1.5-1a1 1 0 1 1 2 0v1h-2zm2 5a1 1 0 1 0-2 0 1 1 0 0 0 2 0"/></svg>