<svg xmlns="http://www.w3.org/2000/svg" width="24" height="24" fill="currentColor"><path d="M3 6.25A3.25 3.25 0 0 1 6.25 3h11.5A3.25 3.25 0 0 1 21 6.25V14c0-1.19-.593-2.24-1.5-2.873V6.25a1.75 1.75 0 0 0-1.75-1.75H15.5v6.627A3.5 3.5 0 0 0 14 14V4.5h-4v15h2V21H6.25A3.25 3.25 0 0 1 3 17.75zM6.25 4.5A1.75 1.75 0 0 0 4.5 6.25v11.5c0 .966.784 1.75 1.75 1.75H8.5v-15z"/><path d="M15 15v-1a2.5 2.5 0 0 1 5 0v1h.5a1.5 1.5 0 0 1 1.5 1.5v5a1.5 1.5 0 0 1-1.5 1.5h-6a1.5 1.5 0 0 1-1.5-1.5v-5a1.5 1.5 0 0 1 1.5-1.5zm1.5-1v1h2v-1a1 1 0 1 0-2 0m2 5a1 1 0 1 0-2 0 1 1 0 0 0 2 0"/></svg>