<svg xmlns="http://www.w3.org/2000/svg" width="20" height="20" fill="currentColor"><g clip-path="url(#i7e8418-a)"><path d="M2 3.499A1.5 1.5 0 0 1 3.5 2h1c.827 0 1.499.67 1.499 1.498v7.841a3 3 0 0 0-1-.938V3.499a.5.5 0 0 0-.5-.5h-1a.5.5 0 0 0-.5.5v6.543c-.358.06-.695.185-.999.36zm5.977 14.387Q8 17.694 8 17.501c0-.819-.393-1.545-1.002-2.001V3.499a1.5 1.5 0 0 1 1.5-1.498h1c.828 0 1.499.67 1.499 1.498V16.48c0 .828-.671 1.498-1.5 1.498h-1q-.274-.001-.52-.092m.021-14.387V16.48a.5.5 0 0 0 .5.5h1a.5.5 0 0 0 .5-.5V3.5a.5.5 0 0 0-.5-.5h-1a.5.5 0 0 0-.5.5Zm7.72 2.659a1.5 1.5 0 0 0-1.87-1.106l-.745.21a1.5 1.5 0 0 0-1.06 1.741l2.003 9.8a1.5 1.5 0 0 0 1.839 1.151l.985-.25c.79-.2 1.274-.994 1.092-1.787zm-1.598-.145a.5.5 0 0 1 .624.368l2.243 9.76a.5.5 0 0 1-.364.595l-.985.25a.5.5 0 0 1-.613-.383l-2.003-9.8a.5.5 0 0 1 .353-.58zM5.5 13.001a2 2 0 1 1-4 0 2 2 0 0 1 4 0m1.5 4.5c0 1.245-1 2.5-3.5 2.5s-3.5-1.25-3.5-2.5a1.5 1.5 0 0 1 1.5-1.5h4a1.5 1.5 0 0 1 1.5 1.5"/></g><defs><clipPath id="i7e8418-a"><path d="M0 0h20v20H0z"/></clipPath></defs></svg>