<svg xmlns="http://www.w3.org/2000/svg" width="20" height="20" fill="currentColor"><path d="M2 3.499A1.5 1.5 0 0 1 3.5 2h1c.827 0 1.499.67 1.499 1.498v5.524a5.6 5.6 0 0 0-1 0V3.5a.5.5 0 0 0-.5-.5h-1a.5.5 0 0 0-.5.5v6.1a5.5 5.5 0 0 0-.999.657v-6.76Zm8.997 10.82V3.499c0-.827-.671-1.498-1.5-1.498h-1c-.827 0-1.499.67-1.499 1.498v5.709q.524.148 1 .392V3.499a.5.5 0 0 1 .5-.5h1a.5.5 0 0 1 .5.5v7.835c.598.85.963 1.876.999 2.985m4.721-8.161a1.5 1.5 0 0 0-1.87-1.106l-.745.21a1.5 1.5 0 0 0-1.06 1.741l2.003 9.8a1.5 1.5 0 0 0 1.839 1.151l.985-.25c.79-.2 1.274-.994 1.092-1.787zm-1.598-.145a.5.5 0 0 1 .624.368l2.243 9.76a.5.5 0 0 1-.364.595l-.985.25a.5.5 0 0 1-.613-.383l-2.003-9.8a.5.5 0 0 1 .353-.58zm-9.57 5.138c-.29.727-.493 1.722-.54 2.85h2.98c-.047-1.128-.25-2.123-.54-2.85-.167-.417-.354-.722-.535-.913-.18-.191-.32-.237-.415-.237s-.235.046-.415.237c-.182.191-.368.496-.535.913m-.72-.83a5 5 0 0 0-.209.459c-.344.862-.565 1.987-.612 3.221H1.027a4.5 4.5 0 0 1 2.802-3.68Z"/><path d="M7.17 10.321q.112.218.208.459c.345.862.565 1.987.612 3.221h1.982a4.5 4.5 0 0 0-2.802-3.68m2.802 4.68H7.99c-.047 1.234-.267 2.36-.612 3.221a5 5 0 0 1-.208.459A4.5 4.5 0 0 0 9.972 15Zm-4.472 4c.094 0 .235-.046.415-.236.181-.192.368-.497.535-.914.29-.727.493-1.722.54-2.85H4.01c.047 1.128.25 2.123.54 2.85.167.417.353.722.535.914.18.19.32.236.415.236m-1.67-.321a4.5 4.5 0 0 1-2.803-3.679H3.01c.047 1.234.268 2.36.612 3.221a5 5 0 0 0 .208.459Z"/></svg>