<svg xmlns="http://www.w3.org/2000/svg" width="20" height="20" fill="currentColor"><path d="M4 6a1 1 0 1 1-2 0 1 1 0 0 1 2 0m2.5-.5a.5.5 0 0 0 0 1h11a.5.5 0 0 0 0-1zM6 11a.5.5 0 0 1 .5-.5h4.831a5.5 5.5 0 0 0-1.08 1H6.5A.5.5 0 0 1 6 11m3.201 5.5a5.5 5.5 0 0 1-.184-1H6.5a.5.5 0 0 0 0 1zM3 17a1 1 0 1 0 0-2 1 1 0 0 0 0 2m0-5a1 1 0 1 0 0-2 1 1 0 0 0 0 2m9-.742a4.5 4.5 0 1 1 5 7.484 4.5 4.5 0 0 1-5-7.484m4.917 5.425a.5.5 0 0 0 .003-.863L15.5 15l1.406-.832a.5.5 0 0 0-.506-.863l-1.4.822V12.5a.5.5 0 0 0-1 0v1.634l-1.411-.812a.5.5 0 0 0-.5.866l1.42.82-1.415.829a.5.5 0 1 0 .506.863l1.4-.827V17.5a.5.5 0 0 0 1 0v-1.634l1.417.817a.49.49 0 0 0 .5 0"/></svg>