<svg xmlns="http://www.w3.org/2000/svg" width="20" height="20" fill="currentColor"><path d="M14.12 10.16a.535.535 0 0 1 .76 0c.508.532 1.484 1.378 2.684 1.552a.5.5 0 0 1 .436.482v2.323c0 3.122-2.784 4.255-3.386 4.463a.34.34 0 0 1-.227 0C13.785 18.773 11 17.64 11 14.517v-2.323a.5.5 0 0 1 .437-.482c1.199-.174 2.174-1.02 2.682-1.553ZM10 14.517q.002.247.021.483H2.5a.5.5 0 0 1 0-1H10zM14.5 9c-.403 0-.806.156-1.104.469a6 6 0 0 1-.586.531H2.5a.5.5 0 0 1 0-1zm-1-5a.5.5 0 0 1 0 1h-11a.5.5 0 0 1 0-1z"/></svg>