<svg xmlns="http://www.w3.org/2000/svg" width="20" height="20" fill="currentColor"><path d="M15 2a2 2 0 0 1 2 2v2a2 2 0 0 1-2 2H7a2 2 0 0 1-2-2V4a2 2 0 0 1 2-2zm1 2a1 1 0 0 0-1-1H7a1 1 0 0 0-1 1v2a1 1 0 0 0 1 1h8a1 1 0 0 0 1-1zm-7.879 6H15a2 2 0 0 1 2 2v4a2 2 0 0 1-2 2H7a2 2 0 0 1-2-2v-1.085c.323.114.677.114 1 0V16a1 1 0 0 0 1 1h8a1 1 0 0 0 1-1v-4a1 1 0 0 0-1-1H8.915a1.5 1.5 0 0 0-.354-.56L8.12 10ZM2 7.5a.5.5 0 0 1 1 0v2A1.5 1.5 0 0 0 4.5 11h1.793L5.146 9.854a.5.5 0 1 1 .708-.708l2 2a.5.5 0 0 1 0 .708l-2 2a.5.5 0 0 1-.708-.708L6.293 12H4.5A2.5 2.5 0 0 1 2 9.5z"/></svg>