<svg xmlns="http://www.w3.org/2000/svg" width="20" height="20" fill="currentColor"><path d="M10 15h.022a5.5 5.5 0 0 0 .436 2.7.5.5 0 0 1-.958-.2v-1.52a6 6 0 0 1-5.48-5.48H2.5a.5.5 0 0 1 0-1h1.52A6 6 0 0 1 9.5 4.02V2.5a.5.5 0 0 1 1 0v1.52a6 6 0 0 1 5.48 5.48h1.52a.5.5 0 0 1 .2.958 5.5 5.5 0 0 0-2.7-.436V10a5 5 0 1 0-5 5"/><path d="M10 13q.327 0 .635-.067a5.53 5.53 0 0 1 2.298-2.298A3 3 0 1 0 10 13m10 2.5a4.5 4.5 0 1 1-9 0 4.5 4.5 0 0 1 9 0m-4.854 2.353.003.003a.5.5 0 0 0 .348.144h.006a.5.5 0 0 0 .35-.146l2-2a.5.5 0 0 0-.707-.708L16 16.293V13.5a.5.5 0 0 0-1 0v2.793l-1.146-1.147a.5.5 0 0 0-.708.708z"/></svg>