<svg xmlns="http://www.w3.org/2000/svg" width="20" height="20" fill="currentColor"><path d="M5 10a5 5 0 0 0 4.968 5 5.5 5.5 0 0 0 .532 1.91v.59a.5.5 0 0 1-1 0v-1.52a6 6 0 0 1-5.48-5.48H2.5a.5.5 0 0 1 0-1h1.52A6 6 0 0 1 9.5 4.02V2.5a.5.5 0 0 1 1 0v1.52a6 6 0 0 1 5.42 5 5.6 5.6 0 0 0-1.015.006A5.002 5.002 0 0 0 5 10"/><path d="m10 13 .153-.004a5.51 5.51 0 0 1 2.819-3.41A3 3 0 1 0 10 13"/><path d="M15.5 11a3.5 3.5 0 1 0 2.684 5.747l.71.709a4.5 4.5 0 1 1-1.517-7.047q-.214.105-.393.282l-.032.033-.371.446A3.5 3.5 0 0 0 15.5 11"/><path d="M18.398 11.399a.5.5 0 0 1 0 .707l-1.932 2.324a1 1 0 1 1-.707-.707l1.932-2.325a.5.5 0 0 1 .707 0Z"/></svg>