<svg xmlns="http://www.w3.org/2000/svg" width="32" height="32" fill="currentColor"><path d="M16.25 2c.69 0 1.25.56 1.25 1.25v2.5q0 .055-.005.108a10.26 10.26 0 0 1 8.319 7.173 7.5 7.5 0 0 0-2.42.64 7.75 7.75 0 1 0-3.981 9.288q.235.676.587 1.285v1.196c-.79.335-1.629.574-2.505.702q.005.053.005.108v2.5a1.25 1.25 0 1 1-2.5 0v-2.548a10.25 10.25 0 0 1-9.202-9.203L5.75 17h-2.5a1.25 1.25 0 1 1 0-2.5h2.5q.055 0 .108.005a10.255 10.255 0 0 1 9.143-8.707L15 5.75v-2.5c0-.69.56-1.25 1.25-1.25"/><path d="M16 11a5 5 0 0 1 4.968 4.436 7.47 7.47 0 0 0-1.95 4.551A5 5 0 1 1 16 11m8 4.6a5.47 5.47 0 0 1 2.5-.6 5.5 5.5 0 1 1-2.5.6"/><path d="M22 30.05a.95.95 0 0 0 1.444.811L26.5 29l3.056 1.861A.95.95 0 0 0 31 30.05v-4.518a6.73 6.73 0 0 1-4.973 1.702A6.7 6.7 0 0 1 22 25.531z"/></svg>