<svg xmlns="http://www.w3.org/2000/svg" width="20" height="20" fill="currentColor"><path d="M10 2a4 4 0 1 0 0 8 4 4 0 0 0 0-8M7 6a3 3 0 1 1 6 0 3 3 0 0 1-6 0m-1.991 5h6.217q-.174.489-.232 1H5.01C4.448 12 4 12.447 4 13c0 1.309.622 2.284 1.673 2.953.654.418 1.477.716 2.414.884a2.5 2.5 0 0 0-.063 1.005c-1.088-.183-2.078-.528-2.889-1.045C3.833 15.967 3 14.69 3 13c0-1.113.903-2 2.009-2m10.883-1.976c.366.042.471.48.21.742l-.975.975a1.507 1.507 0 1 0 2.132 2.132l.975-.975c.261-.261.7-.156.742.21a3.518 3.518 0 0 1-4.676 3.723l-2.726 2.727a1.507 1.507 0 1 1-2.132-2.132l2.726-2.726a3.518 3.518 0 0 1 3.724-4.676"/></svg>