<svg xmlns="http://www.w3.org/2000/svg" width="32" height="32" fill="currentColor"><path d="M27.057 7.041a3 3 0 0 0-3-3H6.059a3 3 0 0 0-3 3v18.003a3 3 0 0 0 3 3h10.495a5 5 0 0 1-.036-.607c0-2.147 1.737-3.937 3.917-3.937h.012a4.98 4.98 0 0 1-1.372-4.258l-1.122 2.24c-.364.727-1.373.728-1.758.058l-.065-.133-3.115-7.78-1.38 3.15a1 1 0 0 1-.77.587l-.146.011h-2.66a1 1 0 0 1-.136-1.99l.136-.01h2.006l2.076-4.735c.335-.764 1.381-.793 1.778-.107l.066.137 3.175 7.929 1.338-2.672a1 1 0 0 1 .754-.542l.14-.01h2.667l.052.001A5 5 0 0 1 24.018 15c1.143 0 2.197.384 3.039 1.03V7.04Z"/><path d="M27.518 20a3.5 3.5 0 1 1-7 0 3.5 3.5 0 0 1 7 0m2.5 7.438c0 2.023-1.715 4.062-6 4.062s-6-2.031-6-4.063c0-1.335 1.082-2.437 2.417-2.437H27.6c1.335 0 2.418 1.102 2.418 2.438"/></svg>