<svg xmlns="http://www.w3.org/2000/svg" width="20" height="20" fill="currentColor"><path d="M17.854 5.141a.5.5 0 0 1 0 .708l-1 1a.5.5 0 0 1-.708 0l-1-1a.5.5 0 0 1 .708-.708l.137.138A2.5 2.5 0 0 0 11 5.495a.5.5 0 0 1-1 0 3.5 3.5 0 0 1 6.994-.2l.152-.153a.5.5 0 0 1 .708 0ZM16 17.995a2 2 0 0 0 2-2v-4a2 2 0 0 0-2-2H8a2 2 0 0 0-2 2v4a2 2 0 0 0 2 2zm1-2a1 1 0 0 1-1 1H8a1 1 0 0 1-1-1v-4a1 1 0 0 1 1-1h8a1 1 0 0 1 1 1z"/><path d="M4 13.995h1v1H4a2 2 0 0 1-2-2v-4a2 2 0 0 1 2-2h8a2 2 0 0 1 2 2h-1a1 1 0 0 0-1-1H4a1 1 0 0 0-1 1v4a1 1 0 0 0 1 1"/></svg>