<svg xmlns="http://www.w3.org/2000/svg" width="32" height="32" fill="none"><rect width="20" height="20" x="5" y="3" fill="url(#i70e5d0-ic2a16e-paint0_linear_62447_606)" rx="2"/><rect width="20" height="20" x="5" y="3" fill="url(#i70e5d0-ic2a16e-paint1_radial_62447_606)" fill-opacity=".75" rx="2"/><rect width="20" height="20" x="5" y="3" fill="url(#i70e5d0-ic2a16e-paint2_linear_62447_606)" rx="2"/><rect width="20" height="20" x="5" y="3" fill="url(#i70e5d0-ic2a16e-paint3_linear_62447_606)" rx="2"/><path fill="url(#i70e5d0-ic2a16e-paint4_linear_62447_606)" d="M19.335 8.679a1.339 1.339 0 0 1 2.33 0l8.153 14.25c.517.904-.13 2.035-1.165 2.035H12.347c-1.035 0-1.682-1.13-1.165-2.035z"/><path fill="url(#i70e5d0-ic2a16e-paint5_radial_62447_606)" fill-opacity=".2" d="M19.335 8.679a1.339 1.339 0 0 1 2.33 0l8.153 14.25c.517.904-.13 2.035-1.165 2.035H12.347c-1.035 0-1.682-1.13-1.165-2.035z"/><path fill="url(#i70e5d0-ic2a16e-paint6_linear_62447_606)" d="M19.335 8.679a1.339 1.339 0 0 1 2.33 0l8.153 14.25c.517.904-.13 2.035-1.165 2.035H12.347c-1.035 0-1.682-1.13-1.165-2.035z"/><circle cx="11" cy="21" r="8" fill="url(#i70e5d0-ic2a16e-paint7_linear_62447_606)"/><circle cx="11" cy="21" r="8" fill="url(#i70e5d0-ic2a16e-paint8_radial_62447_606)" fill-opacity=".75"/><defs><linearGradient id="i70e5d0-ic2a16e-paint0_linear_62447_606" x1="25" x2="5" y1="3" y2="23" gradientUnits="userSpaceOnUse"><stop offset=".166" stop-color="#D257D6"/><stop offset=".57" stop-color="#D257D6"/><stop offset="1" stop-color="#9B25A0"/></linearGradient><radialGradient id="i70e5d0-ic2a16e-paint1_radial_62447_606" cx="0" cy="0" r="1" gradientTransform="matrix(8 -14.66664 12.6582 6.90448 10.333 22)" gradientUnits="userSpaceOnUse"><stop offset=".098" stop-color="#372D95" stop-opacity=".8"/><stop offset=".689" stop-color="#372D95" stop-opacity="0"/></radialGradient><linearGradient id="i70e5d0-ic2a16e-paint2_linear_62447_606" x1="25" x2="5" y1="3" y2="23" gradientUnits="userSpaceOnUse"><stop stop-color="#85198A" stop-opacity="0"/><stop offset="1" stop-color="#85198A"/></linearGradient><linearGradient id="i70e5d0-ic2a16e-paint3_linear_62447_606" x1="20" x2="5" y1="1.333" y2="23" gradientUnits="userSpaceOnUse"><stop stop-color="#FFF0A8" stop-opacity=".25"/><stop offset=".55" stop-color="#FFF0A8" stop-opacity="0"/></linearGradient><linearGradient id="i70e5d0-ic2a16e-paint4_linear_62447_606" x1="32.604" x2="13.883" y1="6.643" y2="25.473" gradientUnits="userSpaceOnUse"><stop offset=".183" stop-color="#F7ADFA"/><stop offset=".672" stop-color="#D257D6"/><stop offset=".954" stop-color="#AD30B2"/></linearGradient><radialGradient id="i70e5d0-ic2a16e-paint5_radial_62447_606" cx="0" cy="0" r="1" gradientTransform="matrix(11.5357 -3.05357 3.42 12.92001 10.66 21.232)" gradientUnits="userSpaceOnUse"><stop offset=".535" stop-color="#372D95"/><stop offset="1" stop-color="#372D95" stop-opacity="0"/></radialGradient><linearGradient id="i70e5d0-ic2a16e-paint6_linear_62447_606" x1="27.635" x2="4.103" y1="5.286" y2="30.858" gradientUnits="userSpaceOnUse"><stop offset=".106" stop-color="#FFF0A8" stop-opacity=".25"/><stop offset=".609" stop-color="#FFF0A8" stop-opacity="0"/></linearGradient><linearGradient id="i70e5d0-ic2a16e-paint7_linear_62447_606" x1="13.333" x2="5.667" y1="13.333" y2="28" gradientUnits="userSpaceOnUse"><stop offset=".145" stop-color="#F8ADFA"/><stop offset=".615" stop-color="#E176E5"/><stop offset="1" stop-color="#D257D6"/></linearGradient><radialGradient id="i70e5d0-ic2a16e-paint8_radial_62447_606" cx="0" cy="0" r="1" gradientTransform="matrix(14.66653 -17.33339 12.6496 10.70338 6 26)" gradientUnits="userSpaceOnUse"><stop offset=".426" stop-color="#FFF0A8" stop-opacity="0"/><stop offset=".89" stop-color="#FFF0A8" stop-opacity=".45"/></radialGradient></defs></svg>