<svg xmlns="http://www.w3.org/2000/svg" width="64" height="64" fill="currentColor"><path fill="url(#if8f710-a)" fill-rule="evenodd" d="M7.5 5a.5.5 0 0 0-.5.5V40h49.5L43.6 22.8a.5.5 0 0 1 0-.6L56.5 5zM7 41v18.5a.5.5 0 0 1-1 0v-54A1.5 1.5 0 0 1 7.5 4h50a.5.5 0 0 1 .4.8L44.625 22.5 57.9 40.2a.5.5 0 0 1-.4.8z" clip-rule="evenodd"/><defs><linearGradient id="if8f710-a" x1="6" x2="61.847" y1="4" y2="55.858" gradientUnits="userSpaceOnUse"><stop stop-color="#209782"/><stop offset="1" stop-color="#0C695A"/></linearGradient></defs></svg>