<svg xmlns="http://www.w3.org/2000/svg" width="20" height="20" fill="currentColor"><path d="M3 5a2 2 0 0 1 2-2h8.379a2 2 0 0 1 1.414.586l1.621 1.621A2 2 0 0 1 17 6.621V9h-1V6.621a1 1 0 0 0-.293-.707l-1.621-1.621A1 1 0 0 0 13.379 4H13v2.5A1.5 1.5 0 0 1 11.5 8h-4A1.5 1.5 0 0 1 6 6.5V4H5a1 1 0 0 0-1 1v10a1 1 0 0 0 1 1v-4.5A1.5 1.5 0 0 1 6.5 10h6.129c-.24.29-.42.629-.525 1H6.5a.5.5 0 0 0-.5.5V16h6v1H5a2 2 0 0 1-2-2zm4-1v2.5a.5.5 0 0 0 .5.5h4a.5.5 0 0 0 .5-.5V4z"/><path d="M13 11.75c0-.966.784-1.75 1.75-1.75h2.5c.966 0 1.75.784 1.75 1.75v5.5A1.75 1.75 0 0 1 17.25 19h-2.5A1.75 1.75 0 0 1 13 17.25zM15.5 16a.5.5 0 0 0 0 1h1a.5.5 0 0 0 0-1z"/></svg>