<svg xmlns="http://www.w3.org/2000/svg" width="20" height="20" fill="currentColor"><path d="M5 2a3 3 0 0 0-3 3v1.5a.5.5 0 0 0 1 0V5a2 2 0 0 1 2-2h1.5a.5.5 0 0 0 0-1zm8.5 0a.5.5 0 0 0 0 1H15a2 2 0 0 1 2 2v1.5a.5.5 0 0 0 1 0V5a3 3 0 0 0-3-3zM3 12.5a.5.5 0 0 0-1 0V14a3 3 0 0 0 3 3h1.5a.5.5 0 0 0 0-1H5a2 2 0 0 1-2-2zm15 0a.5.5 0 0 0-1 0V14a2 2 0 0 1-2 2h-1.5a.5.5 0 0 0 0 1H15a3 3 0 0 0 3-3zM7.293 9H4.5a.5.5 0 0 0 0 1h2.793l-1.147 1.146a.5.5 0 0 0 .708.708l2-2a.5.5 0 0 0 0-.708l-2-2a.5.5 0 1 0-.708.708zM10 9.5a.5.5 0 0 1 .5-.5h4a.5.5 0 0 1 0 1h-4a.5.5 0 0 1-.5-.5m.5-3.5a.5.5 0 0 0 0 1h4a.5.5 0 0 0 0-1zm-.5 6.5a.5.5 0 0 1 .5-.5h4a.5.5 0 0 1 0 1h-4a.5.5 0 0 1-.5-.5"/></svg>