<svg xmlns="http://www.w3.org/2000/svg" width="20" height="20" fill="currentColor"><path d="M13 4c-1.459 0-2.735.78-3.434 1.948a2.2 2.2 0 0 0-.84-.543 5 5 0 0 1 9.124 3.82A1.5 1.5 0 0 0 17.057 9h-.184A4 4 0 0 0 13 4M9.013 6.864l2.592 4.489-.529 1.267L8.07 7.41A.08.08 0 0 0 8 7.37a.08.08 0 0 0-.069.04l-4.83 8.366a.08.08 0 0 0 0 .08.08.08 0 0 0 .069.04h6.883a1.5 1.5 0 0 0 1.24 1.09H3.17a1.17 1.17 0 0 1-1.014-1.755l4.83-8.367a1.17 1.17 0 0 1 2.027 0"/><path d="M12.612 16a.5.5 0 0 1 .485.621l-.435 1.738c-.12.483.462.827.826.487l4.873-4.548A.75.75 0 0 0 17.849 13h-.403a.5.5 0 0 1-.475-.658l.562-1.684a.5.5 0 0 0-.475-.658h-3.473a.5.5 0 0 0-.461.308l-2.084 5a.5.5 0 0 0 .462.692z"/></svg>