<svg xmlns="http://www.w3.org/2000/svg" width="20" height="20" fill="currentColor"><path d="M13 4c-1.459 0-2.735.78-3.434 1.948a2.2 2.2 0 0 0-.84-.543 5 5 0 0 1 8.827 4.667 2.5 2.5 0 0 0-.785-.727A4 4 0 0 0 13 4M9.013 6.864l2.155 3.733a2.5 2.5 0 0 0-.126.445 2.5 2.5 0 0 0-.728.257L8.069 7.41A.08.08 0 0 0 8 7.37a.08.08 0 0 0-.069.04l-4.83 8.366a.08.08 0 0 0 0 .08.08.08 0 0 0 .069.04H9v1.09H3.17a1.17 1.17 0 0 1-1.014-1.755l4.83-8.367a1.17 1.17 0 0 1 2.027 0"/><path d="M12 12v-.5a1.5 1.5 0 0 1 1.5-1.5h2a1.5 1.5 0 0 1 1.5 1.5v.5h.5a1.5 1.5 0 0 1 1.5 1.5V15h-2v-.5a.5.5 0 0 0-1 0v.5h-3v-.5a.5.5 0 0 0-1 0v.5h-2v-1.5a1.5 1.5 0 0 1 1.5-1.5zm1-.5v.5h3v-.5a.5.5 0 0 0-.5-.5h-2a.5.5 0 0 0-.5.5m4 4.5h2v1.5a1.5 1.5 0 0 1-1.5 1.5h-6a1.5 1.5 0 0 1-1.5-1.5V16h2v.5a.5.5 0 0 0 1 0V16h3v.5a.5.5 0 0 0 1 0z"/></svg>