<svg xmlns="http://www.w3.org/2000/svg" width="20" height="20" fill="currentColor"><path d="M13 4c-1.459 0-2.735.78-3.434 1.948a2.2 2.2 0 0 0-.84-.543 5 5 0 0 1 8.877 4.553 5.5 5.5 0 0 0-.88-.49A4 4 0 0 0 13 4M9.013 6.864l1.968 3.409q-.437.364-.791.81L8.069 7.41A.08.08 0 0 0 8 7.37a.08.08 0 0 0-.069.04l-4.83 8.366a.08.08 0 0 0 0 .08.08.08 0 0 0 .069.04h6.008q.151.572.415 1.09H3.17a1.17 1.17 0 0 1-1.014-1.755l4.83-8.367a1.17 1.17 0 0 1 2.027 0"/><path d="M12.065 11.442a2 2 0 0 1-1.43 2.478l-.461.118a4.7 4.7 0 0 0 .01 1.016l.35.083a2 2 0 0 1 1.455 2.519l-.126.423q.387.306.835.517l.325-.344a2 2 0 0 1 2.909.002l.337.358q.44-.203.822-.498l-.156-.556a2 2 0 0 1 1.43-2.478l.461-.118a4.7 4.7 0 0 0-.01-1.017l-.349-.082a2 2 0 0 1-1.456-2.52l.126-.421a4.3 4.3 0 0 0-.835-.519l-.324.344a2 2 0 0 1-2.91-.001l-.337-.358a4.3 4.3 0 0 0-.822.497zM14.5 15.5a1 1 0 1 1 0-2 1 1 0 0 1 0 2"/></svg>