<svg xmlns="http://www.w3.org/2000/svg" width="20" height="20" fill="currentColor"><path d="M2 10q0-.922.32-1.71a5.5 5.5 0 0 1 .875-1.454A6.5 6.5 0 0 1 4.47 5.672a9.1 9.1 0 0 1 3.484-1.477Q8.961 4 10 4q1.04 0 2.047.195a9 9 0 0 1 1.96.617 8.7 8.7 0 0 1 1.516.86q.72.507 1.274 1.164.555.657.875 1.445.32.79.328 1.719 0 .915-.328 1.71a5.6 5.6 0 0 1-.875 1.454 6.5 6.5 0 0 1-1.274 1.164q-.727.508-1.515.867a8.8 8.8 0 0 1-1.961.61Q11.039 15.993 10 16q-1.04 0-2.047-.188a8.6 8.6 0 0 1-1.96-.617 9 9 0 0 1-1.509-.86 6.7 6.7 0 0 1-1.273-1.17 5.6 5.6 0 0 1-.883-1.454A4.4 4.4 0 0 1 2 10m15 0q0-.726-.242-1.336a4.4 4.4 0 0 0-.703-1.172 5.5 5.5 0 0 0-1.235-1.125 7.5 7.5 0 0 0-1.508-.773 8.7 8.7 0 0 0-1.64-.446A10.7 10.7 0 0 0 10 5a10 10 0 0 0-1.781.156 8 8 0 0 0-1.727.516q-.672.281-1.304.695a5.5 5.5 0 0 0-1.118.961q-.484.547-.773 1.219A3.7 3.7 0 0 0 3 10q0 .789.29 1.453.288.665.78 1.211.492.547 1.117.961t1.305.703q.836.352 1.719.508T10 15q.82 0 1.664-.14a8.3 8.3 0 0 0 1.649-.454 8 8 0 0 0 1.5-.773 5.7 5.7 0 0 0 1.242-1.125 4.4 4.4 0 0 0 .695-1.164A3.7 3.7 0 0 0 17 10"/></svg>