<svg xmlns="http://www.w3.org/2000/svg" width="12" height="12" fill="currentColor"><path d="M6 8.875a.969.969 0 1 0 0-1.937.969.969 0 0 0 0 1.937M3.006 4.932a.5.5 0 0 1 0-.707 4.234 4.234 0 0 1 5.988 0 .5.5 0 0 1-.707.707 3.234 3.234 0 0 0-4.574 0 .5.5 0 0 1-.707 0"/><path d="M4.575 6.71a2.016 2.016 0 0 1 2.85 0 .5.5 0 0 0 .707-.707 3.016 3.016 0 0 0-4.264 0 .5.5 0 0 0 .707.707"/><path d="M3 1a2 2 0 0 0-2 2v6a2 2 0 0 0 2 2h6a2 2 0 0 0 2-2V3a2 2 0 0 0-2-2zM2 3a1 1 0 0 1 1-1h6a1 1 0 0 1 1 1v6a1 1 0 0 1-1 1H3a1 1 0 0 1-1-1z"/></svg>