<svg xmlns="http://www.w3.org/2000/svg" width="12" height="12" fill="currentColor"><g clip-path="url(#i7ef2dc-a)"><path d="M2.087 5.195a2.75 2.75 0 0 1 0-3.89.5.5 0 0 0-.707-.707 3.75 3.75 0 0 0 0 5.304.5.5 0 1 0 .707-.707m7.826 0a2.75 2.75 0 0 0 0-3.89.5.5 0 1 1 .707-.707 3.75 3.75 0 0 1 0 5.304.5.5 0 0 1-.707-.707"/><path d="M8.24 2.196a1.49 1.49 0 0 1 0 2.108.5.5 0 1 0 .706.707 2.49 2.49 0 0 0 0-3.522.5.5 0 1 0-.707.707ZM4.942 4.253a1.375 1.375 0 1 1 2.117 0l2.387 5.968a.75.75 0 1 1-1.393.557L6 5.645l-2.053 5.133a.75.75 0 0 1-1.393-.557zM3.761 2.196a1.49 1.49 0 0 0 0 2.108.5.5 0 0 1-.707.707 2.49 2.49 0 0 1 0-3.522.5.5 0 1 1 .707.707"/></g><defs><clipPath id="i7ef2dc-a"><path d="M0 0h12v12H0z"/></clipPath></defs></svg>