<svg xmlns="http://www.w3.org/2000/svg" width="12" height="12" fill="currentColor"><path d="M9.913 5.195a2.75 2.75 0 0 0 0-3.89.5.5 0 1 1 .707-.707 3.75 3.75 0 0 1 0 5.304.5.5 0 0 1-.707-.707"/><path d="M8.239 4.304a1.49 1.49 0 0 0 0-2.108.5.5 0 1 1 .707-.707 2.49 2.49 0 0 1 0 3.522.5.5 0 0 1-.707-.707m-3.105.139a1.375 1.375 0 1 1 1.732 0l2.348 5.871a.5.5 0 0 1-.928.372L6 4.97l-2.286 5.715a.5.5 0 0 1-.928-.372zM2.087 1.305a2.75 2.75 0 0 0 0 3.89.5.5 0 0 1-.707.707 3.75 3.75 0 0 1 0-5.304.5.5 0 0 1 .707.707"/><path d="M3.761 2.196a1.49 1.49 0 0 0 0 2.108.5.5 0 0 1-.707.707 2.49 2.49 0 0 1 0-3.522.5.5 0 0 1 .707.707"/></svg>