<svg xmlns="http://www.w3.org/2000/svg" width="20" height="20" fill="currentColor"><path d="M4.5 15H9v1H4.5A2.5 2.5 0 0 1 2 13.5v-7A2.5 2.5 0 0 1 4.5 4h11A2.5 2.5 0 0 1 18 6.5v2.55a2.5 2.5 0 0 0-.5-.05H17V6.5A1.5 1.5 0 0 0 15.5 5h-11A1.5 1.5 0 0 0 3 6.5v7A1.5 1.5 0 0 0 4.5 15"/><path d="M5.5 7a.5.5 0 0 0 0 1h4a.5.5 0 0 0 0-1zm0 2.5a.5.5 0 0 0 0 1h3.708c.174-.398.449-.742.792-1zM9 12H5.5a.5.5 0 0 0 0 1H9zm2.5-2a1.5 1.5 0 0 0-1.5 1.5v.5h9v-.5a1.5 1.5 0 0 0-1.5-1.5zm7.5 3h-9v4.5a1.5 1.5 0 0 0 1.5 1.5h6a1.5 1.5 0 0 0 1.5-1.5z"/></svg>