<svg xmlns="http://www.w3.org/2000/svg" width="20" height="20" fill="currentColor"><path d="M17 6.5V11h1V6.5A2.5 2.5 0 0 0 15.5 4h-11A2.5 2.5 0 0 0 2 6.5v7A2.5 2.5 0 0 0 4.5 16H6v-1H4.5A1.5 1.5 0 0 1 3 13.5v-7A1.5 1.5 0 0 1 4.5 5h11A1.5 1.5 0 0 1 17 6.5"/><path d="M5.5 7a.5.5 0 0 0 0 1h4a.5.5 0 0 0 0-1zm0 2.5a.5.5 0 0 0 0 1h7a.5.5 0 0 0 0-1zm0 2.5a.5.5 0 0 0 0 1H6c0-.364.097-.706.268-1zm7.5 0H8a1 1 0 0 0-1 1v5a1 1 0 0 0 1 1h5zm-1.396 2.296a.5.5 0 0 1 0 .708l-1.75 1.75a.5.5 0 0 1-.691.015l-.75-.685a.5.5 0 0 1 .674-.738l.397.363 1.412-1.412a.5.5 0 0 1 .708 0ZM14 19h5a1 1 0 0 0 1-1v-5a1 1 0 0 0-1-1h-5zm3.646-4.854a.5.5 0 0 1 .708.708l-.647.646.647.646a.5.5 0 0 1-.708.708L17 16.207l-.646.647a.5.5 0 0 1-.708-.708l.647-.646-.647-.646a.5.5 0 0 1 .708-.708l.646.647z"/></svg>