<svg xmlns="http://www.w3.org/2000/svg" width="28" height="28" fill="currentColor"><path d="M7.75 16a.75.75 0 0 0 0 1.5h7.5a.75.75 0 0 0 0-1.5z"/><path d="M8 4.75A2.75 2.75 0 0 1 10.75 2h11.5A2.75 2.75 0 0 1 25 4.75v11.5A2.75 2.75 0 0 1 22.25 19H20v4.25A2.75 2.75 0 0 1 17.25 26H5.75A2.75 2.75 0 0 1 3 23.25v-11.5A2.75 2.75 0 0 1 5.75 9H8zM22.25 17.5c.69 0 1.25-.56 1.25-1.25V4.75c0-.69-.56-1.25-1.25-1.25h-11.5c-.69 0-1.25.56-1.25 1.25V9h7.75A2.75 2.75 0 0 1 20 11.75v5.75zm-16.5-7c-.69 0-1.25.56-1.25 1.25v11.5c0 .69.56 1.25 1.25 1.25h11.5c.69 0 1.25-.56 1.25-1.25v-11.5c0-.69-.56-1.25-1.25-1.25z"/></svg>