<svg xmlns="http://www.w3.org/2000/svg" width="28" height="28" fill="currentColor"><path d="M3 6.75A3.75 3.75 0 0 1 6.75 3h14.5A3.75 3.75 0 0 1 25 6.75v9.806a2.3 2.3 0 0 0-.514-.056c-.348 0-.683.078-.986.227V6.75a2.25 2.25 0 0 0-2.25-2.25H6.75A2.25 2.25 0 0 0 4.5 6.75v14.5a2.25 2.25 0 0 0 2.25 2.25h7.313a2.27 2.27 0 0 0 .166 1.5H6.75A3.75 3.75 0 0 1 3 21.25z"/><path d="M19.808 16.92a6.5 6.5 0 0 0 .673-2.42h-2.988a16.4 16.4 0 0 1-.234 2.374 2.24 2.24 0 0 1 1.24-.374c.488 0 .94.156 1.309.42m-3.316-3.42h-4.985c.098-3.356 1.177-6 2.493-6s2.394 2.644 2.492 6m-5.193 5.455a6.4 6.4 0 0 0 .597 1.197A6.5 6.5 0 0 1 7.519 14.5h2.988c.046 1.694.33 3.255.792 4.455m5.193-4.455c-.098 3.356-1.176 6-2.492 6s-2.395-2.644-2.493-6zm.208-5.455a6.4 6.4 0 0 0-.596-1.197A6.5 6.5 0 0 1 20.48 13.5h-2.988c-.047-1.694-.33-3.255-.792-4.455m-4.804-1.197a6.4 6.4 0 0 0-.598 1.197c-.461 1.2-.745 2.761-.791 4.455H7.519a6.5 6.5 0 0 1 4.377-5.652m6.062 18.932a.75.75 0 0 0 .537.22.75.75 0 0 0 .537-.22l2.234-2.234a.75.75 0 1 0-1.061-1.061l-.955.955v-5.69a.75.75 0 0 0-1.5 0v5.701l-.966-.966a.75.75 0 1 0-1.061 1.061zm8.247-5.265-.966-.966v5.701a.75.75 0 0 1-1.5 0v-5.69l-.955.955a.75.75 0 1 1-1.061-1.061l2.234-2.234a.75.75 0 0 1 .537-.22.75.75 0 0 1 .537.22l2.234 2.234a.75.75 0 0 1-1.06 1.061"/></svg>