<svg xmlns="http://www.w3.org/2000/svg" width="32" height="32" fill="currentColor"><path d="M14.5 2A4.5 4.5 0 0 0 10 6.5V8h2V6.5A2.5 2.5 0 0 1 14.5 4h11A2.5 2.5 0 0 1 28 6.5v9.015a9 9 0 0 1 2 1.828V6.5A4.5 4.5 0 0 0 25.5 2z"/><path d="M17.5 10a4.5 4.5 0 0 1 4.479 4.057 9 9 0 0 0-1.979.455V14.5a2.5 2.5 0 0 0-2.5-2.5h-11A2.5 2.5 0 0 0 4 14.5v11A2.5 2.5 0 0 0 6.5 28h9.015a9 9 0 0 0 1.828 2H6.5A4.5 4.5 0 0 1 2 25.5v-11A4.5 4.5 0 0 1 6.5 10z"/><path fill-rule="evenodd" d="M23 30.5a7.5 7.5 0 1 0 0-15 7.5 7.5 0 0 0 0 15m1-12.25a.75.75 0 0 0-1.5 0V22h-3.75a.75.75 0 0 0 0 1.5h3.75v3.75a.75.75 0 0 0 1.5 0V23.5h3.75a.75.75 0 0 0 0-1.5H24z" clip-rule="evenodd"/></svg>