<svg xmlns="http://www.w3.org/2000/svg" width="32" height="32" fill="currentColor"><path d="M14.75 2A4.75 4.75 0 0 0 10 6.75v.75h2.5v-.75a2.25 2.25 0 0 1 2.25-2.25h11A2.25 2.25 0 0 1 28 6.75v11A2.25 2.25 0 0 1 25.75 20H25v2.5h.75a4.75 4.75 0 0 0 4.75-4.75v-11A4.75 4.75 0 0 0 25.75 2z"/><path d="M6.75 10A4.75 4.75 0 0 0 2 14.75v11a4.75 4.75 0 0 0 4.75 4.75h11a4.75 4.75 0 0 0 4.75-4.75v-11A4.75 4.75 0 0 0 17.75 10zM4.5 14.75a2.25 2.25 0 0 1 2.25-2.25h11A2.25 2.25 0 0 1 20 14.75v11A2.25 2.25 0 0 1 17.75 28h-11a2.25 2.25 0 0 1-2.25-2.25z"/></svg>