<svg xmlns="http://www.w3.org/2000/svg" width="28" height="28" fill="currentColor"><path d="M3 6.75A3.75 3.75 0 0 1 6.75 3h14.5A3.75 3.75 0 0 1 25 6.75v8.968a2.27 2.27 0 0 0-1.5-1.159V6.75a2.25 2.25 0 0 0-2.25-2.25H6.75A2.25 2.25 0 0 0 4.5 6.75v14.5a2.25 2.25 0 0 0 2.25 2.25h4.878a2.24 2.24 0 0 0 .001 1.5H6.75A3.75 3.75 0 0 1 3 21.25z"/><path d="M22 17.153a4 4 0 0 1-.257.395c-.33.44-.781.823-1.41.924a2.1 2.1 0 0 1-.623.006c-.65-.09-1.116-.48-1.453-.93a4 4 0 0 1-.257-.395v.001a4 4 0 0 1-.279-.613l-.003-.011a.75.75 0 0 0-1.441.02l-.003.009-.018.054a3.3 3.3 0 0 1-.504.922c-.384.49-.996.963-2.002.963a.75.75 0 0 0 0 1.5c1.574 0 2.587-.777 3.183-1.537l.067-.089.056.076c.47.627 1.23 1.312 2.338 1.5a3.6 3.6 0 0 0 1.192.003c1.12-.183 1.885-.872 2.358-1.503l.056-.076q.032.045.067.089c.596.76 1.61 1.537 3.183 1.537a.75.75 0 1 0 0-1.5c-1.006 0-1.618-.473-2.002-.963a3.3 3.3 0 0 1-.505-.922l-.017-.054-.003-.009a.75.75 0 0 0-1.44-.02l-.004.011-.02.058a4 4 0 0 1-.259.556zm0 5a4 4 0 0 1-.257.395c-.33.44-.781.823-1.41.924a2.1 2.1 0 0 1-.623.006c-.65-.09-1.116-.48-1.453-.93a4 4 0 0 1-.257-.395v.001a4 4 0 0 1-.279-.613l-.003-.011a.75.75 0 0 0-1.441.02l-.003.009-.018.054a3.3 3.3 0 0 1-.504.922c-.384.49-.996.963-2.002.963a.75.75 0 0 0 0 1.5c1.574 0 2.587-.777 3.183-1.537l.067-.089.056.076c.47.627 1.23 1.312 2.338 1.5a3.6 3.6 0 0 0 1.192.003c1.12-.183 1.885-.872 2.358-1.503l.056-.076q.032.045.067.089c.596.76 1.61 1.537 3.183 1.537a.75.75 0 1 0 0-1.5c-1.006 0-1.618-.473-2.002-.963a3.3 3.3 0 0 1-.505-.922l-.017-.054-.003-.009a.75.75 0 0 0-1.44-.02l-.004.011-.02.058a4 4 0 0 1-.259.556z"/></svg>