<svg xmlns="http://www.w3.org/2000/svg" width="20" height="20" fill="currentColor"><path d="M6 4a2 2 0 0 1 2-2h8a2 2 0 0 1 2 2v8q0 .087-.007.171c-.3-.225-.632-.43-.993-.604V4a1 1 0 0 0-1-1H8a1 1 0 0 0-1 1v1H6z"/><path d="M14 8v3.021q-.524.046-1 .176V8a1 1 0 0 0-1-1H4a1 1 0 0 0-1 1v8a1 1 0 0 0 1 1h5.42c.184.348.421.687.694 1H4a2 2 0 0 1-2-2V8a2 2 0 0 1 2-2h8a2 2 0 0 1 2 2m2 7.5a1.5 1.5 0 1 1-3 0 1.5 1.5 0 0 1 3 0"/><path d="M14.5 12c-2.764 0-4.5 2.318-4.5 3.5 0 1.2 1.739 3.5 4.5 3.5s4.5-2.318 4.5-3.5c0-1.2-1.739-3.5-4.5-3.5m0 6a2.5 2.5 0 1 1 0-5 2.5 2.5 0 0 1 0 5"/></svg>