<svg xmlns="http://www.w3.org/2000/svg" width="32" height="32" fill="currentColor"><path d="M14.75 2A4.75 4.75 0 0 0 10 6.75v.75h2.5v-.75a2.25 2.25 0 0 1 2.25-2.25h11A2.25 2.25 0 0 1 28 6.75v8.765a9.1 9.1 0 0 1 2.493 2.498q.007-.13.007-.263v-11A4.75 4.75 0 0 0 25.75 2z"/><path d="M17.75 10a4.75 4.75 0 0 1 4.694 4.017 9 9 0 0 0-2.456.5A2.25 2.25 0 0 0 17.75 12.5h-11a2.25 2.25 0 0 0-2.25 2.25v11A2.25 2.25 0 0 0 6.75 28h8.765a9.1 9.1 0 0 0 2.498 2.493 5 5 0 0 1-.263.007h-11A4.75 4.75 0 0 1 2 25.75v-11A4.75 4.75 0 0 1 6.75 10z"/><path fill-rule="evenodd" d="M23 30.5a7.5 7.5 0 1 0 0-15 7.5 7.5 0 0 0 0 15m1-12.25a.75.75 0 0 0-1.5 0V22h-3.75a.75.75 0 0 0 0 1.5h3.75v3.75a.75.75 0 0 0 1.5 0V23.5h3.75a.75.75 0 0 0 0-1.5H24z" clip-rule="evenodd"/></svg>