<svg xmlns="http://www.w3.org/2000/svg" width="24" height="24" fill="currentColor"><path d="M6.25 19.5h5.063c.173.534.412 1.037.709 1.5H6.25A3.25 3.25 0 0 1 3 17.75V6.25A3.25 3.25 0 0 1 6.25 3h11.5A3.25 3.25 0 0 1 21 6.25v5.772a6.5 6.5 0 0 0-1.5-.709V6.25a1.75 1.75 0 0 0-1.75-1.75H6.25A1.75 1.75 0 0 0 4.5 6.25v11.5c0 .966.784 1.75 1.75 1.75"/><path d="M8.75 8.25a1 1 0 1 1-2 0 1 1 0 0 1 2 0m1.75 0a.75.75 0 0 1 .75-.75h5.5a.75.75 0 0 1 0 1.5h-5.5a.75.75 0 0 1-.75-.75m.75 3a.75.75 0 1 0 0 1.5h1.813a6.5 6.5 0 0 1 2.646-1.5zm.248 3.75h-.248a.75.75 0 0 0-.17 1.48 6.5 6.5 0 0 1 .418-1.48M7.75 13a1 1 0 1 0 0-2 1 1 0 0 0 0 2m0 3.75a1 1 0 1 0 0-2 1 1 0 0 0 0 2M23 17.5a5.5 5.5 0 1 0-11 0 5.5 5.5 0 0 0 11 0m-6.985-3a.5.5 0 0 1 .46.342l1.053 3.16 1.004-2.678a.5.5 0 0 1 .915-.048L20.31 17H21a.5.5 0 0 1 0 1h-1a.5.5 0 0 1-.447-.276l-.487-.975-1.098 2.927a.5.5 0 0 1-.942-.018l-1.069-3.205-.493 1.233A.5.5 0 0 1 15 18h-1a.5.5 0 0 1 0-1h.662l.874-2.186a.5.5 0 0 1 .479-.314"/></svg>