<svg xmlns="http://www.w3.org/2000/svg" width="32" height="32" fill="currentColor"><path d="M17.063 13.75a.75.75 0 0 0-1.5 0v4.015l-3.358-1.939a.75.75 0 0 0-.75 1.3l3.354 1.936-3.489 2.014a.75.75 0 0 0 .75 1.3l3.493-2.017v3.891a.75.75 0 0 0 1.5 0v-3.887l3.485 2.012a.75.75 0 0 0 .75-1.299l-3.489-2.014 3.355-1.937a.75.75 0 0 0-.75-1.299l-3.35 1.935z"/><path d="M3 7.5A4.5 4.5 0 0 1 7.5 3h17A4.5 4.5 0 0 1 29 7.5v17a4.5 4.5 0 0 1-4.5 4.5h-17A4.5 4.5 0 0 1 3 24.5zM7.5 5A2.5 2.5 0 0 0 5 7.5V9h22V7.5A2.5 2.5 0 0 0 24.5 5zM27 11H5v13.5A2.5 2.5 0 0 0 7.5 27h17a2.5 2.5 0 0 0 2.5-2.5z"/></svg>