<svg xmlns="http://www.w3.org/2000/svg" width="20" height="20" fill="currentColor"><path d="M3.001 6a3 3 0 0 1 3-3h8a3 3 0 0 1 3 3v3.6a5.5 5.5 0 0 0-1-.393V7h-12v7a2 2 0 0 0 2 2h3.207q.149.524.393 1H6a3 3 0 0 1-3-3zm3-2a2 2 0 0 0-2 2h12a2 2 0 0 0-2-2z"/><path d="m10.5 10.623.246-.142a5.5 5.5 0 0 0-1.332 1.924l-1.762 1.017a.5.5 0 1 1-.5-.866L9 11.489l-1.848-1.067a.5.5 0 0 1 .5-.866L9.5 10.623V8.5a.5.5 0 0 1 1 0zm6.501 7.619a4.5 4.5 0 1 1-5-7.483 4.5 4.5 0 0 1 5 7.483m-2.147-6.096a.5.5 0 0 0-.853.354V14h-1.5a.5.5 0 0 0 0 1h1.5v1.5a.5.5 0 0 0 1 0V15h1.5a.5.5 0 0 0 0-1h-1.5v-1.5a.5.5 0 0 0-.146-.354Z"/></svg>