<svg xmlns="http://www.w3.org/2000/svg" width="24" height="24" fill="currentColor"><path d="M10.67 10.415a.75.75 0 0 0-1.34 0L7.785 13.5H6.75a.75.75 0 0 0 0 1.5h1.5a.75.75 0 0 0 .67-.415L10 12.427l2.08 4.158a.75.75 0 0 0 1.34 0L15 13.427l.58 1.158a.75.75 0 0 0 .67.415h1a.75.75 0 0 0 0-1.5h-.537l-1.042-2.085a.75.75 0 0 0-1.342 0l-1.579 3.158z"/><path d="M3 6.25A3.25 3.25 0 0 1 6.25 3h11.5A3.25 3.25 0 0 1 21 6.25v11.5A3.25 3.25 0 0 1 17.75 21H6.25A3.25 3.25 0 0 1 3 17.75zM4.5 7h15v-.75a1.75 1.75 0 0 0-1.75-1.75H6.25A1.75 1.75 0 0 0 4.5 6.25zm15 1.5h-15v9.25c0 .966.784 1.75 1.75 1.75h11.5a1.75 1.75 0 0 0 1.75-1.75z"/></svg>