<svg xmlns="http://www.w3.org/2000/svg" width="32" height="32" fill="currentColor"><path d="M17.063 13.75a.75.75 0 0 0-1.5 0v4.015l-3.358-1.939a.75.75 0 0 0-.75 1.3l3.354 1.936-3.489 2.014a.75.75 0 0 0 .75 1.3l3.493-2.017v3.891a.75.75 0 0 0 1.5 0v-3.887l3.485 2.012a.75.75 0 0 0 .75-1.299l-3.489-2.014 3.355-1.937a.75.75 0 0 0-.75-1.299l-3.35 1.935z"/><path d="M7.5 3A4.5 4.5 0 0 0 3 7.5v17A4.5 4.5 0 0 0 7.5 29h17a4.5 4.5 0 0 0 4.5-4.5v-17A4.5 4.5 0 0 0 24.5 3zm0 24A2.5 2.5 0 0 1 5 24.5V11h22v13.5a2.5 2.5 0 0 1-2.5 2.5z"/></svg>