<svg xmlns="http://www.w3.org/2000/svg" width="64" height="64" fill="currentColor"><path fill="url(#i672249-a)" fill-rule="evenodd" d="M13 14a2 2 0 0 0-2 2v32a2 2 0 1 0 4 0v-5.5h24.332q.265-.515.58-1H15v-20h34v14.541q.495-.04 1-.041V16a1 1 0 1 1 2 0v20.166q.508.086 1 .212V16a2 2 0 1 0-4 0v4.5H15V16a2 2 0 0 0-2-2m1 34V16a1 1 0 1 0-2 0v32a1 1 0 1 0 2 0" clip-rule="evenodd"/><path fill="url(#i672249-b)" fill-rule="evenodd" d="M61 48c0 6.075-4.925 11-11 11s-11-4.925-11-11 4.925-11 11-11 11 4.925 11 11m-11-6.5a.5.5 0 0 1 .5.5v5.5H56a.5.5 0 0 1 0 1h-5.5V54a.5.5 0 0 1-1 0v-5.5H44a.5.5 0 0 1 0-1h5.5V42a.5.5 0 0 1 .5-.5" clip-rule="evenodd"/><defs><linearGradient id="i672249-a" x1="11" x2="55.751" y1="14" y2="63.724" gradientUnits="userSpaceOnUse"><stop stop-color="#209782"/><stop offset="1" stop-color="#0C695A"/></linearGradient><linearGradient id="i672249-b" x1="11" x2="55.751" y1="14" y2="63.724" gradientUnits="userSpaceOnUse"><stop stop-color="#209782"/><stop offset="1" stop-color="#0C695A"/></linearGradient></defs></svg>