<svg xmlns="http://www.w3.org/2000/svg" width="20" height="20" fill="currentColor"><path d="M2.586 4.586A2 2 0 0 0 2 6v8a2 2 0 0 0 2 2h1.5a.5.5 0 0 0 0-1H4a1 1 0 0 1-1-1V6a1 1 0 0 1 1-1h1.5a.5.5 0 1 0 0-1H4a2 2 0 0 0-1.414.586m4.854.854A1.5 1.5 0 0 0 7 6.5v1A1.5 1.5 0 0 0 8.5 9h8A1.5 1.5 0 0 0 18 7.5v-1A1.5 1.5 0 0 0 16.5 5h-8a1.5 1.5 0 0 0-1.06.44m.706.706A.5.5 0 0 1 8.5 6h8a.5.5 0 0 1 .5.5v1a.5.5 0 0 1-.5.5h-8a.5.5 0 0 1-.5-.5v-1a.5.5 0 0 1 .146-.354M7.44 11.44A1.5 1.5 0 0 1 8.5 11h8a1.5 1.5 0 0 1 1.5 1.5v1a1.5 1.5 0 0 1-1.5 1.5h-8A1.5 1.5 0 0 1 7 13.5v-1c0-.398.158-.78.44-1.06m.706.706A.5.5 0 0 0 8 12.5v1a.5.5 0 0 0 .5.5h8a.5.5 0 0 0 .5-.5v-1a.5.5 0 0 0-.5-.5h-8a.5.5 0 0 0-.354.146"/></svg>