<svg xmlns="http://www.w3.org/2000/svg" width="32" height="32" fill="currentColor"><path d="M10 11.9A5.002 5.002 0 0 0 9 2a5 5 0 0 0-1 9.9v8.2A5.002 5.002 0 0 0 9 30a5 5 0 0 0 1-9.9V18h6.499c.919-.631 2.03-1 3.228-1H22a5 5 0 0 0 2-4v-1.1A5.002 5.002 0 0 0 23 2a5 5 0 0 0-1 9.9V13a3 3 0 0 1-3 3h-9z"/><path d="M15.5 22.75a4.25 4.25 0 0 1 4.25-4.25h1a.75.75 0 0 1 0 1.5h-1a2.75 2.75 0 1 0 0 5.5h1a.75.75 0 0 1 0 1.5h-1a4.25 4.25 0 0 1-4.25-4.25m15 0a4.25 4.25 0 0 0-4.25-4.25h-1.5a.75.75 0 0 0 0 1.5h1.5a2.75 2.75 0 1 1 0 5.5h-1.5a.75.75 0 0 0 0 1.5h1.5a4.25 4.25 0 0 0 4.25-4.25"/><path d="M19.5 22.75a.75.75 0 0 1 .75-.75h5.5a.75.75 0 0 1 0 1.5h-5.5a.75.75 0 0 1-.75-.75"/></svg>