<svg xmlns="http://www.w3.org/2000/svg" width="32" height="32" fill="currentColor"><path d="M10 11.9A5.002 5.002 0 0 0 9 2a5 5 0 0 0-1 9.9v8.2A5.002 5.002 0 0 0 9 30a5 5 0 0 0 1-9.9V18h5.399a3 3 0 0 1-.36-2H10zM24 13a5 5 0 0 1-.276 1.641 15 15 0 0 0-1.895-.64c.11-.313.171-.65.171-1.001v-1.1A5.002 5.002 0 0 1 23 2a5 5 0 0 1 1 9.9zm-6.96 3.032a1 1 0 0 1 1-1 13 13 0 0 1 13 13v.01c0 .15 0 .33-.012.514a1 1 0 1 1-1.996-.116c.007-.121.007-.247.007-.408a11 11 0 0 0-11-11 1 1 0 0 1-1-1Z"/><path d="M18.044 19.032a1 1 0 1 0-.01 2 7.04 7.04 0 0 1 7.005 7.076v.005c0 .147 0 .247-.008.34a1 1 0 1 0 1.994.158c.014-.18.014-.352.014-.485v-.01a9.04 9.04 0 0 0-8.995-9.084"/><path d="M18.04 25.032a3 3 0 0 1 2.975 3.388 1 1 0 1 0 1.983.26 5 5 0 0 0-4.96-5.648 1 1 0 0 0 .001 2Zm0 4.5a1.5 1.5 0 1 0 0-3 1.5 1.5 0 0 0 0 3"/></svg>