<svg xmlns="http://www.w3.org/2000/svg" width="20" height="20" fill="currentColor"><path d="m15.8 10.5.2.349V4.5A2.5 2.5 0 0 0 13.5 2h-7A2.5 2.5 0 0 0 4 4.5v11A2.5 2.5 0 0 0 6.5 18h2.595c.006-.236.07-.476.205-.7l.172-.3H6.5A1.5 1.5 0 0 1 5 15.5v-11A1.5 1.5 0 0 1 6.5 3h7A1.5 1.5 0 0 1 15 4.5v5.395c.316.12.602.34.8.605"/><path d="M6 5.5A1.5 1.5 0 0 1 7.5 4h5A1.5 1.5 0 0 1 14 5.5v1A1.5 1.5 0 0 1 12.5 8h-5A1.5 1.5 0 0 1 6 6.5zM7.5 5a.5.5 0 0 0-.5.5v1a.5.5 0 0 0 .5.5h5a.5.5 0 0 0 .5-.5v-1a.5.5 0 0 0-.5-.5zM7 12a1 1 0 1 0 0-2 1 1 0 0 0 0 2m0 3a1 1 0 1 0 0-2 1 1 0 0 0 0 2m6.2-4.5-.761 1.328a.999.999 0 0 1 1.068-1.69q-.175.145-.307.362M11 11a1 1 0 1 1-2 0 1 1 0 0 1 2 0m0 3a1 1 0 1 1-2 0 1 1 0 0 1 2 0m7.834 3.845h-.003l-3.9-6.75a.52.52 0 0 0-.866 0l-3.9 6.75a.5.5 0 0 0 .436.75h7.8a.5.5 0 0 0 .433-.75"/></svg>