<svg xmlns="http://www.w3.org/2000/svg" width="20" height="20" fill="currentColor"><path d="M4.5 3A1.5 1.5 0 0 0 3 4.5v11A1.5 1.5 0 0 0 4.5 17h2a.5.5 0 0 1 0 1h-2A2.5 2.5 0 0 1 2 15.5v-11A2.5 2.5 0 0 1 4.5 2h2a.5.5 0 0 1 0 1zM18 9.035V4.5A2.5 2.5 0 0 0 15.5 2h-2a.5.5 0 0 0 0 1h2A1.5 1.5 0 0 1 17 4.5V9h.5q.255 0 .5.035"/><path d="M11 14v-1h-.5a.5.5 0 0 1 0-1h.535c.05-.353.154-.69.302-1H10.5a.5.5 0 0 1 0-1h1a.5.5 0 0 1 .382.177c.31-.35.69-.637 1.118-.84V6.5A1.497 1.497 0 0 0 11.5 5h-4A1.5 1.5 0 0 0 6 6.5v6A1.5 1.5 0 0 0 7.5 14zM7.5 6h4a.5.5 0 0 1 0 1h-4a.5.5 0 0 1 0-1m1 2a.5.5 0 0 1 0 1h-1a.5.5 0 0 1 0-1zm-1 2h1a.5.5 0 0 1 0 1h-1a.5.5 0 0 1 0-1m1 2a.5.5 0 0 1 0 1h-1a.5.5 0 0 1 0-1zm2-4h1a.5.5 0 0 1 0 1h-1a.5.5 0 0 1 0-1m5.874 7h-.97l.222-1.005h.972z"/><path d="M12 12.5a2.5 2.5 0 0 1 2.5-2.5h3a2.5 2.5 0 0 1 2.5 2.5v4a2.5 2.5 0 0 1-2.5 2.5h-3a2.5 2.5 0 0 1-2.5-2.5zm1.5.995a.5.5 0 0 0 .5.5h.601L14.38 15h-.88a.5.5 0 1 0 0 1h.658l-.142.638a.5.5 0 0 0 .977.216l.189-.854h.969l-.143.637a.5.5 0 0 0 .976.218l.191-.855H18a.5.5 0 0 0 0-1h-.602l.225-1.005h.877a.5.5 0 1 0 0-1h-.654l.141-.633a.5.5 0 0 0-.976-.218l-.19.851h-.974l.14-.634a.5.5 0 1 0-.976-.216l-.188.85H14a.5.5 0 0 0-.5.5"/></svg>