<svg xmlns="http://www.w3.org/2000/svg" width="20" height="20" fill="currentColor"><path d="M3 4.5A1.5 1.5 0 0 1 4.5 3h2a.5.5 0 0 0 0-1h-2A2.5 2.5 0 0 0 2 4.5v11A2.5 2.5 0 0 0 4.5 18h2a.5.5 0 0 0 0-1h-2A1.5 1.5 0 0 1 3 15.5zm14 11a1.5 1.5 0 0 1-1.5 1.5h-2a.5.5 0 0 0 0 1h2a2.5 2.5 0 0 0 2.5-2.5v-11A2.5 2.5 0 0 0 15.5 2h-2a.5.5 0 0 0 0 1h2A1.5 1.5 0 0 1 17 4.5z"/><path d="M7.5 5A1.5 1.5 0 0 0 6 6.5v6A1.5 1.5 0 0 0 7.5 14h4a1.5 1.5 0 0 0 1.5-1.5v-6A1.497 1.497 0 0 0 11.5 5zM7 6.5a.5.5 0 0 1 .5-.5h4a.5.5 0 0 1 0 1h-4a.5.5 0 0 1-.5-.5M7.5 8h1a.5.5 0 0 1 0 1h-1a.5.5 0 0 1 0-1M7 10.5a.5.5 0 0 1 .5-.5h1a.5.5 0 0 1 0 1h-1a.5.5 0 0 1-.5-.5m.5 1.5h1a.5.5 0 0 1 0 1h-1a.5.5 0 0 1 0-1m2.5.5a.5.5 0 0 1 .5-.5h1a.5.5 0 0 1 0 1h-1a.5.5 0 0 1-.5-.5m.5-1.5a.5.5 0 0 1 0-1h1a.5.5 0 0 1 0 1zM10 8.5a.5.5 0 0 1 .5-.5h1a.5.5 0 0 1 0 1h-1a.5.5 0 0 1-.5-.5"/><path d="M10.5 16a2.5 2.5 0 0 1-2-1h4a1.5 1.5 0 0 0 1.5-1.5v-6c.607.456 1 1.182 1 2v4a2.5 2.5 0 0 1-2.5 2.5z"/></svg>