<svg xmlns="http://www.w3.org/2000/svg" width="20" height="20" fill="currentColor"><path d="M3 4.5A1.5 1.5 0 0 1 4.5 3h2a.5.5 0 0 0 0-1h-2A2.5 2.5 0 0 0 2 4.5v11A2.5 2.5 0 0 0 4.5 18h2a.5.5 0 0 0 0-1h-2A1.5 1.5 0 0 1 3 15.5zm14 11a1.5 1.5 0 0 1-1.5 1.5h-2a.5.5 0 0 0 0 1h2a2.5 2.5 0 0 0 2.5-2.5v-11A2.5 2.5 0 0 0 15.5 2h-2a.5.5 0 0 0 0 1h2A1.5 1.5 0 0 1 17 4.5z"/><path d="M7.5 5A1.5 1.5 0 0 0 6 6.5v7A1.5 1.5 0 0 0 7.5 15h5a1.5 1.5 0 0 0 1.5-1.5v-7A1.5 1.5 0 0 0 12.5 5zM7 6.5a.5.5 0 0 1 .5-.5h5a.5.5 0 0 1 .5.5v1a.5.5 0 0 1-.5.5h-5a.5.5 0 0 1-.5-.5zm.5 3A.5.5 0 0 1 8 9h1a.5.5 0 0 1 0 1H8a.5.5 0 0 1-.5-.5M8 11h1a.5.5 0 0 1 0 1H8a.5.5 0 0 1 0-1m-.5 2.5A.5.5 0 0 1 8 13h1a.5.5 0 0 1 0 1H8a.5.5 0 0 1-.5-.5m3 0a.5.5 0 0 1 .5-.5h1a.5.5 0 0 1 0 1h-1a.5.5 0 0 1-.5-.5m0-2a.5.5 0 0 1 .5-.5h1a.5.5 0 0 1 0 1h-1a.5.5 0 0 1-.5-.5m0-2A.5.5 0 0 1 11 9h1a.5.5 0 0 1 0 1h-1a.5.5 0 0 1-.5-.5"/></svg>