<svg xmlns="http://www.w3.org/2000/svg" width="20" height="20" fill="currentColor"><path d="M2.5 5a.5.5 0 0 0 0 1H8a.5.5 0 0 0 0-1zm3 3a.5.5 0 0 0 0 1h5a.5.5 0 0 0 0-1zm-1 3a.5.5 0 0 0 0 1h6.835l.417-1zM17 8.5a.5.5 0 0 1-.5.5H13a.5.5 0 0 1 0-1h3.5a.5.5 0 0 1 .5.5M10.502 14l-.385.923-.03.077H2.5a.5.5 0 0 1 0-1zM10.5 5a.5.5 0 0 0 0 1h7a.5.5 0 0 0 0-1zm1.002 11h1.75l-.59 2.36c-.121.482.462.826.826.486l4.872-4.548A.75.75 0 0 0 17.85 13h-1.1l.781-2.342a.5.5 0 0 0-.474-.658h-3.473a.5.5 0 0 0-.462.308l-2.083 5a.5.5 0 0 0 .462.692Z"/></svg>