<svg xmlns="http://www.w3.org/2000/svg" width="20" height="20" fill="none"><path fill="#000" d="M17 11a2 2 0 0 1 2 2v4a2 2 0 0 1-2 2h-4a2 2 0 0 1-2-2v-4a2 2 0 0 1 2-2zm-3.5 2a.5.5 0 0 0 0 1h1.793l-2.146 2.146a.5.5 0 1 0 .707.707L16 14.708V16.5a.5.5 0 0 0 1 0v-3a.5.5 0 0 0-.5-.5zM11.875 2.999c.621 0 1.125.504 1.125 1.125v2.75c0 .621-.504 1.125-1.125 1.125h-.993l1.273 2.123c-.327.096-.63.246-.901.44L9.716 8H8.282l-2.4 4h.993c.621 0 1.125.504 1.125 1.125v2.75c0 .621-.504 1.125-1.125 1.125h-3.75A1.125 1.125 0 0 1 2 15.874v-2.75c0-.621.504-1.125 1.125-1.125h1.59l2.401-4h-.991A1.125 1.125 0 0 1 5 6.874v-2.75c0-.621.504-1.125 1.125-1.125zm-8.75 10a.125.125 0 0 0-.125.125v2.75c0 .07.056.125.125.125h3.75A.125.125 0 0 0 7 15.874v-2.75a.125.125 0 0 0-.125-.125zm3-9A.125.125 0 0 0 6 4.124v2.75c0 .07.056.125.125.125h5.75A.125.125 0 0 0 12 6.874v-2.75a.125.125 0 0 0-.125-.125z"/></svg>