<svg xmlns="http://www.w3.org/2000/svg" width="20" height="20" fill="currentColor"><path d="m7.354 13.855 1.439-1.44a.5.5 0 0 0-.707-.707l-.586.586V9.001h5v3.293l-.586-.586a.5.5 0 0 0-.707.707l1.439 1.44a.5.5 0 0 0 .708 0l1.439-1.44a.5.5 0 0 0-.707-.707l-.586.586V8.501a.5.5 0 0 0-.5-.5h-2.5v-2.5a.5.5 0 0 0-1 0v2.5H7a.5.5 0 0 0-.5.5v3.793l-.586-.586a.5.5 0 0 0-.707.707l1.439 1.44a.5.5 0 0 0 .708 0"/><path d="M14.445 16.653A8 8 0 1 1 5.555 3.35a8 8 0 0 1 8.89 13.303m1.375-2.763A7 7 0 1 0 4.18 6.112a7 7 0 0 0 11.64 7.778"/></svg>