<svg xmlns="http://www.w3.org/2000/svg" width="32" height="32" fill="currentColor"><path d="M17 2.001v7a3 3 0 0 0 3 3h7v15a3 3 0 0 1-3 3h-2.145c.157-.438.205-.919.145-1.4-.1-.8-.4-1.4-1-1.9v-2.7c0-1.6-.6-3.1-1.8-4.2-1.1-1.2-2.6-1.8-4.2-1.8s-3.1.6-4.2 1.799a4 4 0 0 0-.3-.299c-.9-1-2.2-1.5-3.5-1.5H5v-13a3 3 0 0 1 3-3z"/><path d="M19 2.118V9a1 1 0 0 0 1 1h6.883a3 3 0 0 0-.762-1.293L20.293 2.88A3 3 0 0 0 19 2.118M5 20.001h2a3 3 0 0 1 3 3 3 3 0 0 1-3 3H6v3a.999.999 0 0 1-1.708.708A1 1 0 0 1 4 29.001v-8a1 1 0 0 1 1-1m1 4h1a.999.999 0 0 0 .708-1.708A1 1 0 0 0 7 22.001H6zm9-3.997a4 4 0 0 0-4 4v2a4 4 0 0 0 6.498 3.124l.902.676a1 1 0 0 0 1.2-1.6l-.902-.676A4 4 0 0 0 19 26.004v-2a4 4 0 0 0-4-4m.6 5.2a1 1 0 1 0-1.2 1.6l1.386 1.04A2 2 0 0 1 13 26.003v-2a2 2 0 0 1 4 0v2q0 .12-.014.24l-1.386-1.04Z"/></svg>