<svg xmlns="http://www.w3.org/2000/svg" width="20" height="20" fill="currentColor"><path d="M11.318 2.318a4.5 4.5 0 1 1 6.364 6.364 4.5 4.5 0 0 1-6.364-6.364m5.096 1.768v-.003a.5.5 0 0 0-.144-.349l-.003-.002-.002-.002a.5.5 0 0 0-.351-.144h-2.829a.5.5 0 1 0 0 1h1.622L12.732 6.56a.5.5 0 0 0 .707.707l1.975-1.975v1.621a.5.5 0 0 0 1 0zm-6.25-1.97A1.5 1.5 0 0 0 9.586 2H6a2 2 0 0 0-2 2v9.067a3.5 3.5 0 0 1 .646.933L5 12.997V4a1 1 0 0 1 1-1h3v2.46a5.5 5.5 0 0 1 1.164-3.344M16 10.793a5.5 5.5 0 0 0 1-.392v3.66a3.94 3.94 0 0 1-3.054 3.84 1.5 1.5 0 0 0-.083-1.027A3 3 0 0 0 16 14z"/><path d="M14 10.977q.5.045 1 0V14a2 2 0 0 1-1.76 1.986l-.365-.486.404-.54A1 1 0 0 0 14 14zM.146 13.146A.5.5 0 0 1 .5 13h1a2.5 2.5 0 0 1 0 5h-1a.5.5 0 0 1-.5-.5v-4a.5.5 0 0 1 .146-.354M1 14v3h.5a1.5 1.5 0 1 0 0-3zm5.5-1.25a.5.5 0 0 1 .471.334l1.5 4.25a.5.5 0 1 1-.943.332L7.292 17H5.706l-.235.666a.501.501 0 1 1-.943-.332l1.5-4.25a.5.5 0 0 1 .471-.334Zm0 2L6.06 16h.88z"/><path d="M12.8 13.1a.5.5 0 0 0-.7.1L11 14.667 9.9 13.2a.5.5 0 1 0-.8.6l1.274 1.7L9.1 17.2a.5.5 0 1 0 .8.6l1.1-1.466 1.1 1.466a.5.5 0 0 0 .8-.6l-1.276-1.7 1.276-1.7a.5.5 0 0 0-.1-.7"/></svg>