<svg xmlns="http://www.w3.org/2000/svg" width="20" height="20" fill="currentColor"><g clip-path="url(#ibc0d08-a)"><path d="M9 6.501a4.5 4.5 0 1 1-9 0 4.5 4.5 0 0 1 9 0m-2.287-.437-2.97-1.65A.5.5 0 0 0 3 4.85v3.3a.5.5 0 0 0 .743.437l2.97-1.65a.5.5 0 0 0 0-.874Zm2.03-3.063h2.194q.032 0 .063.008v2.992c.002.268.055.533.156.781.098.239.244.454.43.633.186.181.403.327.641.43.244.105.507.158.773.156h2.992a.3.3 0 0 1 .008.062v1.938h1V8.126a2.1 2.1 0 0 0-.156-.766 1.9 1.9 0 0 0-.43-.648l-4.125-4.125a1.9 1.9 0 0 0-.648-.438 2 2 0 0 0-.766-.148H7.663c.403.284.766.62 1.08 1m3.257.7 3.3 3.3H13a1.2 1.2 0 0 1-.398-.078.85.85 0 0 1-.313-.211 1.1 1.1 0 0 1-.211-.32A1 1 0 0 1 12 6.001zm-6 8.093a5.5 5.5 0 0 1-1 .184v4.023c.002.268.055.533.156.781.098.238.244.454.43.633.186.181.403.327.641.43.244.105.507.158.773.156h3.5a2 2 0 0 1 .268-1H7a1.2 1.2 0 0 1-.398-.078.85.85 0 0 1-.313-.211 1.1 1.1 0 0 1-.211-.32A1 1 0 0 1 6 16.001zm10 3.207h2.5v2a1 1 0 0 1 1 1v1a1 1 0 0 1-1 1h-1a1 1 0 0 1-1-1v-1a1 1 0 0 1 1-1v-1h-4v1a1 1 0 0 1 1 1v1a1 1 0 0 1-1 1h-1a1 1 0 0 1-1-1v-1a1 1 0 0 1 1-1v-2H15v-1h-2a1 1 0 0 1-1-1v-1a1 1 0 0 1 1-1h5a1 1 0 0 1 1 1v1a1 1 0 0 1-1 1h-2z"/></g><defs><clipPath id="ibc0d08-a"><path d="M0 0h20v20H0z"/></clipPath></defs></svg>