<svg xmlns="http://www.w3.org/2000/svg" width="20" height="20" fill="currentColor"><path d="M11.318 2.318a4.5 4.5 0 1 1 6.364 6.364 4.5 4.5 0 0 1-6.364-6.364m5.096 1.768v-.003a.5.5 0 0 0-.144-.349l-.003-.002-.002-.002a.5.5 0 0 0-.351-.144h-2.829a.5.5 0 1 0 0 1h1.622L12.732 6.56a.5.5 0 0 0 .707.707l1.975-1.975v1.621a.5.5 0 0 0 1 0zM6 2h4.257q-.39.473-.658 1H6a1 1 0 0 0-1 1v7.882a1.5 1.5 0 0 0-1-.382V4a2 2 0 0 1 2-2M.5 13a.5.5 0 0 1 .5-.5h3a.5.5 0 0 1 0 1H3v4a.5.5 0 0 1-1 0v-4H1a.5.5 0 0 1-.5-.5M17 13a.5.5 0 0 0-1 0v4.5a.5.5 0 0 0 .5.5H19a.5.5 0 0 0 0-1h-2zm-11.104-.49a.5.5 0 0 1 .56.287L8 16.269l1.543-3.472A.5.5 0 0 1 10.5 13v4.5a.5.5 0 1 1-1 0v-2.144l-1.043 2.347a.5.5 0 0 1-.914 0L6.5 15.356V17.5a.5.5 0 1 1-1 0V13a.5.5 0 0 1 .396-.49M11.5 17.5V13a.5.5 0 0 1 .5-.5h.6a2.4 2.4 0 0 1 2.4 2.4v.7a2.4 2.4 0 0 1-2.4 2.4H12a.5.5 0 0 1-.5-.5m1-4V17h.1a1.4 1.4 0 0 0 1.4-1.4v-.7a1.4 1.4 0 0 0-1.4-1.4z"/></svg>