<svg xmlns="http://www.w3.org/2000/svg" width="20" height="20" fill="currentColor"><path d="M6 2a2 2 0 0 0-2 2v7.5c.384 0 .735.145 1 .382V4a1 1 0 0 1 1-1h4v3.5A1.5 1.5 0 0 0 11.5 8H15v4.492l.066.067c.14-.454.488-.816.934-.973V7.413a1.5 1.5 0 0 0-.44-1.06l-3.914-3.915A1.5 1.5 0 0 0 10.586 2zm8.793 5H11.5a.5.5 0 0 1-.5-.5V3.207zM.5 13a.5.5 0 0 1 .5-.5h3a.5.5 0 0 1 0 1H3v4a.5.5 0 0 1-1 0v-4H1a.5.5 0 0 1-.5-.5M17 13a.5.5 0 0 0-1 0v4.5a.5.5 0 0 0 .5.5H19a.5.5 0 0 0 0-1h-2zm-11.104-.49a.5.5 0 0 1 .56.287L8 16.269l1.543-3.472A.5.5 0 0 1 10.5 13v4.5a.5.5 0 1 1-1 0v-2.144l-1.043 2.347a.5.5 0 0 1-.914 0L6.5 15.356V17.5a.5.5 0 1 1-1 0V13a.5.5 0 0 1 .396-.49M11.5 17.5V13a.5.5 0 0 1 .5-.5h.6a2.4 2.4 0 0 1 2.4 2.4v.7a2.4 2.4 0 0 1-2.4 2.4H12a.5.5 0 0 1-.5-.5m1-4V17h.1a1.4 1.4 0 0 0 1.4-1.4v-.7a1.4 1.4 0 0 0-1.4-1.4z"/></svg>