<svg xmlns="http://www.w3.org/2000/svg" width="20" height="20" fill="currentColor"><path d="M4 4.001a2 2 0 0 1 2-2h3.586a1.5 1.5 0 0 1 1.06.44l3.915 3.914A1.5 1.5 0 0 1 15 7.415v6.586a2 2 0 0 1-1.76 1.986l-.365-.486.404-.54a1 1 0 0 0 .721-.96v-6h-3.5a1.5 1.5 0 0 1-1.5-1.5v-3.5H6a1 1 0 0 0-1 1v8.997L4.646 14A3.5 3.5 0 0 0 4 13.068zm6-.793v3.293a.5.5 0 0 0 .5.5h3.293z"/><path d="M13.985 17.713q-.014.096-.04.188A3.94 3.94 0 0 0 17 14.061v-5.06a1 1 0 0 0-1-1v6a3 3 0 0 1-2.137 2.874c.12.26.163.55.122.838M.146 13.147a.5.5 0 0 1 .354-.146h1a2.5 2.5 0 0 1 0 5h-1a.5.5 0 0 1-.5-.5v-4a.5.5 0 0 1 .146-.354m.854.854v3h.5a1.5 1.5 0 0 0 0-3zm5.5-1.25a.5.5 0 0 1 .471.334l1.5 4.25a.5.5 0 1 1-.943.332l-.236-.666H5.706l-.235.666a.5.5 0 1 1-.943-.332l1.5-4.25a.5.5 0 0 1 .471-.334Zm0 2-.44 1.25h.88zm6.495-1.321a.5.5 0 0 0-.895-.229L11 14.668l-1.1-1.467a.5.5 0 1 0-.8.6l1.274 1.7-1.274 1.7a.5.5 0 1 0 .8.6l1.1-1.466 1.1 1.466a.5.5 0 0 0 .8-.6l-1.276-1.7 1.276-1.7a.5.5 0 0 0 .095-.37Z"/></svg>