<svg xmlns="http://www.w3.org/2000/svg" width="32" height="32" fill="currentColor"><path d="M14.657 8.025c-.11-.026-.264-.035-.51 0a.97.97 0 0 0-.688.417c-.168.24-.294.602-.335 1.08-.004.198-.03.748-.07 1.478H14.5a1 1 0 1 1 0 2h-1.557c-.11 1.935-.24 4.063-.29 4.705v.006l-.007.08c-.043.525-.1 1.217-.306 1.864-.227.71-.654 1.437-1.48 1.923-1.195.739-2.456.37-3.307-.055a1 1 0 0 1 .894-1.79c.646.323 1.066.329 1.367.14l.026-.015c.292-.17.47-.424.594-.811.135-.421.177-.909.226-1.499.046-.6.162-2.508.268-4.336L10.94 13H9.5a1 1 0 1 1 0-2h1.552l.015-.28a148 148 0 0 0 .057-1.214l.001-.025v-.008q0-.04.003-.077c.056-.728.257-1.48.695-2.104a2.97 2.97 0 0 1 2.025-1.245l.01-.002a3.4 3.4 0 0 1 1.255.033 2.94 2.94 0 0 1 1.175.587 1 1 0 1 1-1.247 1.563.95.95 0 0 0-.384-.203m6.675 6.143a1 1 0 0 1 0 1.414l-1.909 1.909a82 82 0 0 0 .868 1.354 1 1 0 0 1 1.472 1.352l-.007.008-.013.017c-.071.09-.291.367-.571.54-.412.251-.864.28-1.314.194a1 1 0 0 1-.22-.068 1.9 1.9 0 0 1-.759-.569 3 3 0 0 1-.205-.291l-.04-.061a48 48 0 0 1-.661-1.026l-1.797 1.797a1 1 0 0 1-1.414-1.414l2.117-2.117a54 54 0 0 0-.576-.902 3 3 0 0 0-.088-.146 1 1 0 0 1-1.478-1.345c.142-.168.376-.421.698-.599a1.63 1.63 0 0 1 1.426-.092c.625.276.997.872 1.164 1.164.062.093.17.26.303.47l1.59-1.59a1 1 0 0 1 1.414 0Z"/><path d="M3 5.5A4.5 4.5 0 0 1 7.5 1h14A4.5 4.5 0 0 1 26 5.5v18a4.5 4.5 0 0 1-4.5 4.5h-14A4.5 4.5 0 0 1 3 23.5zM7.5 3A2.5 2.5 0 0 0 5 5.5v18A2.5 2.5 0 0 0 7.5 26h14a2.5 2.5 0 0 0 2.5-2.5v-18A2.5 2.5 0 0 0 21.5 3z"/><path d="M29 10.5a6.48 6.48 0 0 0-2-4.69V24.5a4.5 4.5 0 0 1-4.5 4.5H7.81a6.48 6.48 0 0 0 4.69 2h10a6.5 6.5 0 0 0 6.5-6.5z"/></svg>