<svg xmlns="http://www.w3.org/2000/svg" width="32" height="32" fill="currentColor"><path d="M14.147 8.024c.246-.034.4-.025.51.001a.95.95 0 0 1 .384.203 1 1 0 0 0 1.247-1.563 2.94 2.94 0 0 0-1.175-.587c-.427-.1-.847-.09-1.254-.033l-.01.002a2.97 2.97 0 0 0-2.026 1.245c-.438.624-.639 1.376-.695 2.104l-.003.077v.033l-.003.084-.012.271c-.01.221-.025.515-.043.86l-.015.28H9.499a1 1 0 1 0 0 2h1.44l-.011.21a366 366 0 0 1-.268 4.337c-.05.59-.091 1.078-.226 1.499-.123.387-.302.64-.594.811l-.026.016c-.3.188-.721.182-1.367-.14a1 1 0 1 0-.894 1.788c.851.426 2.112.795 3.308.056.825-.486 1.252-1.212 1.479-1.923.206-.647.263-1.339.306-1.864l.007-.08v-.006c.05-.642.18-2.77.29-4.705H14.5a1 1 0 1 0 0-2h-1.445c.04-.73.066-1.28.07-1.479.04-.477.167-.84.335-1.079a.97.97 0 0 1 .688-.418Zm7.184 7.558a1 1 0 0 0-1.414-1.414l-1.59 1.59c-.134-.21-.24-.377-.302-.47-.168-.293-.54-.888-1.165-1.165a1.63 1.63 0 0 0-1.426.092 2.6 2.6 0 0 0-.697.6 1 1 0 0 0 1.478 1.345q.043.067.088.145a54 54 0 0 1 .575.902l-2.117 2.117a1 1 0 0 0 1.414 1.414l1.798-1.797c.247.39.448.705.525.819.052.076.093.14.136.207l.039.06c.052.082.122.189.206.292.206.257.444.43.759.57q.105.045.22.068c.45.085.902.057 1.313-.196.28-.171.5-.449.572-.54l.01-.012.01-.011a1 1 0 0 0-1.473-1.352 81 81 0 0 1-.868-1.354l1.91-1.91Z"/><path d="M3 5.25A4.75 4.75 0 0 1 7.75.5h13.5A4.75 4.75 0 0 1 26 5.25v18A4.75 4.75 0 0 1 21.25 28H7.75A4.75 4.75 0 0 1 3 23.25zM7.75 3A2.25 2.25 0 0 0 5.5 5.25v18a2.25 2.25 0 0 0 2.25 2.25h13.5a2.25 2.25 0 0 0 2.25-2.25v-18A2.25 2.25 0 0 0 21.25 3z"/><path d="M27 5.506a6.74 6.74 0 0 1 2.5 5.244v14a6.75 6.75 0 0 1-6.75 6.75h-9.5A6.74 6.74 0 0 1 8.006 29H22.75A4.25 4.25 0 0 0 27 24.75z"/></svg>