<svg xmlns="http://www.w3.org/2000/svg" width="64" height="64" fill="currentColor"><path fill="url(#idfadc6-a)" d="M10 9.004a3 3 0 0 1 3-3h32a3 3 0 0 1 3 3V38.04a12 12 0 0 0-1-.04V9.004a2 2 0 0 0-2-2H13a2 2 0 0 0-2 2v45a2 2 0 0 0 2 2h23.608q.3.517.647 1H13a3 3 0 0 1-3-3z"/><path fill="url(#idfadc6-b)" d="M31.621 15.015a.5.5 0 0 1 .364.606l-5 20a.5.5 0 0 1-.97-.242l5-20a.5.5 0 0 1 .606-.364"/><path fill="url(#idfadc6-c)" d="M22.353 19.146a.5.5 0 0 1 0 .708L17.207 25l5.146 5.146a.5.5 0 0 1-.707.708l-5.43-5.43a.6.6 0 0 1 0-.848l5.43-5.43a.5.5 0 0 1 .707 0"/><path fill="url(#idfadc6-d)" d="M35.647 30.854a.5.5 0 0 1 0-.708L40.793 25l-5.146-5.146a.5.5 0 0 1 .707-.708l5.43 5.43a.6.6 0 0 1 0 .848l-5.43 5.43a.5.5 0 0 1-.707 0"/><path fill="url(#idfadc6-e)" d="M49 16h2.5a1.5 1.5 0 0 1 1.5 1.5v4.2a1.5 1.5 0 0 1-1.5 1.5H49z"/><path fill="url(#idfadc6-f)" d="M51.5 28.4H49v7.2h2.5a1.5 1.5 0 0 0 1.5-1.5v-4.2a1.5 1.5 0 0 0-1.5-1.5"/><path fill="url(#idfadc6-g)" d="M58 50c0 6.075-4.925 11-11 11s-11-4.925-11-11 4.925-11 11-11 11 4.925 11 11"/><path fill="#fff" d="M47.5 44a.5.5 0 0 0-1 0v5.5H41a.5.5 0 0 0 0 1h5.5V56a.5.5 0 0 0 1 0v-5.5H53a.5.5 0 0 0 0-1h-5.5z"/><defs><linearGradient id="idfadc6-a" x1="10" x2="64.491" y1="6.004" y2="53.563" gradientUnits="userSpaceOnUse"><stop stop-color="#209782"/><stop offset="1" stop-color="#0C695A"/></linearGradient><linearGradient id="idfadc6-b" x1="10" x2="64.491" y1="6.004" y2="53.563" gradientUnits="userSpaceOnUse"><stop stop-color="#209782"/><stop offset="1" stop-color="#0C695A"/></linearGradient><linearGradient id="idfadc6-c" x1="10" x2="64.491" y1="6.004" y2="53.563" gradientUnits="userSpaceOnUse"><stop stop-color="#209782"/><stop offset="1" stop-color="#0C695A"/></linearGradient><linearGradient id="idfadc6-d" x1="10" x2="64.491" y1="6.004" y2="53.563" gradientUnits="userSpaceOnUse"><stop stop-color="#209782"/><stop offset="1" stop-color="#0C695A"/></linearGradient><linearGradient id="idfadc6-e" x1="10" x2="64.491" y1="6.004" y2="53.563" gradientUnits="userSpaceOnUse"><stop stop-color="#209782"/><stop offset="1" stop-color="#0C695A"/></linearGradient><linearGradient id="idfadc6-f" x1="10" x2="64.491" y1="6.004" y2="53.563" gradientUnits="userSpaceOnUse"><stop stop-color="#209782"/><stop offset="1" stop-color="#0C695A"/></linearGradient><linearGradient id="idfadc6-g" x1="10" x2="64.491" y1="6.004" y2="53.563" gradientUnits="userSpaceOnUse"><stop stop-color="#209782"/><stop offset="1" stop-color="#0C695A"/></linearGradient></defs></svg>