<svg xmlns="http://www.w3.org/2000/svg" width="20" height="20" fill="currentColor"><path d="M4 6.5A2 2 0 0 0 5.937 5h8.126a2 2 0 1 0 0-1H5.937A2 2 0 1 0 4 6.5m0-1a1 1 0 1 1 0-2 1 1 0 0 1 0 2m12 0a1 1 0 1 1 0-2 1 1 0 0 1 0 2M12 16a2 2 0 1 1-4 0 2 2 0 0 1 4 0m-1 0a1 1 0 1 0-2 0 1 1 0 0 0 2 0M5.269 6.932a.5.5 0 0 1 .674.212l1 1.916a.5.5 0 1 1-.886.463l-1-1.917a.5.5 0 0 1 .212-.674m9.462 0a.5.5 0 0 1 .212.674l-1 1.917a.5.5 0 0 1-.886-.463l1-1.916a.5.5 0 0 1 .674-.212m-7.462 3.833a.5.5 0 0 1 .674.212l1 1.917a.5.5 0 1 1-.886.462l-1-1.916a.5.5 0 0 1 .212-.675m5.462 0a.5.5 0 0 1 .212.675l-1 1.916a.5.5 0 0 1-.886-.462l1-1.917a.5.5 0 0 1 .674-.212"/></svg>