<svg xmlns="http://www.w3.org/2000/svg" width="20" height="20" fill="currentColor"><path d="M11.318 2.318a4.5 4.5 0 1 1 6.364 6.364 4.5 4.5 0 0 1-6.364-6.364m5.096 1.768v-.003a.5.5 0 0 0-.144-.349l-.003-.002-.002-.002a.5.5 0 0 0-.351-.144h-2.829a.5.5 0 1 0 0 1h1.622L12.732 6.56a.5.5 0 0 0 .707.707l1.975-1.975v1.621a.5.5 0 0 0 1 0z"/><path d="M15 16v-5.023a5.5 5.5 0 0 1-1 0V16a1 1 0 0 1-1 1H5a1 1 0 0 1-1-1V4a1 1 0 0 1 1-1h4.6a5.4 5.4 0 0 1 .657-1H5a2 2 0 0 0-2 2v12a2 2 0 0 0 2 2h8a2 2 0 0 0 2-2m2-5.6a5.5 5.5 0 0 1-1 .393V12h.5a.5.5 0 0 0 .5-.5z"/><path d="M9.022 5H5.5a.5.5 0 0 0-.5.5v2a.5.5 0 0 0 .5.5h4.1a5.5 5.5 0 0 1-.393-1H6V6h3.022a5.5 5.5 0 0 1 0-1M16 13h.5a.5.5 0 0 1 .5.5V15a.5.5 0 0 1-.5.5H16z"/></svg>