<svg xmlns="http://www.w3.org/2000/svg" width="32" height="32" fill="currentColor"><path d="M4 5.25A3.25 3.25 0 0 1 7.25 2h16.5A3.25 3.25 0 0 1 27 5.25v21.5A3.25 3.25 0 0 1 23.75 30H7.25A3.25 3.25 0 0 1 4 26.75zm13.896 3.993a1 1 0 0 0-1.94-.485l-2.25 9a1 1 0 1 0 1.94.485zm.897 7.464a1 1 0 0 0 1.415 0l2.429-2.43a1.1 1.1 0 0 0 0-1.555l-2.43-2.43a1 1 0 1 0-1.414 1.415l1.793 1.793-1.793 1.793a1 1 0 0 0 0 1.414m-6.586-5a1 1 0 0 0-1.415-1.414l-2.429 2.43a1.1 1.1 0 0 0 0 1.555l2.43 2.43a1 1 0 0 0 1.414-1.415L10.414 13.5zM29.25 8H28v4h1.25a.75.75 0 0 0 .75-.75v-2.5a.75.75 0 0 0-.75-.75M28 14h1.25a.75.75 0 0 1 .75.75v2.5a.75.75 0 0 1-.75.75H28zm1.25 6H28v4h1.25a.75.75 0 0 0 .75-.75v-2.5a.75.75 0 0 0-.75-.75"/></svg>