<svg xmlns="http://www.w3.org/2000/svg" width="20" height="20" fill="currentColor"><path d="M3.5 1A2.5 2.5 0 0 0 1 3.5v8A2.5 2.5 0 0 0 3.5 14h6.855a1.5 1.5 0 0 1-1.177-1H3.5A1.5 1.5 0 0 1 2 11.5v-8A1.5 1.5 0 0 1 3.5 2h9A1.5 1.5 0 0 1 14 3.5v4.522a2.6 2.6 0 0 1 1 .335V3.5A2.5 2.5 0 0 0 12.5 1z"/><path d="M11.253 9.194c.206-.29.459-.534.747-.723V4.5a.5.5 0 0 0-.914-.28l-.01.014-.052.065a2.2 2.2 0 0 1-1.145.716.5.5 0 1 0 .242.97c.344-.086.636-.22.88-.369v4.008q.11-.228.252-.43M4 6a2 2 0 1 1 4 0v3a2 2 0 1 1-4 0zm2-1a1 1 0 0 0-1 1v3a1 1 0 0 0 2 0V6a1 1 0 0 0-1-1m7.42 5.01c.17-.02.28-.02.36 0s.16.05.28.12c.24.14.54.07.69-.17.14-.24.07-.54-.17-.69-.18-.11-.37-.2-.6-.24-.22-.04-.45-.04-.7 0-.53.08-.94.36-1.21.74-.26.37-.39.83-.42 1.28v.04c0 .041-.005.152-.013.318l-.008.164-.02.448H10.6c-.28 0-.5.22-.5.5s.22.5.5.5h.95a310 310 0 0 1-.198 3.259v.021c-.031.38-.061.71-.151 1-.09.27-.22.47-.45.6h-.01c-.26.17-.59.14-1.02-.08a.505.505 0 0 0-.67.22c-.12.25-.02.55.22.67.53.27 1.28.48 1.99.04.49-.29.75-.72.89-1.16.12-.367.154-.76.183-1.085v-.012l.007-.073v-.05c.03-.45.13-2.03.2-3.35h1.05c.28 0 .5-.22.5-.5s-.22-.5-.5-.5h-.99l.005-.1.017-.361.005-.103c.007-.162.013-.28.013-.336.03-.33.11-.59.24-.77.12-.17.29-.29.54-.33v-.01Zm5.42 4.13c.2.2.2.51 0 .71l.01.01-1.73 1.73.213.366.062.107.008.014a26 26 0 0 0 .397.672l.03.051.02.04.023.036.015.024q.025.042.042.06l.03.03c0 .01.01.01.01.01l.02-.02c.01-.02.06-.06.06-.06v-.02c.01-.02.03-.05.05-.07.17-.22.48-.26.7-.09a.496.496 0 0 1 .08.715q-.009.008-.01.015c-.06.08-.19.25-.35.36-.24.17-.52.19-.82.13a.6.6 0 0 1-.12-.04 1.2 1.2 0 0 1-.54-.492l-.008-.013-.014-.023q-.019-.033-.038-.062l-.03-.05-.033-.057-.006-.012a54 54 0 0 1-.363-.62l-.168-.291-1.54 1.54c-.2.2-.51.2-.71 0s-.2-.51 0-.71l1.73-1.73c-.27-.48-.51-.89-.58-1-.01-.01-.02-.02-.02-.03-.05-.1-.11-.2-.17-.28l-.042-.048-.028-.032-.04.04a1 1 0 0 0-.062.072l-.014.018-.024.03c-.17.22-.48.26-.7.09a.496.496 0 0 1-.09-.7c.1-.13.24-.3.44-.42.22-.13.51-.2.83-.08l.019.011.004.002q.01.006.017.007c.21.1.37.27.48.41s.2.29.26.41l.114.198c.086.15.203.354.336.582l1.54-1.54c.2-.2.51-.2.71 0"/></svg>