<svg xmlns="http://www.w3.org/2000/svg" width="24" height="24" fill="currentColor"><path d="M6 6.75A.75.75 0 0 1 6.75 6h3.5a.75.75 0 0 1 0 1.5h-3.5A.75.75 0 0 1 6 6.75M6.75 9a.75.75 0 0 0 0 1.5h3.5a.75.75 0 0 0 0-1.5zM13 6.75a.75.75 0 0 1 .75-.75h3.5a.75.75 0 0 1 0 1.5h-3.5a.75.75 0 0 1-.75-.75M13.75 9a.75.75 0 0 0 0 1.5h3.5a.75.75 0 0 0 0-1.5zM13 12.75a.75.75 0 0 1 .75-.75h3.5a.75.75 0 0 1 0 1.5h-3.5a.75.75 0 0 1-.75-.75m-2 1.75a2.5 2.5 0 1 1-5 0 2.5 2.5 0 0 1 5 0m-1.5 0a1 1 0 1 0-2 0 1 1 0 0 0 2 0"/><path d="M3 5.25A3.25 3.25 0 0 1 6.25 2h11.5A3.25 3.25 0 0 1 21 5.25v12.5A3.25 3.25 0 0 1 17.75 21H6.25A3.25 3.25 0 0 1 3 17.75zM6.25 3.5A1.75 1.75 0 0 0 4.5 5.25v12.5c0 .966.784 1.75 1.75 1.75h11.5a1.75 1.75 0 0 0 1.75-1.75V5.25a1.75 1.75 0 0 0-1.75-1.75z"/></svg>