<svg xmlns="http://www.w3.org/2000/svg" width="20" height="20" fill="none"><path fill="#000" d="M15 14.5a2.5 2.5 0 0 1-2.5 2.5H5.268A2 2 0 0 0 7 18h5.5a3.5 3.5 0 0 0 3.5-3.5V6a2 2 0 0 0-1-1.732z"/><path fill="#000" d="M6.5 12a.5.5 0 0 0 0 1h4a.5.5 0 0 0 0-1zM8.5 5a.5.5 0 0 0-.5.5V7H6.469a.5.5 0 0 0 0 1H8v1.5a.5.5 0 0 0 1 0V8h1.5a.5.5 0 0 0 0-1H9V5.5a.5.5 0 0 0-.5-.5"/><path fill="#000" fill-rule="evenodd" d="M5 2a2 2 0 0 0-2 2v10a2 2 0 0 0 2 2h7a2 2 0 0 0 2-2V4a2 2 0 0 0-2-2zm7 1a1 1 0 0 1 1 1v10a1 1 0 0 1-1 1H5a1 1 0 0 1-1-1V4a1 1 0 0 1 1-1z" clip-rule="evenodd"/></svg>