<svg xmlns="http://www.w3.org/2000/svg" width="20" height="20" fill="currentColor"><path d="M18 8.5v5a4.505 4.505 0 0 1-4.5 4.5h-5a4.46 4.46 0 0 1-2.794-1h7.793a3.5 3.5 0 0 0 3.5-3.5V5.706c.643.79.996 1.776 1 2.794Z"/><path d="M10.013 10.162 8 12.176V13a1 1 0 0 1-1 1H5a1 1 0 0 1-1-1v-2a1 1 0 0 1 1-1h2a1 1 0 0 1 .976.785L9.792 8.97 7.986 7.164A1 1 0 0 1 7 8H5a1 1 0 0 1-1-1V5a1 1 0 0 1 1-1h2a1 1 0 0 1 1 1v.763l2.023 2.023A1 1 0 0 1 10.999 7h2a1 1 0 0 1 1 1v2a1 1 0 0 1-1 1h-2a1 1 0 0 1-.986-.838M12.999 10V8h-2v2zm-6 1H5v2h2v-2Zm0-4V5H5v2h2Z"/><path d="M13.5 2A2.5 2.5 0 0 1 16 4.5v9a2.5 2.5 0 0 1-2.5 2.5h-9A2.5 2.5 0 0 1 2 13.5v-9A2.5 2.5 0 0 1 4.5 2zM15 4.5A1.5 1.5 0 0 0 13.5 3h-9A1.5 1.5 0 0 0 3 4.5v9A1.5 1.5 0 0 0 4.5 15h9a1.5 1.5 0 0 0 1.5-1.5z"/></svg>