<svg xmlns="http://www.w3.org/2000/svg" width="20" height="20" fill="currentColor"><g clip-path="url(#iba50a3-a)"><path d="M13.5 2A2.5 2.5 0 0 1 16 4.5v9a2.5 2.5 0 0 1-2.5 2.5H9.791a5.5 5.5 0 0 0 .185-1H13.5a1.5 1.5 0 0 0 1.5-1.5v-9A1.5 1.5 0 0 0 13.5 3h-9A1.5 1.5 0 0 0 3 4.5v4.707A5.4 5.4 0 0 0 2 9.6V4.5A2.5 2.5 0 0 1 4.5 2z"/><path d="M9.4 17a5.5 5.5 0 0 1-.658 1H13.5a4.505 4.505 0 0 0 4.5-4.5v-5a4.46 4.46 0 0 0-1-2.794V13.5a3.5 3.5 0 0 1-3.5 3.5z"/><path d="m10.013 10.162-1.08 1.081a5.5 5.5 0 0 0-.665-.75L9.792 8.97 7.986 7.164A1 1 0 0 1 7 8H5a1 1 0 0 1-1-1V5a1 1 0 0 1 1-1h2a1 1 0 0 1 1 1v.763l2.023 2.023A1 1 0 0 1 10.999 7h2a1 1 0 0 1 1 1v2a1 1 0 0 1-1 1h-2a1 1 0 0 1-.986-.838M12.999 8h-2v2h2zM7 5H5v2h2zm0 13.242a4.5 4.5 0 1 1-5-7.483 4.5 4.5 0 0 1 5 7.483m-2.147-6.096A.5.5 0 0 0 4 12.5V14H2.5a.5.5 0 0 0 0 1H4v1.5a.5.5 0 0 0 1 0V15h1.5a.5.5 0 0 0 0-1H5v-1.5a.5.5 0 0 0-.147-.354"/></g><defs><clipPath id="iba50a3-a"><path d="M0 0h20v20H0z"/></clipPath></defs></svg>