<svg xmlns="http://www.w3.org/2000/svg" width="20" height="20" fill="currentColor"><path d="M6.236 6.06a.5.5 0 0 1 .264.44v6a.5.5 0 0 1-1 0V7.434l-.723.482a.5.5 0 0 1-.554-.832l1.5-1a.5.5 0 0 1 .513-.025Zm8.761.94a2.5 2.5 0 0 0-1.666.625.5.5 0 1 1-.662-.75A3.5 3.5 0 0 1 15.001 6c.777 0 1.406.213 1.848.587a1.8 1.8 0 0 1 .657 1.426c-.014.576-.296 1.1-.78 1.464q.073.05.141.109c.45.376.677.896.662 1.428C17.498 12.107 16.503 13 15.002 13a3.5 3.5 0 0 1-2.333-.875.5.5 0 0 1 .662-.75c.46.406 1.053.629 1.666.625H15c1.118 0 1.518-.607 1.53-1.014a.79.79 0 0 0-.305-.634C16 10.164 15.61 10 15 10a.5.5 0 0 1 0-1c1.103 0 1.496-.602 1.506-1.012a.8.8 0 0 0-.303-.638C15.98 7.163 15.598 7 15 7zm-4.734.058a1.1 1.1 0 0 0-.43-.055 1 1 0 0 1-.065 0 1.215 1.215 0 0 0-1.184.708.5.5 0 0 1-.91-.415A2.215 2.215 0 0 1 9.8 6.003a2.11 2.11 0 0 1 2.184 1.734.5.5 0 0 1 .029.17v.075c.004.25.01.692-.215 1.156-.257.528-.77 1.02-1.7 1.442-.992.448-1.359.94-1.499 1.255l-.03.071h2.944a.5.5 0 0 1 0 1h-3.5a.5.5 0 0 1-.489-.395v-.003l-.001-.004-.002-.01a1 1 0 0 1-.014-.1 2 2 0 0 1-.003-.234c.01-.191.054-.446.182-.732.26-.583.833-1.232 2-1.76.79-.357 1.088-.712 1.212-.967.112-.23.116-.435.115-.674a1.105 1.105 0 0 0-.75-.969"/></svg>