<svg xmlns="http://www.w3.org/2000/svg" width="20" height="20" fill="currentColor"><path d="M15.126 6h.074q.02 0 .04.002l.049.004c.697.054 1.385.108 2.018.6a.5.5 0 0 1-.614.789c-.371-.288-.764-.336-1.513-.395h-.056c-.153 0-.222 0-.276.004a1.12 1.12 0 0 0-.947 1.012c.005.248.145.441.438.62.309.187.692.296.997.383l.093.026c.282.078.734.202 1.12.438.462.281.888.756.888 1.517 0 .745-.29 1.284-.773 1.613-.442.302-.984.385-1.443.387a3 3 0 0 1-2.138-.67.5.5 0 0 1 .634-.774A2 2 0 0 0 15.2 12c.374 0 .69-.07.9-.213.178-.12.337-.332.337-.787 0-.313-.148-.505-.408-.663-.259-.158-.571-.245-.866-.328l-.1-.028-.03-.009c-.29-.081-.785-.222-1.214-.482-.453-.277-.919-.745-.919-1.49l.001-.034a2.12 2.12 0 0 1 1.508-1.887c.124-.037.226-.062.363-.072.095-.007.21-.007.354-.007m-8.89.06a.5.5 0 0 1 .264.44v6a.5.5 0 0 1-1 0V7.434l-.723.482a.5.5 0 0 1-.554-.832l1.5-1a.5.5 0 0 1 .513-.025Zm4.027.998a1.1 1.1 0 0 0-.43-.055 1 1 0 0 1-.065 0 1.215 1.215 0 0 0-1.184.708.5.5 0 0 1-.91-.415A2.215 2.215 0 0 1 9.8 6.003a2.11 2.11 0 0 1 2.184 1.734.5.5 0 0 1 .029.17v.075c.004.25.01.692-.215 1.156-.257.528-.77 1.02-1.7 1.442-.992.448-1.359.94-1.499 1.255l-.03.071h2.944a.5.5 0 0 1 0 1h-3.5a.5.5 0 0 1-.489-.394v-.004l-.001-.004-.002-.01a1 1 0 0 1-.014-.1 2 2 0 0 1-.003-.234c.01-.19.054-.446.182-.732.26-.583.833-1.232 2-1.76.79-.357 1.088-.712 1.212-.967.112-.23.116-.435.115-.674a1.105 1.105 0 0 0-.75-.969"/></svg>