<svg xmlns="http://www.w3.org/2000/svg" width="20" height="20" fill="currentColor"><path d="M14.646 6.146a.5.5 0 0 0-.146.354v6a.5.5 0 0 0 1 0V10H17a.5.5 0 0 0 0-1h-1.5V7H18a.5.5 0 0 0 0-1h-3a.5.5 0 0 0-.354.146m-6.521 6.229a.625.625 0 1 1-1.25 0 .625.625 0 0 1 1.25 0M6.236 6.06a.5.5 0 0 1 .264.44v6a.5.5 0 0 1-1 0V7.434l-.723.482a.5.5 0 0 1-.554-.832l1.5-1a.5.5 0 0 1 .513-.025Zm5.027.998a1.1 1.1 0 0 0-.43-.055 1 1 0 0 1-.065 0 1.215 1.215 0 0 0-1.184.708.5.5 0 1 1-.91-.415 2.215 2.215 0 0 1 2.125-1.293 2.11 2.11 0 0 1 2.183 1.734.5.5 0 0 1 .03.17v.075c.004.25.01.692-.216 1.156-.256.528-.77 1.02-1.7 1.442-.992.448-1.358.94-1.498 1.255l-.03.071h2.944a.5.5 0 1 1 0 1h-3.5a.5.5 0 0 1-.49-.395v-.007l-.003-.01a1 1 0 0 1-.013-.1 2 2 0 0 1-.004-.234 2.1 2.1 0 0 1 .182-.732c.26-.583.833-1.232 2-1.76.792-.357 1.089-.712 1.213-.967.112-.23.116-.435.115-.674a1.11 1.11 0 0 0-.75-.969Z"/></svg>