<svg xmlns="http://www.w3.org/2000/svg" width="20" height="20" fill="currentColor"><path fill-rule="evenodd" d="M5.724 7.094a.5.5 0 0 0-.758.225l-1.935 5a.5.5 0 0 0 .932.362l.264-.68h2.25v-.062l.259.728a.5.5 0 0 0 .942-.334l-1.774-5a.5.5 0 0 0-.18-.24ZM4.614 11l.798-2.062L6.144 11z"/><path d="M9.425 7.243a.5.5 0 0 0-.928.257v5a.5.5 0 1 0 1 0V9.305l2.071 3.452a.5.5 0 0 0 .929-.257v-5a.5.5 0 0 0-1 0v3.195zm4.315-.172a.5.5 0 0 1 .685.172l1.072 1.785 1.07-1.785a.5.5 0 0 1 .858.514l-1.428 2.382V12.5a.5.5 0 1 1-1 0v-2.36l-1.43-2.382a.5.5 0 0 1 .172-.686Z"/></svg>