<svg xmlns="http://www.w3.org/2000/svg" width="32" height="32" fill="currentColor"><path d="M7.45 5.776c.003-.001.034-.012.102-.029q.105-.026.265-.056c.214-.04.472-.08.742-.113.556-.07 1.078-.11 1.3-.11.516 0 .994.078 1.415.222.434.15.815.461 1.188.968.382.52.697 1.163 1.034 1.89l1.079 2.335L7.112 27.23a1.25 1.25 0 1 0 2.275 1.038l6.57-14.395 6.659 14.4a1.25 1.25 0 0 0 2.269-1.049L15.765 7.5c-.332-.717-.74-1.574-1.29-2.322-.559-.76-1.319-1.484-2.39-1.852A6.9 6.9 0 0 0 9.86 2.97c-.38 0-1.023.054-1.613.128-.548.07-1.265.18-1.696.346a1.25 1.25 0 1 0 .899 2.333Z"/></svg>