<svg xmlns="http://www.w3.org/2000/svg" width="20" height="20" fill="currentColor"><path d="M11.318 2.318a4.5 4.5 0 1 1 6.364 6.364 4.5 4.5 0 0 1-6.364-6.364m5.096 1.768v-.003a.5.5 0 0 0-.144-.349l-.003-.002-.002-.002a.5.5 0 0 0-.351-.144h-2.829a.5.5 0 1 0 0 1h1.622L12.732 6.56a.5.5 0 0 0 .707.707l1.975-1.975v1.621a.5.5 0 0 0 1 0z"/><path d="M5.5 2h4.757q-.39.473-.658 1H5.5a.5.5 0 0 0-.5.5V6h1.5A1.5 1.5 0 0 1 8 7.5v5A1.5 1.5 0 0 1 6.5 14H5v2.5a.5.5 0 0 0 .5.5H11v-3.5a1.5 1.5 0 0 1 1.5-1.5h5a1.5 1.5 0 0 1 1.5 1.5v5a1.5 1.5 0 0 1-1.5 1.5h-5a1.5 1.5 0 0 1-1.5-1.5V18H5.5A1.5 1.5 0 0 1 4 16.5V14H1.5A1.5 1.5 0 0 1 0 12.5v-5A1.5 1.5 0 0 1 1.5 6H4V3.5A1.5 1.5 0 0 1 5.5 2M12 18.5a.5.5 0 0 0 .5.5h5a.5.5 0 0 0 .5-.5V15h-6zm0-4.5h6v-.5a.5.5 0 0 0-.5-.5h-5a.5.5 0 0 0-.5.5zM1 9v3.5a.5.5 0 0 0 .5.5h5a.5.5 0 0 0 .5-.5V9zm6-1v-.5a.5.5 0 0 0-.5-.5h-5a.5.5 0 0 0-.5.5V8z"/></svg>