<svg xmlns="http://www.w3.org/2000/svg" width="48" height="48" fill="none"><path fill="url(#i6a0b42-paint0_linear_67661_103)" d="M5 10a5 5 0 0 1 5-5h28a5 5 0 0 1 5 5v28a5 5 0 0 1-5 5H10a5 5 0 0 1-5-5z"/><path fill="url(#i6a0b42-paint1_radial_67661_103)" fill-opacity=".2" d="M5 10a5 5 0 0 1 5-5h28a5 5 0 0 1 5 5v28a5 5 0 0 1-5 5H10a5 5 0 0 1-5-5z"/><path fill="url(#i6a0b42-paint2_linear_67661_103)" fill-rule="evenodd" d="M38 6H10a4 4 0 0 0-4 4v28a4 4 0 0 0 4 4h28a4 4 0 0 0 4-4V10a4 4 0 0 0-4-4M10 5a5 5 0 0 0-5 5v28a5 5 0 0 0 5 5h28a5 5 0 0 0 5-5V10a5 5 0 0 0-5-5z" clip-rule="evenodd"/><path fill="url(#i6a0b42-paint3_linear_67661_103)" d="M18.5 14a2.5 2.5 0 0 0-2.5 2.5v15a2.5 2.5 0 0 0 2.5 2.5h12.781a.75.75 0 1 0 0-1.5H18.5a1 1 0 0 1-1-1l13.781.031c.415 0 .719-.335.719-.75v-14.25c0-1.38-1.088-2.5-2.469-2.5zm1.5 3h8a1 1 0 0 1 1 1v1a1 1 0 0 1-1 1h-8a1 1 0 0 1-1-1v-1a1 1 0 0 1 1-1"/><path fill="url(#i6a0b42-paint4_linear_67661_103)" d="M38 35.761a.85.85 0 0 0-1.403-.645l-4.654 3.989a.85.85 0 0 0-.086 1.205l4.654 5.318c.516.591 1.49.225 1.49-.56z"/><path fill="url(#i6a0b42-paint5_linear_67661_103)" d="M39 35.761a.85.85 0 0 1 1.403-.645l4.654 3.989a.85.85 0 0 1 .086 1.205l-4.654 5.318c-.516.591-1.49.225-1.49-.56z"/><path fill="#F5F5F5" fill-rule="evenodd" d="m35.946 34.356-4.653 3.99a1.85 1.85 0 0 0-.189 2.622l4.654 5.319c.783.894 2.046.781 2.742.054.696.727 1.96.84 2.742-.054l4.654-5.319a1.85 1.85 0 0 0-.188-2.623l-4.654-3.989c-.81-.694-1.92-.53-2.554.135-.634-.666-1.743-.83-2.554-.135m-4.003 4.749 4.654-3.99a.85.85 0 0 1 1.403.646v9.333c-.021.767-.978 1.118-1.49.534l-4.653-5.318a.85.85 0 0 1 .086-1.205m8.46-3.99a.85.85 0 0 0-1.403.646v9.333c.021.767.978 1.118 1.49.534l4.653-5.318a.85.85 0 0 0-.086-1.205z" clip-rule="evenodd"/><defs><linearGradient id="i6a0b42-paint0_linear_67661_103" x1="15.556" x2="20.362" y1="5" y2="43.455" gradientUnits="userSpaceOnUse"><stop stop-color="#fff"/><stop offset="1" stop-color="#EBEBEB"/></linearGradient><radialGradient id="i6a0b42-paint1_radial_67661_103" cx="0" cy="0" r="1" gradientTransform="matrix(20.0556 30.0833 -30.0833 11.2812 17.139 14.896)" gradientUnits="userSpaceOnUse"><stop offset=".177" stop-color="#fff"/><stop offset="1" stop-color="#B8B8B8"/></radialGradient><linearGradient id="i6a0b42-paint2_linear_67661_103" x1="17.271" x2="22.387" y1="5" y2="43.373" gradientUnits="userSpaceOnUse"><stop stop-color="#BBB"/><stop offset="1" stop-color="#888"/></linearGradient><linearGradient id="i6a0b42-paint3_linear_67661_103" x1="16" x2="35.52" y1="14" y2="29.647" gradientUnits="userSpaceOnUse"><stop stop-color="#008EE6"/><stop offset="1" stop-color="#006094"/></linearGradient><linearGradient id="i6a0b42-paint4_linear_67661_103" x1="31.646" x2="42.398" y1="34.909" y2="48.294" gradientUnits="userSpaceOnUse"><stop stop-color="#008EE6"/><stop offset="1" stop-color="#006094"/></linearGradient><linearGradient id="i6a0b42-paint5_linear_67661_103" x1="31.646" x2="42.398" y1="34.909" y2="48.294" gradientUnits="userSpaceOnUse"><stop stop-color="#008EE6"/><stop offset="1" stop-color="#006094"/></linearGradient></defs></svg>