<svg xmlns="http://www.w3.org/2000/svg" width="20" height="20" fill="currentColor"><path d="m3.529 6.333-2.5 7a.5.5 0 1 0 .942.336l.596-1.668h2.866l.596 1.668a.5.5 0 0 0 .942-.336l-2.5-7a.5.5 0 0 0-.942 0m1.547 4.668H2.924L4 7.988zm7.868-2.248a2.25 2.25 0 0 1-.666 1.148 2.248 2.248 0 0 1-1.278 4.1H8.5a.5.5 0 0 1-.5-.5v-7a.5.5 0 0 1 .5-.5h2.25a2.248 2.248 0 0 1 2.194 2.752m-1.31.381a1.252 1.252 0 0 0-.883-2.133H8.999v2.5h1.75c.331 0 .649-.132.883-.367ZM9 13.001h2a1.25 1.25 0 0 0 0-2.5H9zm6.44-5.561A1.5 1.5 0 0 1 18 8.501a.5.5 0 1 0 1 0 2.5 2.5 0 0 0-5 0v3a2.5 2.5 0 0 0 5 0 .5.5 0 1 0-1 0 1.5 1.5 0 0 1-3 0v-3c0-.398.158-.78.44-1.06Z"/></svg>