<svg xmlns="http://www.w3.org/2000/svg" width="20" height="20" fill="currentColor"><path d="M5 6.501a.5.5 0 0 0-.898-.302 10 10 0 0 0-.22.306c-.33.472-.702 1.005-1.64 1.567a.5.5 0 1 0 .515.858c.545-.327.941-.66 1.243-.972V13.5a.5.5 0 0 0 1 0v-7Zm1.993 1.583v.003a.5.5 0 0 1-.986-.167l-.011.066c-.01.058-.018.108.01-.067l.001-.001v-.005l.002-.007.005-.022a2 2 0 0 1 .083-.287c.062-.175.17-.41.347-.646.367-.49 1.01-.95 2.056-.95.862 0 1.59.291 2.052.878.458.58.586 1.363.44 2.207-.123.723-.525 1.172-1.007 1.482-.333.214-.74.379-1.101.525q-.175.07-.329.136c-.46.198-.833.406-1.1.725-.195.233-.358.557-.424 1.047h3.47a.5.5 0 1 1 0 1h-4a.5.5 0 0 1-.5-.5c0-.968.252-1.669.687-2.189.424-.506.979-.789 1.471-1.001q.227-.098.426-.177c.333-.135.611-.248.86-.407.303-.196.496-.425.562-.81.113-.657-.009-1.125-.24-1.42-.228-.287-.629-.496-1.267-.496-.705 0-1.062.29-1.256.55a1.5 1.5 0 0 0-.25.534zM13 8.285c0 .609.633.89 1.676 1.282l.007.003c1.034.387 2.317.868 2.317 2.215a2.28 2.28 0 0 1-2.5 2.25 2.28 2.28 0 0 1-2.5-2.25.5.5 0 0 1 1 0c0 .923.808 1.25 1.5 1.25s1.5-.327 1.5-1.25c0-.61-.641-.894-1.676-1.282S12 9.632 12 8.285a2.28 2.28 0 0 1 1.567-2.146 3.22 3.22 0 0 1 1.866 0A2.28 2.28 0 0 1 17 8.285a.5.5 0 0 1-1 0c0-.923-.808-1.25-1.5-1.25s-1.5.327-1.5 1.25"/></svg>