<svg xmlns="http://www.w3.org/2000/svg" width="20" height="20" fill="currentColor"><path d="m12.847 7.71-.003.004a.5.5 0 1 1-.688-.726l.002-.002.004-.003.011-.011.039-.034a4.4 4.4 0 0 1 .62-.443C13.235 6.259 13.825 6 14.5 6c1.316 0 2.5.947 2.5 2.25 0 .69-.407 1.262-.912 1.638a3 3 0 0 1-.16.112q.082.054.16.112c.505.376.912.947.912 1.638 0 1.303-1.184 2.25-2.5 2.25-.676 0-1.265-.258-1.667-.494a4.4 4.4 0 0 1-.66-.477l-.011-.01-.004-.004-.001-.001-.001-.001a.5.5 0 0 1 .688-.726l.003.003a2 2 0 0 0 .12.1c.087.069.214.161.372.254.322.189.732.356 1.161.356.893 0 1.5-.62 1.5-1.25 0-.276-.166-.58-.51-.837a2.14 2.14 0 0 0-1.24-.413.5.5 0 0 1 0-1c.441 0 .9-.16 1.24-.413.344-.257.51-.561.51-.837C16 7.62 15.393 7 14.5 7c-.429 0-.84.167-1.161.356a3.4 3.4 0 0 0-.47.334zM5 6.501a.5.5 0 0 0-.898-.302q-.111.147-.22.306c-.33.472-.702 1.005-1.64 1.567a.5.5 0 1 0 .515.858c.545-.327.941-.66 1.243-.972V13.5a.5.5 0 0 0 1 0v-7Zm1.993 1.583v.003a.5.5 0 0 1-.986-.167l-.011.066c-.01.058-.018.108.01-.067l.001-.001v-.005l.002-.007.005-.022a2 2 0 0 1 .083-.287c.062-.175.17-.41.347-.646.367-.49 1.01-.95 2.056-.95.862 0 1.59.291 2.052.878.458.58.586 1.363.44 2.207-.123.723-.525 1.172-1.007 1.482-.333.214-.74.379-1.101.525q-.175.07-.329.136c-.46.198-.833.406-1.1.725-.195.233-.358.557-.424 1.047h3.47a.5.5 0 1 1 0 1h-4a.5.5 0 0 1-.5-.5c0-.968.252-1.669.687-2.189.424-.506.979-.789 1.471-1.001q.227-.098.426-.177c.333-.135.611-.248.86-.407.303-.196.496-.425.562-.81.113-.657-.009-1.125-.24-1.42-.228-.287-.629-.496-1.267-.496-.705 0-1.062.29-1.256.55a1.5 1.5 0 0 0-.25.534z"/></svg>