<svg xmlns="http://www.w3.org/2000/svg" width="32" height="32" fill="currentColor"><path d="M27 7c0-2.76-4.925-5-11-5S5 4.24 5 7v18c0 2.762 4.925 5 11 5 .833 0 1.645-.042 2.425-.121a3 3 0 0 1-1.529-.82 3 3 0 0 1-.685-1.06l-.211.002c-2.82 0-5.275-.524-6.95-1.286C7.192 25.872 7 25.115 7 25V9.876c1.99 1.285 5.28 2.125 9 2.125s7.01-.84 9-2.125v5.12h2zm-2 0c0 .115-.193.872-2.05 1.715-1.675.762-4.13 1.286-6.95 1.286s-5.275-.524-6.95-1.286C7.192 7.872 7 7.115 7 7s.193-.87 2.05-1.714C10.724 4.524 13.18 4 16 4s5.275.524 6.95 1.286C24.808 6.129 25 6.886 25 7"/><path d="M20.125 17h8.054a.805.805 0 0 1 .806.806v8.053a.806.806 0 0 1-1.375.57l-8.053-8.053A.806.806 0 0 1 20.126 17Zm-.754 6.049.707-.708a1 1 0 0 0-1.414-1.414l-.707.707a1 1 0 1 0 1.414 1.415m3.182.353a1 1 0 0 1 0 1.414l-2.829 2.828a1 1 0 0 1-1.414-1.414l2.829-2.828a1 1 0 0 1 1.414 0m2.474 2.475a1 1 0 0 0-1.414 0l-.707.707a1 1 0 0 0 1.414 1.414l.707-.707a1 1 0 0 0 0-1.414"/></svg>