<svg xmlns="http://www.w3.org/2000/svg" width="20" height="20" fill="currentColor"><path d="M8 2.501a.5.5 0 1 0-1 0v1.5h-.5a2.5 2.5 0 0 0-2.5 2.5v.5H2.5a.5.5 0 1 0 0 1H4v1.5H2.5a.5.5 0 0 0 0 1H4v1.5H2.5a.5.5 0 1 0 0 1H4v.5a2.5 2.5 0 0 0 2.5 2.5H7v1.5a.5.5 0 0 0 1 0v-1.5h1.5v1.5a.5.5 0 0 0 1 0v-1.5h.188l-.409-.409.591-.591H6.5a1.5 1.5 0 0 1-1.5-1.5v-7a1.5 1.5 0 0 1 1.5-1.5h7a1.5 1.5 0 0 1 1.5 1.5v4.5h1v-.5h1.5a.5.5 0 0 0 0-1H16v-1.5h1.5a.5.5 0 0 0 0-1H16v-.5a2.5 2.5 0 0 0-2.5-2.5H13v-1.5a.5.5 0 0 0-1 0v1.5h-1.5v-1.5a.5.5 0 0 0-1 0v1.5H8z"/><path d="m10.986 7.54-.416 1.461h1.529a.4.4 0 0 1 .307.656l-2.658 3.19c-.293.35-.856.05-.726-.388L9.455 11H7.9a.4.4 0 0 1-.307-.657l2.668-3.188c.29-.348.85-.051.726.385Zm7.514 4.461h-5a.5.5 0 0 0-.353.854l5 5a.5.5 0 0 0 .853-.354v-5a.5.5 0 0 0-.5-.5m-6.807 3.592 1.5-1.5.707.708-1.5 1.5zm.5 2.5 2.5-2.5.708.707-2.5 2.5zm4-.999-1.5 1.5.707.706 1.5-1.5z"/></svg>