<svg xmlns="http://www.w3.org/2000/svg" width="32" height="32" fill="currentColor"><path d="M2 16C2 8.268 8.268 2 16 2s14 6.268 14 14q0 1.018-.141 1.996H25.8a10 10 0 0 0-1.194-7.09 1 1 0 1 0-1.72 1.018 8 8 0 0 1 .863 6.072h-1.581a2.8 2.8 0 0 0-2.592 1.727l-.004.01-.005.01a2.81 2.81 0 0 0 .135 2.398q-.24.16-.452.372l-.707.707a3 3 0 0 0 .382 4.566l-.029.03a3 3 0 0 0-.878 2.04q-.989.142-2.018.144C8.268 30 2 23.732 2 16m15.56-7.848a1 1 0 1 0 .388-1.962 10 10 0 0 0-10.24 15.4 1 1 0 1 0 1.657-1.118 8 8 0 0 1 8.196-12.32Zm3.432-.099-1.056.842c-.638.507-1.494 1.192-2.368 1.9s-1.77 1.437-2.485 2.037c-.357.3-.673.568-.92.786a7 7 0 0 0-.563.538 2.463 2.463 0 0 0 3.745 3.2 7 7 0 0 0 .443-.64c.176-.278.393-.632.632-1.032.48-.8 1.061-1.798 1.623-2.773s1.108-1.927 1.508-2.636l.484-.853.182-.322a.82.82 0 0 0-1.225-1.047"/><path d="M22.125 20h8.054a.806.806 0 0 1 .806.805v8.054a.806.806 0 0 1-1.375.57l-8.053-8.053A.807.807 0 0 1 22.126 20Zm-.754 6.048.707-.707a1 1 0 0 0-1.414-1.414l-.707.707a1 1 0 1 0 1.414 1.414m3.182.353a1 1 0 0 1 0 1.415l-2.829 2.828a1 1 0 1 1-1.414-1.414l2.83-2.83a1 1 0 0 1 1.414 0Zm2.474 2.475a1 1 0 0 0-1.414 0l-.707.707a1 1 0 0 0 1.414 1.415l.707-.707a1 1 0 0 0 0-1.415"/></svg>