<svg xmlns="http://www.w3.org/2000/svg" width="32" height="32" fill="currentColor"><path d="M14.626 3.546a2 2 0 0 1 2.748 0l9.687 9.15c.6.567.939 1.354.939 2.178V17h-2v-2.126a1 1 0 0 0-.313-.726L16 4.998l-9.687 9.15a1 1 0 0 0-.313.726v11.129a1 1 0 0 0 1 .999h10.741A3 3 0 0 0 17.034 29H7c-1.657 0-3-1.342-3-2.997V14.874a3 3 0 0 1 .939-2.178z"/><path d="M29.195 19h-8.054a.807.807 0 0 0-.568 1.376l8.053 8.053a.8.8 0 0 0 1.374-.57v-8.054a.8.8 0 0 0-.8-.8zm-8.1 5.341-.707.707a1.001 1.001 0 1 1-1.414-1.414l.707-.707a1 1 0 0 1 1.414 1.414M23.57 25.4a1 1 0 0 1 0 1.415l-2.83 2.829a1 1 0 0 1-1.413-1.414l2.829-2.83a1 1 0 0 1 1.414 0m1.06 2.476a1 1 0 1 1 1.414 1.415l-.707.709a1.002 1.002 0 0 1-1.631-.325 1 1 0 0 1 .217-1.09z"/></svg>