<svg xmlns="http://www.w3.org/2000/svg" width="32" height="32" fill="currentColor"><path d="M17.374 3.546a2 2 0 0 0-2.748 0l-9.687 9.15A3 3 0 0 0 4 14.875v11.129A3 3 0 0 0 7 29h10.354v-.062a3 3 0 0 1 .877-2.122l.036-.035a3 3 0 0 1-.388-.319 3 3 0 0 1 0-4.242l.707-.707q.196-.195.424-.349A2.8 2.8 0 0 1 21.461 17H28v-2.126a3 3 0 0 0-.939-2.178z"/><path d="M29.514 19H21.46a.806.806 0 0 0-.568 1.376l8.053 8.053a.8.8 0 0 0 1.374-.57v-8.054a.8.8 0 0 0-.8-.8zm-8.099 5.341-.707.707a1 1 0 0 1-1.427.012 1 1 0 0 1 .013-1.426l.707-.707a1 1 0 0 1 1.414 1.414m2.474 1.059a1 1 0 0 1 0 1.415l-2.83 2.829a1 1 0 0 1-1.413-1.414l2.829-2.83a1 1 0 0 1 1.414 0m1.061 2.476a1 1 0 1 1 1.413 1.415l-.707.709a1 1 0 0 1-1.414 0 1 1 0 0 1 0-1.415l.707-.709Z"/></svg>