<svg xmlns="http://www.w3.org/2000/svg" width="20" height="20" fill="currentColor"><path d="M4 6a1 1 0 1 1-2 0 1 1 0 0 1 2 0m2.5-.5a.5.5 0 0 0 0 1h11a.5.5 0 0 0 0-1zm0 5a.5.5 0 0 0 0 1h11a.5.5 0 0 0 0-1zM3 17a1 1 0 1 0 0-2 1 1 0 0 0 0 2m1-6a1 1 0 1 1-2 0 1 1 0 0 1 2 0m3.25 3a.5.5 0 0 0-1 0v4a.5.5 0 0 0 1 0v-1.31l1.368 1.631a.5.5 0 0 0 .766-.642l-1.397-1.666 1.465-1.591a.5.5 0 0 0-.736-.678L7.25 15.336zm4.75-.5a2 2 0 0 0-2 2v1a2 2 0 0 0 3.25 1.562l.45.338a.5.5 0 0 0 .6-.8l-.45-.338A2 2 0 0 0 14 16.5v-1a2 2 0 0 0-2-2m.993 3.12-.693-.52a.5.5 0 0 0-.6.8l.693.52A1 1 0 0 1 11 16.5v-1a1 1 0 0 1 2 0v1q0 .06-.007.12M16 14a.5.5 0 0 0-1 0v4a.5.5 0 0 0 .5.5h2a.5.5 0 0 0 0-1H16z"/></svg>