<svg xmlns="http://www.w3.org/2000/svg" width="20" height="20" fill="currentColor"><path d="M19.02 5.5a4.5 4.5 0 1 1-9 0 4.5 4.5 0 0 1 9 0m-4-2a.5.5 0 1 0-1 0V5h-1.5a.5.5 0 0 0 0 1h1.5v1.5a.5.5 0 0 0 1 0V6h1.5a.5.5 0 1 0 0-1h-1.5zm-10-.5h4.6a5.5 5.5 0 0 0-.393 1H5.02a1 1 0 0 0-1 1v5.975h-1V5a2 2 0 0 1 2-2"/><path d="M6.52 6h2.522q.046.516.185 1H6.52a.5.5 0 1 1 0-1m4.456 3.706a5.5 5.5 0 0 1-.7-.706H6.52a.5.5 0 1 0 0 1h4a.5.5 0 0 0 .456-.294M13.02 16v-5.207a5.5 5.5 0 0 0 1 .185V12h3v2a3 3 0 0 1-3 3h-5.1v-1zm1-3v3a2 2 0 0 0 2-2v-1zm-11.516-.996h5a.5.5 0 0 1 .5.5v5a.5.5 0 0 1-.853.354l-5-5a.5.5 0 0 1 .353-.854m.056 2.653a.5.5 0 0 1 0 .707l-.706.707a.5.5 0 1 1-.708-.707l.708-.707a.5.5 0 0 1 .707 0Zm2.83 2.829a.5.5 0 0 1 0 .707l-.708.707a.5.5 0 1 1-.707-.707l.707-.707a.5.5 0 0 1 .707 0Zm-1.415-1.414a.5.5 0 0 1 0 .707l-2.121 2.12a.5.5 0 1 1-.708-.706l2.122-2.122a.5.5 0 0 1 .707 0Z"/></svg>