<svg xmlns="http://www.w3.org/2000/svg" width="32" height="32" fill="currentColor"><path d="M20.336 26h-6v1.66c0 .117.015.23 0 .34h9.5a4.5 4.5 0 0 0 4.5-4.5V20h-6V8.5a4.5 4.5 0 0 0-4.5-4.5h-9a4.5 4.5 0 0 0-4.5 4.5v8.545h2V8.5a2.5 2.5 0 0 1 2.5-2.5h9a2.5 2.5 0 0 1 2.5 2.5zm2 0v-4h4v1.5a2.5 2.5 0 0 1-2.5 2.5z"/><path d="M9.336 10a1 1 0 1 0 0 2h8a1 1 0 1 0 0-2zm-1 6a1 1 0 0 1 1-1h8a1 1 0 1 1 0 2h-8a1 1 0 0 1-1-1m3.179 3H3.461a.805.805 0 0 0-.568 1.376l8.053 8.053a.806.806 0 0 0 1.374-.57v-8.054a.805.805 0 0 0-.805-.805m-8.101 5.34-.707.708a1 1 0 0 1-1.414-1.414L2 22.927a1 1 0 0 1 1.414 1.414Zm2.475 1.061a1 1 0 0 1 0 1.415L3.06 29.643a1 1 0 1 1-1.414-1.414L4.475 25.4a1 1 0 0 1 1.414 0Zm1.061 2.475a1 1 0 0 1 1.413 1.415l-.707.707a1 1 0 0 1-1.414-1.415l.707-.707Z"/></svg>