<svg xmlns="http://www.w3.org/2000/svg" width="32" height="32" fill="currentColor"><path d="M10 13.75C10 7.813 14.813 3 20.75 3h2a1.25 1.25 0 1 1 0 2.5h-2a8.25 8.25 0 0 0-8.25 8.25v1a4.75 4.75 0 0 1-4.75 4.75h-3.5a1.25 1.25 0 1 1 0-2.5h3.5A2.25 2.25 0 0 0 10 14.75z"/><path d="M21 8a6.75 6.75 0 0 0-6.75 6.75v1.188q0 .051.004.102a1 1 0 0 0-.004.103v.607C14.25 19.65 11.9 22 9 22H4.25a1.25 1.25 0 1 0 0 2.5H9a7.72 7.72 0 0 0 5.112-1.925 8.98 8.98 0 0 1 2.596-5.01 8 8 0 0 0 .042-.815v-.607q0-.052-.004-.103a1 1 0 0 0 .004-.102V14.75A4.25 4.25 0 0 1 21 10.5h6.75a1.25 1.25 0 1 0 0-2.5zm-6.78 17.983A8.55 8.55 0 0 1 10.162 27H9.25a1.25 1.25 0 1 0 0 2.5h.913c1.778 0 3.46-.419 4.949-1.163a9 9 0 0 1-.893-2.354Z"/><path d="M27.75 15.5h-1.785A9 9 0 0 0 23 15c-1.535 0-2.98.384-4.245 1.062A3.25 3.25 0 0 1 22 13h5.75a1.25 1.25 0 1 1 0 2.5m-9.407 4.536a1.52 1.52 0 0 1-1.117 1.928l-1.536.35a7.5 7.5 0 0 0-.04 3.19l1.698.423a1.52 1.52 0 0 1 1.096 1.892l-.496 1.724a7.5 7.5 0 0 0 2.75 1.597l1.26-1.3a1.53 1.53 0 0 1 2.193 0l1.236 1.272a7.5 7.5 0 0 0 2.737-1.635l-.467-1.514a1.52 1.52 0 0 1 1.117-1.927l1.536-.351a7.5 7.5 0 0 0 .04-3.189l-1.698-.423a1.52 1.52 0 0 1-1.096-1.893l.496-1.724a7.5 7.5 0 0 0-2.75-1.596l-1.26 1.3a1.53 1.53 0 0 1-2.193 0l-1.236-1.272a7.5 7.5 0 0 0-2.737 1.635zM25 24a2 2 0 1 1-4 0 2 2 0 0 1 4 0"/></svg>