<svg xmlns="http://www.w3.org/2000/svg" width="32" height="32" fill="currentColor"><path d="M2 6.25a1.25 1.25 0 1 0 2.5 0v-1a.75.75 0 0 1 .75-.75h21.5a.75.75 0 0 1 .75.75v1a1.25 1.25 0 1 0 2.5 0v-1A3.25 3.25 0 0 0 26.75 2H5.25A3.25 3.25 0 0 0 2 5.25zm28 18.5a1.25 1.25 0 1 0-2.5 0v1a.75.75 0 0 1-.75.75H5.25a.75.75 0 0 1-.75-.75v-1a1.25 1.25 0 1 0-2.5 0v1A3.25 3.25 0 0 0 5.25 29h21.5A3.25 3.25 0 0 0 30 25.75z"/><path d="M11.922 12.547a6.5 6.5 0 0 1 6.5-6.5h2.64a1 1 0 1 1 0 2h-2.64a4.5 4.5 0 0 0-4.5 4.5V14.5a2.5 2.5 0 0 1-2.5 2.5H8.969a1 1 0 1 1 0-2h2.453a.5.5 0 0 0 .5-.5z"/><path d="M15.617 14.49a4.5 4.5 0 0 1 4.5-4.5h2.914a1 1 0 0 1 0 2h-2.914a2.5 2.5 0 0 0-2.5 2.5v2.074a4.5 4.5 0 0 1-4.5 4.5H9a1 1 0 0 1 0-2h4.117a2.5 2.5 0 0 0 2.5-2.5z"/><path d="M10.969 22.961h3.846a4.5 4.5 0 0 0 4.5-4.5v-1.89a2.5 2.5 0 0 1 2.5-2.5h1.456a1 1 0 1 1 0 2h-1.457a.5.5 0 0 0-.5.5v1.89a6.5 6.5 0 0 1-6.5 6.5H10.97a1 1 0 0 1 0-2Z"/></svg>