<svg xmlns="http://www.w3.org/2000/svg" width="32" height="32" fill="currentColor"><path d="M2 6.25a1.25 1.25 0 1 0 2.5 0v-1a.75.75 0 0 1 .75-.75h21.5a.75.75 0 0 1 .75.75v1a1.25 1.25 0 1 0 2.5 0v-1A3.25 3.25 0 0 0 26.75 2H5.25A3.25 3.25 0 0 0 2 5.25zm28 19.5a1.25 1.25 0 1 0-2.5 0v1a.75.75 0 0 1-.75.75H5.25a.75.75 0 0 1-.75-.75v-1a1.25 1.25 0 1 0-2.5 0v1A3.25 3.25 0 0 0 5.25 30h21.5A3.25 3.25 0 0 0 30 26.75z"/><path d="M10.922 12.547a6.5 6.5 0 0 1 6.5-6.5h2.64a1 1 0 1 1 0 2h-2.64a4.5 4.5 0 0 0-4.5 4.5V14.5a2.5 2.5 0 0 1-2.5 2.5H7.969a1 1 0 1 1 0-2h2.453a.5.5 0 0 0 .5-.5z"/><path d="M14.617 14.49a4.5 4.5 0 0 1 4.5-4.5h2.914a1 1 0 0 1 0 2h-2.914a2.5 2.5 0 0 0-2.5 2.5v1.72a6.47 6.47 0 0 0-1.598 3.794 4.48 4.48 0 0 1-2.902 1.06H8a1 1 0 0 1 0-2h4.117a2.5 2.5 0 0 0 2.5-2.5zm-.802 8.471c.548 0 1.074-.098 1.56-.278.23.643.557 1.239.965 1.77a6.5 6.5 0 0 1-2.525.508H9.969a1 1 0 1 1 0-2z"/><path d="M18.277 16.976a2 2 0 0 1-1.441 2.496l-.584.145a5.7 5.7 0 0 0 .006 1.807l.54.13a2 2 0 0 1 1.45 2.51l-.187.631c.44.386.94.7 1.485.922l.493-.519a2 2 0 0 1 2.899 0l.499.526a5.3 5.3 0 0 0 1.482-.913l-.198-.686a2 2 0 0 1 1.442-2.496l.583-.145a5.7 5.7 0 0 0-.006-1.807l-.54-.13a2 2 0 0 1-1.449-2.51l.186-.631a5.3 5.3 0 0 0-1.484-.922l-.493.518a2 2 0 0 1-2.9 0l-.498-.525c-.544.22-1.044.53-1.483.913zM21.5 22c-.8 0-1.45-.671-1.45-1.5 0-.828.65-1.5 1.45-1.5s1.45.672 1.45 1.5c0 .829-.65 1.5-1.45 1.5"/></svg>