<svg xmlns="http://www.w3.org/2000/svg" width="20" height="20" fill="currentColor"><path d="M13 3a6 6 0 0 0-6 6v.758a4.5 4.5 0 0 0-1-.502V9a7 7 0 0 1 7-7h.5a.5.5 0 0 1 0 1zM9.921 16.8A7 7 0 0 0 13 11v-1a1 1 0 0 1 1-1h3.5a.5.5 0 0 0 0-1H14a2 2 0 0 0-2 2v1a6 6 0 0 1-2.801 5.077z"/><path d="M10 10.5a4.48 4.48 0 0 1-1.003 2.832 4.5 4.5 0 0 0-.289-1.43c.188-.43.292-.903.292-1.402v-1A4.5 4.5 0 0 1 13.5 5h4a.5.5 0 0 1 0 1h-4A3.5 3.5 0 0 0 10 9.5zM4.5 17c.786 0 1.512-.26 2.096-.697l2.55 2.55a.5.5 0 1 0 .708-.707l-2.55-2.55A3.5 3.5 0 1 0 4.5 17m0-1a2.5 2.5 0 1 1 0-5 2.5 2.5 0 0 1 0 5"/></svg>