<svg xmlns="http://www.w3.org/2000/svg" width="32" height="32" fill="currentColor"><path d="M2 6a1 1 0 0 0 2 0V5a1 1 0 0 1 1-1h22a1 1 0 0 1 1 1v1a1 1 0 1 0 2 0V5a3 3 0 0 0-3-3H5a3 3 0 0 0-3 3zm28 19a1 1 0 1 0-2 0v1a1 1 0 0 1-1 1H5a1 1 0 0 1-1-1v-1a1 1 0 1 0-2 0v1a3 3 0 0 0 3 3h22a3 3 0 0 0 3-3z"/><path d="M11.922 12.547a6.5 6.5 0 0 1 6.5-6.5h2.64a1 1 0 1 1 0 2h-2.64a4.5 4.5 0 0 0-4.5 4.5V14.5a2.5 2.5 0 0 1-2.5 2.5H8.969a1 1 0 1 1 0-2h2.453a.5.5 0 0 0 .5-.5z"/><path d="M15.617 14.49a4.5 4.5 0 0 1 4.5-4.5h2.914a1 1 0 0 1 0 2h-2.914a2.5 2.5 0 0 0-2.5 2.5v2.074a4.5 4.5 0 0 1-4.5 4.5H9a1 1 0 0 1 0-2h4.117a2.5 2.5 0 0 0 2.5-2.5z"/><path d="M10.969 22.961h3.846a4.5 4.5 0 0 0 4.5-4.5v-1.89a2.5 2.5 0 0 1 2.5-2.5h1.456a1 1 0 1 1 0 2h-1.457a.5.5 0 0 0-.5.5v1.89a6.5 6.5 0 0 1-6.5 6.5H10.97a1 1 0 0 1 0-2Z"/></svg>