<svg xmlns="http://www.w3.org/2000/svg" width="20" height="20" fill="none"><path fill="#000" d="M15.035 17.34a.5.5 0 0 1 .354.853l-.707.707a.5.5 0 0 1-.55.116.5.5 0 0 1-.269-.66.5.5 0 0 1 .112-.163l.707-.707a.5.5 0 0 1 .353-.146M13.622 15.926a.5.5 0 0 1 .354.853L11.854 18.9a.503.503 0 0 1-.816-.162.5.5 0 0 1 .108-.545l2.123-2.12a.5.5 0 0 1 .353-.147M17.5 12a.5.5 0 0 1 .5.5v5a.5.5 0 0 1-.854.354l-5-5A.5.5 0 0 1 12.5 12zM7 17H5.5A2.5 2.5 0 0 1 3 14.5V13h4zM11.087 13a1.5 1.5 0 0 0 .353.562l.105.105q-.22.107-.397.282l-.708.708a1.5 1.5 0 0 0-.432.912l-.008.149.008.148A1.5 1.5 0 0 0 10.725 17H8v-4z"/><path fill="#000" d="M12.208 14.51a.5.5 0 0 1 .354.854l-.707.708a.501.501 0 0 1-.709-.708l.708-.707a.5.5 0 0 1 .354-.146M7 12H3v-2h4zM12 11.089q-.124.043-.24.106l-.094.058a1.5 1.5 0 0 0-.506.573l-.047.1q-.015.038-.026.074H8V9.825A3 3 0 0 0 9.826 8H12zM17 11h-4V8h4zM7 1a2 2 0 0 1 2 2v4a2 2 0 0 1-2 2H3a2 2 0 0 1-2-2V3a2 2 0 0 1 2-2zM3.5 3a.5.5 0 0 0 0 1h1.793L3.146 6.146a.5.5 0 1 0 .708.708L6 4.707V6.5a.5.5 0 0 0 1 0v-3a.5.5 0 0 0-.5-.5zM12 7h-2V3h2zM14.5 3A2.5 2.5 0 0 1 17 5.5V7h-4V3z"/></svg>