<svg xmlns="http://www.w3.org/2000/svg" width="20" height="20" fill="none"><path fill="#000" d="M15.035 17.34a.5.5 0 0 1 .354.853l-.707.707a.5.5 0 0 1-.55.116.5.5 0 0 1-.269-.66.5.5 0 0 1 .112-.163l.707-.707a.5.5 0 0 1 .353-.146M13.622 15.926a.5.5 0 0 1 .354.853L11.854 18.9a.503.503 0 0 1-.816-.162.5.5 0 0 1 .108-.545l2.123-2.12a.5.5 0 0 1 .353-.147M17.5 12a.5.5 0 0 1 .5.5v5a.5.5 0 0 1-.854.354l-5-5A.5.5 0 0 1 12.5 12zM8 12h3.087a1.5 1.5 0 0 0 0 1H8v3h2.027a1.5 1.5 0 0 0 .698 1H5.5A2.5 2.5 0 0 1 3 14.5V10h1v2h3v-2a3 3 0 0 0 1-.175zm-4 2.5a1.5 1.5 0 0 0 1.355 1.493L5.5 16H7v-3H4zM12.208 14.51a.5.5 0 0 1 .354.854l-.707.708a.501.501 0 0 1-.709-.708l.708-.707a.5.5 0 0 1 .354-.146M14.5 3A2.5 2.5 0 0 1 17 5.5V11h-1V8h-3v3h-.5q-.258.002-.5.089V8H9.826A3 3 0 0 0 10 7h2V4h-2V3zM13 7h3V5.5a1.5 1.5 0 0 0-1.355-1.493L14.5 4H13zM7 1a2 2 0 0 1 2 2v4a2 2 0 0 1-2 2H3a2 2 0 0 1-2-2V3a2 2 0 0 1 2-2zM3.5 3a.5.5 0 0 0 0 1h1.793L3.146 6.146a.5.5 0 1 0 .708.708L6 4.707V6.5a.5.5 0 0 0 1 0v-3a.5.5 0 0 0-.5-.5z"/></svg>