<svg xmlns="http://www.w3.org/2000/svg" width="48" height="48" fill="currentColor"><path fill-rule="evenodd" d="m21.433 42.24-.652 1.073-11.84-4.821a1.4 1.4 0 0 1-.441-.302c-.647-.615-.703-1.673-.131-2.368l8.688-9.556 6.071-6.677q.235-.285.38-.632a2.6 2.6 0 0 0 .201-1.02c0-1.018-.562-1.844-1.358-2.287L9.779 9.527 23.105 4.16c.262-.1.543-.161.834-.161s.571.06.834.171l14.047 5.85c.572.252.965.856.965 1.551 0 .323-.084.625-.234.877l-7.703 12.666zm-5.748-18.18 4.375-4.813-.005-.023a1.32 1.32 0 0 0 .344-.892c0-.529-.309-.985-.754-1.194l-.006-.028L9.1 11.976a1.77 1.77 0 0 0 .078 1.618zm8.655 18.21 9.202-15.13 6.552 7.84c.58.7.522 1.763-.133 2.38a1.5 1.5 0 0 1-.446.304s-13.795 6.338-14.143 6.338-.593-.152-.81-.39a1.25 1.25 0 0 1-.217-1.333l-.005-.008Z" clip-rule="evenodd"/></svg>