<svg xmlns="http://www.w3.org/2000/svg" width="48" height="48" fill="currentColor"><path fill-rule="evenodd" d="M14.225 6.3c-.12-.83.528-1.58 1.367-1.58H26.08c.729 0 1.367.48 1.587 1.18l.439 1.42a11.65 11.65 0 0 0 11.128 8.24h1.377a3.326 3.326 0 0 1 3.324 3.33v8.74h-5.1C26.48 27.63 16 18.55 14.225 6.3m1.478 11.03c3.733 5.877 9.629 10.22 16.455 11.962-.116.781-.693 1.378-1.388 1.378H5.41C4.63 30.67 4 29.92 4 29V19c0-.92.63-1.67 1.41-1.67zm1.878 15.84a24.5 24.5 0 0 0-3.367 9.267c-.12.82.52 1.56 1.348 1.56H26.08c.729 0 1.367-.48 1.587-1.18l.439-1.42a11.65 11.65 0 0 1 11.128-8.24h1.377a3.325 3.325 0 0 0 3.31-3.027h-5.09c-1.432 0-2.843-.114-4.224-.332-.3 1.622-1.645 3.372-3.838 3.372H17.58Z" clip-rule="evenodd"/></svg>