<svg xmlns="http://www.w3.org/2000/svg" width="48" height="48" fill="currentColor"><path d="M13.145 13.157a2.5 2.5 0 0 1 2.5-2.5h15.734c3.288 0 5.954 1.855 5.954 4.501v2.999c2.729-1.542 4.167-3.932 4.167-6.242C41.5 8.024 37.158 4 29.892 4H6.49A2.5 2.5 0 0 0 4 6.499c0 .203.018.402.077.588.078.244 4.633 14.484 6.999 21.858a2.5 2.5 0 0 0 2.375 1.719h5.184l-5.377-16.759a2.5 2.5 0 0 1-.114-.748z"/><path d="M25.715 22.33a2.5 2.5 0 0 1 2.5-2.5h2.037c1.718 0 3.243-.232 4.581-.627v-4.045c0-1.103-1.55-2.001-3.454-2.001H15.646l7.203 22.453a2.5 2.5 0 0 0 2.375 1.719h5.178l-4.567-14.231q-.119-.364-.12-.768"/><path d="M28.215 22.33h2.036c8.93 0 13.748-5.366 13.748-10.415v25.414c0 3.077-3.355 5.955-7.097 6.648-.714.132-1.844-.316-2.15-1.268a23816 23816 0 0 0-6.537-20.379"/></svg>