<svg xmlns="http://www.w3.org/2000/svg" width="48" height="48" fill="currentColor"><path fill="url(#i2e87ee-a)" d="M39 42.712c2.76 0 5-2.237 5-4.993V18.25c0-.6-.31-1.119-.78-1.408-3.94-2.437-13.72-8.467-18.36-11.333a1.64 1.64 0 0 0-.85-.23c-.33 0-.63.1-.89.26C18.47 8.414 8.74 14.414 4.8 16.84c-.47.29-.79.819-.79 1.418v19.47a5 5 0 0 0 5 4.992h30l-.01-.01Z"/><path fill="url(#i2e87ee-b)" d="M4 26.546v11.173a5 5 0 0 0 5 4.992h30c2.76 0 5-2.236 5-4.992V26.546z"/><path fill="url(#i2e87ee-c)" d="M9 42.711c-2.76 0-5-2.236-5-4.992V26.077c0-.61.33-1.139.81-1.428l13.31-8.218a1.67 1.67 0 0 1 1.76 0l13.31 8.218c.49.29.81.819.81 1.428v11.642a5 5 0 0 0 5 4.992z"/><path fill="url(#i2e87ee-d)" d="M9 42.711c-2.76 0-5-2.236-5-4.992V26.077c0-.61.33-1.139.81-1.428l13.31-8.218a1.67 1.67 0 0 1 1.76 0l13.31 8.218c.49.29.81.819.81 1.428v11.642a5 5 0 0 0 5 4.992z"/><path fill="url(#i2e87ee-e)" d="M34 37.719V26.546H4v11.173a5 5 0 0 0 5 4.992h30c-2.76 0-5-2.236-5-4.992"/><path fill="url(#i2e87ee-f)" d="M9 42.712c-2.76 0-5-2.237-5-4.992v-3.815c0-.599.32-1.118.79-1.418l8.33-5.142a1.67 1.67 0 0 1 1.76 0s4.54 2.806 8.32 5.133c.48.29.8.818.8 1.417v3.825a5 5 0 0 0 5 4.992z"/><path fill="url(#i2e87ee-g)" d="M24.83 40.475A4.97 4.97 0 0 1 24 37.73v-3.824c0-.599-.32-1.128-.8-1.418-3.78-2.326-8.32-5.132-8.32-5.132a1.67 1.67 0 0 0-1.76 0l-8.33 5.142c-.47.29-.79.82-.79 1.418v3.814c0 1.019.31 1.967.83 2.756h20v-.01Z"/><defs><linearGradient id="i2e87ee-a" x1="24" x2="24" y1="42.712" y2="5.268" gradientUnits="userSpaceOnUse"><stop stop-color="#114A85"/><stop offset=".67" stop-color="#028EDB"/></linearGradient><linearGradient id="i2e87ee-b" x1="24" x2="24" y1="44.429" y2="28.263" gradientUnits="userSpaceOnUse"><stop stop-opacity=".2"/><stop offset=".55" stop-opacity="0"/></linearGradient><linearGradient id="i2e87ee-c" x1="21.5" x2="21.5" y1="42.711" y2="16.182" gradientUnits="userSpaceOnUse"><stop offset=".31" stop-color="#0094E5"/><stop offset="1" stop-color="#40D8F9"/></linearGradient><linearGradient id="i2e87ee-e" x1="21.5" x2="21.5" y1="42.711" y2="26.546" gradientUnits="userSpaceOnUse"><stop offset=".09" stop-opacity=".2"/><stop offset=".55" stop-opacity="0"/></linearGradient><linearGradient id="i2e87ee-f" x1="16.5" x2="16.5" y1="42.722" y2="27.096" gradientUnits="userSpaceOnUse"><stop stop-color="#3CC5EE"/><stop offset="1" stop-color="#50E0FF"/></linearGradient><linearGradient id="i2e87ee-g" x1="14.41" x2="14.41" y1="38.069" y2="24.689" gradientUnits="userSpaceOnUse"><stop stop-color="#A1ECFF" stop-opacity="0"/><stop offset=".9" stop-color="#A1ECFF" stop-opacity=".9"/></linearGradient><radialGradient id="i2e87ee-d" cx="0" cy="0" r="1" gradientTransform="matrix(14.69 0 0 14.6678 14.78 39.257)" gradientUnits="userSpaceOnUse"><stop stop-opacity=".3"/><stop offset="1" stop-opacity="0"/></radialGradient></defs></svg>