<svg xmlns="http://www.w3.org/2000/svg" width="48" height="48" fill="none"><g fill-rule="evenodd" clip-path="url(#i770aed-clip0_56017_803)" clip-rule="evenodd"><path fill="#767676" d="M39.24 16.627c1.686-2.478 4.758-.797 4.757 1.851v10.89a3.83 3.83 0 0 1-1.127 2.511l-9.816 9.773a3.16 3.16 0 0 1-2.843.87s-29.034-6.123-14.07-9.885 23.1-16.01 23.1-16.01"/><path fill="url(#i770aed-paint0_linear_56017_803)" d="M39.24 16.627c1.686-2.478 4.758-.797 4.757 1.851v10.89a3.83 3.83 0 0 1-1.127 2.511l-9.816 9.773a3.16 3.16 0 0 1-2.843.87s-29.034-6.123-14.07-9.885 23.1-16.01 23.1-16.01"/><path fill="url(#i770aed-paint1_linear_56017_803)" d="M39.24 16.627c1.686-2.478 4.758-.797 4.757 1.851v10.89a3.83 3.83 0 0 1-1.127 2.511l-9.816 9.773a3.16 3.16 0 0 1-2.843.87s-29.034-6.123-14.07-9.885 23.1-16.01 23.1-16.01"/><path fill="#4F1A1A" d="m35.376 39.38.01.01 6.705-6.692c-1.978 1.984-7.143 2.023-11.939-.347-3.198-1.58-5.409-4.625-7.37-7.696L11.963 7.553l-7.002 7.195a3.6 3.6 0 0 0-1.019 2.344l.039 13.837c-.038.932.295 1.84.921 2.506l8.9 9.543a3.18 3.18 0 0 0 2.327 1.017h13.302c.822-.001 1.613-.357 2.213-.942z"/><path fill="url(#i770aed-paint2_linear_56017_803)" d="m35.376 39.38.01.01 6.705-6.692c-1.978 1.984-7.143 2.023-11.939-.347-3.198-1.58-5.409-4.625-7.37-7.696L11.963 7.553l-7.002 7.195a3.6 3.6 0 0 0-1.019 2.344l.039 13.837c-.038.932.295 1.84.921 2.506l8.9 9.543a3.18 3.18 0 0 0 2.327 1.017h13.302c.822-.001 1.613-.357 2.213-.942z"/><path fill="url(#i770aed-paint3_linear_56017_803)" d="m35.376 39.38.01.01 6.705-6.692c-1.978 1.984-7.143 2.023-11.939-.347-3.198-1.58-5.409-4.625-7.37-7.696L11.963 7.553l-7.002 7.195a3.6 3.6 0 0 0-1.019 2.344l.039 13.837c-.038.932.295 1.84.921 2.506l8.9 9.543a3.18 3.18 0 0 0 2.327 1.017h13.302c.822-.001 1.613-.357 2.213-.942z"/><path fill="url(#i770aed-paint4_linear_56017_803)" d="m35.376 39.38.01.01 6.705-6.692c-1.978 1.984-7.143 2.023-11.939-.347-3.198-1.58-5.409-4.625-7.37-7.696L11.963 7.553l-7.002 7.195a3.6 3.6 0 0 0-1.019 2.344l.039 13.837c-.038.932.295 1.84.921 2.506l8.9 9.543a3.18 3.18 0 0 0 2.327 1.017h13.302c.822-.001 1.613-.357 2.213-.942z"/><path fill="#585858" d="M10.21 29.85c2.89-5.578 3.815-4.098 14.41-12.415 4.916-3.859 7.768-8.405 9.159-11.102a1.597 1.597 0 0 0-1.433-2.352h-15.58c-.853 0-1.671.349-2.278.973l-9.582 9.849a3.45 3.45 0 0 0-.966 2.407v13.802c0 .88.33 1.727.92 2.358l7.7 8.246s-5.433-5.818-2.35-11.766"/><path fill="url(#i770aed-paint5_linear_56017_803)" d="M10.21 29.85c2.89-5.578 3.815-4.098 14.41-12.415 4.916-3.859 7.768-8.405 9.159-11.102a1.597 1.597 0 0 0-1.433-2.352h-15.58c-.853 0-1.671.349-2.278.973l-9.582 9.849a3.45 3.45 0 0 0-.966 2.407v13.802c0 .88.33 1.727.92 2.358l7.7 8.246s-5.433-5.818-2.35-11.766"/><path fill="url(#i770aed-paint6_linear_56017_803)" d="M10.21 29.85c2.89-5.578 3.815-4.098 14.41-12.415 4.916-3.859 7.768-8.405 9.159-11.102a1.597 1.597 0 0 0-1.433-2.352h-15.58c-.853 0-1.671.349-2.278.973l-9.582 9.849a3.45 3.45 0 0 0-.966 2.407v13.802c0 .88.33 1.727.92 2.358l7.7 8.246s-5.433-5.818-2.35-11.766"/><path fill="url(#i770aed-paint7_linear_56017_803)" d="M10.21 29.85c2.89-5.578 3.815-4.098 14.41-12.415 4.916-3.859 7.768-8.405 9.159-11.102a1.597 1.597 0 0 0-1.433-2.352h-15.58c-.853 0-1.671.349-2.278.973l-9.582 9.849a3.45 3.45 0 0 0-.966 2.407v13.802c0 .88.33 1.727.92 2.358l7.7 8.246s-5.433-5.818-2.35-11.766"/></g><defs><linearGradient id="i770aed-paint0_linear_56017_803" x1="35.187" x2="46.979" y1="32.38" y2="19.573" gradientUnits="userSpaceOnUse"><stop stop-color="#114A85"/><stop offset=".796" stop-color="#028EDB"/></linearGradient><linearGradient id="i770aed-paint1_linear_56017_803" x1="35.611" x2="51.437" y1="35.891" y2="10.135" gradientUnits="userSpaceOnUse"><stop stop-color="#114A85"/><stop offset=".67" stop-color="#028EDB"/></linearGradient><linearGradient id="i770aed-paint2_linear_56017_803" x1="11.854" x2="32.854" y1="30.859" y2="31.011" gradientUnits="userSpaceOnUse"><stop offset=".074" stop-color="#0669B6"/><stop offset=".262" stop-color="#0E7FCB"/><stop offset=".545" stop-color="#148DD9"/><stop offset=".95" stop-color="#3CC5EE"/></linearGradient><linearGradient id="i770aed-paint3_linear_56017_803" x1="11.615" x2="35.569" y1="38.59" y2="35.128" gradientUnits="userSpaceOnUse"><stop offset=".31" stop-color="#0094E5"/><stop offset="1" stop-color="#40D8F9"/></linearGradient><linearGradient id="i770aed-paint4_linear_56017_803" x1="9.321" x2="32.539" y1="26.026" y2="32.94" gradientUnits="userSpaceOnUse"><stop offset=".09" stop-opacity=".2"/><stop offset=".55" stop-opacity="0"/></linearGradient><linearGradient id="i770aed-paint5_linear_56017_803" x1="26.772" x2="6.338" y1="7.914" y2="21.668" gradientUnits="userSpaceOnUse"><stop stop-color="#BDF5FF"/><stop offset="1" stop-color="#40D9FA"/></linearGradient><linearGradient id="i770aed-paint6_linear_56017_803" x1="4.629" x2="25.744" y1="33.55" y2="19.514" gradientUnits="userSpaceOnUse"><stop stop-color="#3CC5EE"/><stop offset="1" stop-color="#50E0FF"/></linearGradient><linearGradient id="i770aed-paint7_linear_56017_803" x1="10.766" x2="18.7" y1="23.28" y2="27.316" gradientUnits="userSpaceOnUse"><stop stop-color="#A1ECFF" stop-opacity="0"/><stop offset=".9" stop-color="#A1ECFF" stop-opacity=".9"/></linearGradient><clipPath id="i770aed-clip0_56017_803"><path fill="#fff" d="M0 0H48V48H0z"/></clipPath></defs></svg>