<svg xmlns="http://www.w3.org/2000/svg" width="48" height="48" fill="currentColor"><path fill-rule="evenodd" d="m13.16 18.74 26.94-3.98h.01c.64-.09 1.16-.56 1.32-1.17l2.51-7.57c.04-.14.06-.28.06-.43C44 4.71 43.28 4 42.4 4q-.051.001-.1.005l-.1.005-25.71 3.8c-2.79.44-5.227 2.48-5.957 5.17L8.41 20.74c.3-1.093 1.26-1.37 4.75-2m-.135 2.563c-3.229.67-4.436 1.749-5.142 3.327-.121.275-.23.572-.33.88l-1.855 6.56c.903-.506 2.004-.916 3.342-1.134l.02-.003 18.187-2.668c1.584-.26 1.88-1.37 2.184-2.502l.068-.254 1.91-6.94-17.844 2.638zm-3.583 12.1c-3.638.592-4.831 2.998-5.117 3.733A5 5 0 0 0 4 38.921a5.04 5.04 0 0 0 4.477 5.012c.707.105 1.509.096 2.416-.038l4.133-.573a2.62 2.62 0 0 0 2.168-1.909l2.596-9.527z" clip-rule="evenodd"/></svg>