<svg xmlns="http://www.w3.org/2000/svg" width="48" height="48" fill="none"><path fill="url(#i8dcd6e-paint0_linear_45747_644)" d="M36.374 27.789c2.16 0 4.212 1.739 4.918 3.649.2.539.308 1.121.308 1.728 0 2.761-2.244 5-5.013 5h-2.589c-4.418 0-8.164 1.332-10.47 5.388a.836.836 0 0 1-1.576-.388V27.319z"/><path fill="url(#i8dcd6e-paint1_linear_45747_644)" d="M36.374 27.789c2.16 0 4.212 1.739 4.918 3.649.2.539.308 1.121.308 1.728 0 2.761-2.244 5-5.013 5h-2.589c-4.418 0-8.164 1.332-10.47 5.388a.836.836 0 0 1-1.576-.388V27.319z"/><path fill="url(#i8dcd6e-paint2_linear_45747_644)" d="M41.291 31.438a5.01 5.01 0 0 0-4.706-3.272H9.849C6.619 28.166 4 25.554 4 22.333s2.807-6.136 6.037-6.136l10.642-.349 14.26-.092.317.672 6.036 15.009"/><path fill="url(#i8dcd6e-paint3_linear_45747_644)" d="M41.291 31.438a5.01 5.01 0 0 0-4.706-3.272H9.849C6.619 28.166 4 25.554 4 22.333s2.807-6.136 6.037-6.136l10.642-.349 14.26-.092.317.672 6.036 15.009"/><path fill="url(#i8dcd6e-paint4_linear_45747_644)" d="m43.894 14.25-3.328-8.274A3.34 3.34 0 0 0 37.513 4H11.038a3.34 3.34 0 0 0-3.217 2.428l-3.66 14.569c.684-2.464 2.894-4.497 5.582-4.497H42.33a1.67 1.67 0 0 0 1.565-2.25"/><defs><linearGradient id="i8dcd6e-paint0_linear_45747_644" x1="20.079" x2="41.103" y1="36.288" y2="30.655" gradientUnits="userSpaceOnUse"><stop offset=".536" stop-color="#0A5BAB"/><stop offset=".726" stop-color="#0A4B95"/><stop offset=".889" stop-color="#0B3B7F"/></linearGradient><linearGradient id="i8dcd6e-paint1_linear_45747_644" x1="31.776" x2="31.776" y1="36.084" y2="19.404" gradientUnits="userSpaceOnUse"><stop offset=".309" stop-opacity="0"/><stop offset=".563" stop-opacity=".4"/></linearGradient><linearGradient id="i8dcd6e-paint2_linear_45747_644" x1="42.37" x2="5.113" y1="27.418" y2="17.435" gradientUnits="userSpaceOnUse"><stop offset=".1" stop-color="#A0A4F3"/><stop offset=".6" stop-color="#3D7DEB"/><stop offset=".95" stop-color="#2C57C2"/></linearGradient><linearGradient id="i8dcd6e-paint3_linear_45747_644" x1="22.647" x2="22.647" y1="25.427" y2="9.745" gradientUnits="userSpaceOnUse"><stop offset=".28" stop-color="#2C57C2" stop-opacity="0"/><stop offset=".564" stop-color="#2849AB" stop-opacity=".5"/></linearGradient><linearGradient id="i8dcd6e-paint4_linear_45747_644" x1="31.96" x2="16.037" y1=".275" y2="27.854" gradientUnits="userSpaceOnUse"><stop offset=".24" stop-color="#BBC2FB"/><stop offset=".8" stop-color="#79B6FB"/></linearGradient></defs></svg>