<svg xmlns="http://www.w3.org/2000/svg" width="48" height="48" fill="currentColor"><path fill-rule="evenodd" d="M22.019 20.87c-1.46 1-3.031 1.35-4.712 1.44v.01c-.31.02-.62.02-.93.02H8.041L23.5 4.81c.47-.5 1.12-.81 1.85-.81a2.502 2.502 0 0 1 2.412 3.16l-2.501 9.35a8.42 8.42 0 0 1-3.242 4.36M44 19.84c0-.4-.06-.81-.21-1.18-.45-1.18-1.61-2.02-2.861-2.13l-13.087-.01s-.09.35-.1.35a10.83 10.83 0 0 1-10.455 7.97H7.332a3.33 3.33 0 1 0 0 6.66h23.481c1.141 0 2.152.58 2.752 1.45l8.923-10.107c.389-.413.788-.837 1.062-1.313.29-.51.45-1.1.45-1.69M30.813 33.99H22.13l-1.86 6.85A2.5 2.5 0 0 0 22.68 44c.73 0 1.38-.31 1.84-.8l6.944-7.87a.828.828 0 0 0-.65-1.34Z" clip-rule="evenodd"/></svg>