<svg xmlns="http://www.w3.org/2000/svg" width="48" height="48" fill="none"><path fill="url(#id2bd94-paint0_linear_54787_1094)" d="m23.38 29.305-3.13 11.537q-.09.315-.09.66a2.5 2.5 0 0 0 2.5 2.5c.73 0 1.38-.31 1.84-.8l18.61-21.116c-.61.67-1.49 1.09-2.46 1.09h-9.23c-3.84 0-7.08 2.6-8.04 6.139"/><path fill="url(#id2bd94-paint1_linear_54787_1094)" d="M43.99 19.836c0-1.84-1.49-3.33-3.33-3.33H15.08l-7.75 8.329a3.329 3.329 0 1 0 0 6.659h20.11a3.329 3.329 0 0 1 2.48 5.548l12.1-13.727 1.08-1.22h-.01c.56-.6.91-1.39.91-2.269z"/><path fill="url(#id2bd94-paint2_radial_54787_1094)" d="M43.99 19.836c0-1.84-1.49-3.33-3.33-3.33H15.08l-7.75 8.329a3.329 3.329 0 1 0 0 6.659h20.11a3.329 3.329 0 0 1 2.48 5.548l12.1-13.727 1.08-1.22h-.01c.56-.6.91-1.39.91-2.269z"/><path fill="url(#id2bd94-paint3_linear_54787_1094)" d="m24.59 18.697 3.13-11.538q.09-.315.09-.66A2.5 2.5 0 0 0 25.31 4c-.73 0-1.38.31-1.84.8L4.86 25.915c.61-.67 1.49-1.09 2.46-1.09h9.23c3.84 0 7.08-2.599 8.04-6.138"/><defs><linearGradient id="id2bd94-paint0_linear_54787_1094" x1="21.57" x2="36.335" y1="45.661" y2="20.084" gradientUnits="userSpaceOnUse"><stop offset=".227" stop-color="#CA2134"/><stop offset=".497" stop-color="#670938"/></linearGradient><linearGradient id="id2bd94-paint1_linear_54787_1094" x1="6" x2="40" y1="15" y2="36" gradientUnits="userSpaceOnUse"><stop offset=".132" stop-color="#CA2134"/><stop offset=".555" stop-color="#E82C41"/><stop offset=".647" stop-color="#F83F54"/><stop offset=".897" stop-color="#FFA43D"/></linearGradient><radialGradient id="id2bd94-paint2_radial_54787_1094" cx="0" cy="0" r="1" gradientTransform="rotate(68.199 -8.39 20.22)scale(10.7703 17.3291)" gradientUnits="userSpaceOnUse"><stop offset=".14" stop-color="#4A0829"/><stop offset=".958" stop-color="#670938" stop-opacity="0"/></radialGradient><linearGradient id="id2bd94-paint3_linear_54787_1094" x1="24" x2="12.252" y1="22" y2="13.136" gradientUnits="userSpaceOnUse"><stop stop-color="#FF9C70"/><stop offset=".285" stop-color="#FF835C"/><stop offset=".8" stop-color="#F83F54"/></linearGradient></defs></svg>