<svg xmlns="http://www.w3.org/2000/svg" width="20" height="20" fill="currentColor"><path d="M4 4v12a2 2 0 0 0 2 2h3.5a2.6 2.6 0 0 1-.449-1H6a1 1 0 0 1-1-1h4v-1H5V4a1 1 0 0 1 1-1h8a1 1 0 0 1 1 1v3.014q.515.027 1 .112V4a2 2 0 0 0-2-2H6a2 2 0 0 0-2 2"/><path d="M6 5a1 1 0 0 1 1-1h6a1 1 0 0 1 1 1v1a1 1 0 0 1-1 1H7a1 1 0 0 1-1-1zm1 0v1h6V5zm10 3.42a6.5 6.5 0 0 0-1.12-.3A8 8 0 0 0 14.5 8C12.015 8 10 9.12 10 10.5s2.015 2.5 4.5 2.5 4.5-1.12 4.5-2.5c0-.867-.794-1.63-2-2.08"/><path d="M18.168 13.142c-.99.55-2.288.858-3.668.858s-2.678-.309-3.668-.858a4.6 4.6 0 0 1-.832-.588v3.945c0 1.381 2.015 2.5 4.5 2.5S19 17.88 19 16.5l.001-3.946a4.5 4.5 0 0 1-.833.589Z"/></svg>