<svg xmlns="http://www.w3.org/2000/svg" width="20" height="20" fill="currentColor"><path d="M11.5 4a.5.5 0 0 1 0 1h-5a.5.5 0 0 1 0-1zm5 0a.5.5 0 0 1 0 1h-3a.5.5 0 0 1 0-1zm-12 0a.5.5 0 0 1 0 1h-2a.5.5 0 0 1 0-1zm7 3a.5.5 0 0 1 0 1h-5a.5.5 0 0 1 0-1zm5 0a.5.5 0 0 1 0 1h-3a.5.5 0 0 1 0-1zm-12 0a.5.5 0 0 1 0 1h-2a.5.5 0 0 1 0-1zm7 3a.5.5 0 0 1 0 1h-5a.5.5 0 0 1 0-1zm5 0a.5.5 0 0 1 0 1h-3a.5.5 0 0 1 0-1zm-12 0a.5.5 0 0 1 0 1h-2a.5.5 0 0 1 0-1zm7 3a.5.5 0 0 1 0 1h-5a.5.5 0 0 1 0-1zm5 0a.5.5 0 0 1 0 1h-3a.5.5 0 0 1 0-1zm-12 0a.5.5 0 0 1 0 1h-2a.5.5 0 0 1 0-1zm.5 3.5a.5.5 0 0 0-.5-.5h-2a.5.5 0 0 0 0 1h2a.5.5 0 0 0 .5-.5m6.5-.5a.5.5 0 0 1 0 1h-5a.5.5 0 0 1 0-1zm5 0a.5.5 0 0 1 0 1h-3a.5.5 0 0 1 0-1z"/></svg>