<svg xmlns="http://www.w3.org/2000/svg" width="20" height="20" fill="currentColor"><path d="M6.354 8.354a.5.5 0 0 0-.708-.708l-2 2a.5.5 0 0 0 0 .707l2 2a.5.5 0 0 0 .708-.707L4.707 10z"/><path d="M7 3H3a2 2 0 0 0-2 2v10a2 2 0 0 0 2 2h4a2 2 0 0 0 2-2V5a2 2 0 0 0-2-2M3 4h4a1 1 0 0 1 1 1v10a1 1 0 0 1-1 1H3a1 1 0 0 1-1-1V5a1 1 0 0 1 1-1m10.646 3.646a.5.5 0 0 0 0 .708L15.293 10l-1.647 1.646a.5.5 0 0 0 .708.707l2-2a.5.5 0 0 0 0-.707l-2-2a.5.5 0 0 0-.708 0"/><path d="M17 3h-4a2 2 0 0 0-2 2v10a2 2 0 0 0 2 2h4a2 2 0 0 0 2-2V5a2 2 0 0 0-2-2m-4 1h4a1 1 0 0 1 1 1v10a1 1 0 0 1-1 1h-4a1 1 0 0 1-1-1V5a1 1 0 0 1 1-1"/></svg>