<svg xmlns="http://www.w3.org/2000/svg" width="20" height="20" fill="currentColor"><path d="M4 5c0-1.007.875-1.755 1.904-2.223C6.978 2.289 8.427 2 10 2s3.022.289 4.096.777C15.125 3.245 16 3.993 16 5v4.207a5.5 5.5 0 0 0-1-.185V6.698a5 5 0 0 1-.904.525C13.022 7.711 11.573 8 10 8s-3.022-.289-4.096-.777A5 5 0 0 1 5 6.698V15c0 .374.356.875 1.318 1.313.831.378 1.98.635 3.278.68q.276.54.66 1.005L10 18c-1.573 0-3.022-.289-4.096-.777C4.875 16.755 4 16.007 4 15zm1 0c0 .374.356.875 1.318 1.313C7.234 6.729 8.536 7 10 7s2.766-.27 3.682-.687C14.644 5.875 15 5.373 15 5c0-.374-.356-.875-1.318-1.313C12.766 3.271 11.464 3 10 3s-2.766.27-3.682.687C5.356 4.125 5 4.627 5 5"/><path d="M19 14.5a4.5 4.5 0 1 1-9 0 4.5 4.5 0 0 1 9 0m-4-2a.5.5 0 0 0-1 0V14h-1.5a.5.5 0 0 0 0 1H14v1.5a.5.5 0 0 0 1 0V15h1.5a.5.5 0 0 0 0-1H15z"/></svg>