<svg xmlns="http://www.w3.org/2000/svg" width="20" height="20" fill="currentColor"><path fill-rule="evenodd" d="M5.9 2.779C4.875 3.247 4 3.995 4 5.002v4.207a5.5 5.5 0 0 1 1-.185V6.702q.422.309.9.523c1.298.54 2.694.804 4.1.777a10.2 10.2 0 0 0 4.1-.775q.478-.215.9-.525v8.3c0 .374-.356.875-1.318 1.313a9.2 9.2 0 0 1-3.281.686 5.5 5.5 0 0 1-.66 1.003q.13 0 .259-.002a10.2 10.2 0 0 0 4.1-.777c1.025-.468 1.9-1.216 1.9-2.223v-10c0-1.007-.875-1.755-1.9-2.223a10.2 10.2 0 0 0-4.1-.777 10.2 10.2 0 0 0-4.1.777m.418 3.536C5.356 5.877 5 5.375 5 5.002c0-.374.356-.875 1.318-1.313A9.2 9.2 0 0 1 10 3.002a9.2 9.2 0 0 1 3.682.687c.962.438 1.318.939 1.318 1.313s-.356.875-1.318 1.313A9.2 9.2 0 0 1 10 7.002a9.2 9.2 0 0 1-3.682-.687" clip-rule="evenodd"/><path fill-rule="evenodd" d="M5.5 10.002a4.5 4.5 0 1 1 0 9 4.5 4.5 0 0 1 0-9m2.353 4.854-2 2a.5.5 0 1 1-.707-.708l1.147-1.146H3.5a.5.5 0 0 1 0-1h2.793l-1.147-1.147a.5.5 0 1 1 .708-.707l2 2A.5.5 0 0 1 8 14.5v.006a.5.5 0 0 1-.144.348l-.003.003Z" clip-rule="evenodd"/></svg>