<svg xmlns="http://www.w3.org/2000/svg" width="20" height="20" fill="currentColor"><path d="M4 5c0-1.007.875-1.755 1.904-2.222C6.978 2.289 8.427 2 10 2s3.022.29 4.096.778C15.125 3.245 16 3.993 16 5v4.208a5.5 5.5 0 0 0-1-.185V6.699a5 5 0 0 1-.904.524C13.022 7.712 11.573 8 10 8s-3.022-.288-4.096-.777A5 5 0 0 1 5 6.7V15c0 .373.356.875 1.318 1.312.831.378 1.98.636 3.278.68q.276.541.66 1.005-.129.004-.256.003c-1.573 0-3.022-.288-4.096-.777C4.875 16.756 4 16.008 4 15.001zm1 0c0 .374.356.876 1.318 1.313C7.234 6.73 8.536 7 10 7s2.766-.27 3.682-.687C14.644 5.876 15 5.374 15 5c0-.373-.356-.875-1.318-1.312C12.766 3.27 11.464 3 10 3s-2.766.271-3.682.688C5.356 4.125 5 4.627 5 5"/><path d="M19 14.5a4.5 4.5 0 1 1-9 0 4.5 4.5 0 0 1 9 0m-2.146-1.853a.5.5 0 0 0-.708 0L13.5 15.293l-.646-.646a.5.5 0 0 0-.708.707l1 1a.5.5 0 0 0 .708 0l3-3a.5.5 0 0 0 0-.707"/></svg>