<svg xmlns="http://www.w3.org/2000/svg" width="20" height="20" fill="currentColor"><path d="M4 5c0-1.007.875-1.755 1.904-2.222C6.978 2.289 8.427 2 10 2s3.022.29 4.096.778C15.125 3.245 16 3.993 16 5v3.81a4 4 0 0 0-1-.126V6.7a5 5 0 0 1-.904.524C13.022 7.712 11.573 8 10 8s-3.022-.288-4.096-.777A5 5 0 0 1 5 6.7V15c0 .373.356.875 1.318 1.312.916.417 2.218.688 3.682.688.714 0 1.39-.065 2-.18v1.016A12 12 0 0 1 10 18c-1.573 0-3.022-.288-4.096-.777C4.875 16.756 4 16.008 4 15.001zm1 0c0 .374.356.876 1.318 1.313C7.234 6.73 8.536 7 10 7s2.766-.27 3.682-.687C14.644 5.876 15 5.374 15 5c0-.373-.356-.875-1.318-1.312C12.766 3.27 11.464 3 10 3s-2.766.271-3.682.688C5.356 4.125 5 4.627 5 5"/><path d="M15 15.684a3 3 0 1 0 0-6 3 3 0 0 0 0 6m0 1a4 4 0 0 0 2-.535v2.285a.25.25 0 0 1-.378.215L15 17.684l-1.622.965a.25.25 0 0 1-.378-.215V16.15a4 4 0 0 0 2 .535Z"/></svg>