<svg xmlns="http://www.w3.org/2000/svg" width="20" height="20" fill="currentColor"><path d="M14.496 1.997a.5.5 0 0 1 .5.5v2.467l2.349-.763a.5.5 0 1 1 .309.951l-2.348.763 1.45 1.996a.5.5 0 0 1-.809.588l-1.45-1.995-1.449 1.995a.5.5 0 1 1-.809-.588l1.451-1.997-2.344-.762a.5.5 0 0 1 .309-.951l2.341.76V2.498a.5.5 0 0 1 .5-.5Z"/><path d="M10 2c.536 0 1.058.034 1.555.097-.311.27-.585.582-.813.927Q10.378 3 10 3c-1.464 0-2.766.27-3.682.687C5.356 4.125 5 4.627 5 5c0 .374.356.875 1.318 1.313C7.234 6.729 8.536 7 10 7q.128 0 .255-.003.186.525.488.981Q10.378 8 10 8c-1.573 0-3.022-.289-4.096-.777A5 5 0 0 1 5 6.698V10c0 .246.225.737 1.205 1.227.92.46 2.26.773 3.795.773s2.876-.313 3.795-.773C14.775 10.737 15 10.246 15 10v-.027a4.5 4.5 0 0 0 1-.23V15c0 1.007-.875 1.755-1.904 2.223C13.022 17.71 11.573 18 10 18s-3.022-.289-4.096-.777C4.875 16.755 4 16.007 4 15V5c0-1.007.875-1.755 1.904-2.223C6.978 2.289 8.427 2 10 2m-5 9.659V15c0 .374.356.875 1.318 1.313.916.416 2.218.687 3.682.687s2.766-.27 3.682-.687C14.644 15.875 15 15.373 15 15v-3.341C13.925 12.467 12.087 13 10 13s-3.925-.533-5-1.341"/></svg>