<svg xmlns="http://www.w3.org/2000/svg" width="20" height="20" fill="currentColor"><path d="M6 2.001a2 2 0 0 0-2 2v7h1v-7a1 1 0 0 1 1-1h4v3.5a1.5 1.5 0 0 0 1.5 1.5H15v8a1 1 0 0 1-1 1h-1v1h1a2 2 0 0 0 2-2V7.415a1.5 1.5 0 0 0-.44-1.06L11.647 2.44a1.5 1.5 0 0 0-1.06-.439zm8.793 5H11.5a.5.5 0 0 1-.5-.5V3.208z"/><path d="M8.5 9.001a.5.5 0 0 0-.5.5v1.31a.5.5 0 0 0-.088.07L6 12.795V12.5a.5.5 0 0 0-.5-.5h-3a.5.5 0 0 0-.5.5v3a.5.5 0 0 0 .5.5h3a.5.5 0 0 0 .5-.5v-.293l1.912 1.912a.5.5 0 0 0 .088.07V18.5a.5.5 0 0 0 .5.5h3a.5.5 0 0 0 .5-.5v-3a.5.5 0 0 0-.5-.5h-3a.5.5 0 0 0-.5.5v.293L6.207 14 8 12.208v.293a.5.5 0 0 0 .5.5h3a.5.5 0 0 0 .5-.5v-3a.5.5 0 0 0-.5-.5zm-5.5 4h2v2H3zm6 5v-2h2v2zm0-8h2v2H9z"/></svg>