<svg xmlns="http://www.w3.org/2000/svg" width="20" height="20" fill="currentColor"><path d="M9.196 12.999c.54-.051 1.08.104 1.51.436a.5.5 0 0 1-.611.792 1.14 1.14 0 0 0-.834-.229l-.059.007-.058-.007a.58.58 0 0 0-.644.519c.005.083.05.165.213.265.183.112.416.18.623.239l.059.015c.185.051.511.14.792.312.34.208.671.571.671 1.153 0 .301-.068.562-.19.778l-.02.036-.051.078-.034.044a1.3 1.3 0 0 1-.143.156l-.03.028a1 1 0 0 1-.12.093 1.4 1.4 0 0 1-.182.102 2 2 0 0 1-.867.185A2 2 0 0 1 8.91 18l-.005-.001a2.2 2.2 0 0 1-.635-.14l-.013-.007-.11-.047-.082-.038a2 2 0 0 1-.173-.101l-.061-.038q-.075-.052-.148-.11a.5.5 0 0 1-.07-.07l-.007-.009-.04-.06-.014-.026-.03-.075q-.005-.015-.007-.03l-.01-.049a.499.499 0 0 1 .81-.456c.176.143.387.232.609.257h.006q.112.012.226.002l.022-.001H9.2l.164-.008a.76.76 0 0 0 .342-.104c.067-.046.152-.133.152-.388 0-.134-.053-.215-.192-.3-.152-.093-.339-.145-.54-.201l-.062-.018-.021-.005c-.192-.054-.544-.153-.85-.34-.329-.2-.693-.558-.693-1.136v-.017l.001-.017a1.58 1.58 0 0 1 1.695-1.468"/><path d="M10 2a3 3 0 0 1 3 3v1h1a3 3 0 0 1 3 3v3c-.384 0-.735.145-1 .383V9a2 2 0 0 0-2-2H6a2 2 0 0 0-2 2v6a2 2 0 0 0 2 2h.507a1.5 1.5 0 0 0 .272 1H6a3 3 0 0 1-3-3V9a3 3 0 0 1 3-3h1V5a3 3 0 0 1 3-3m0 1a2 2 0 0 0-2 2v1h4V5a2 2 0 0 0-2-2"/><path d="M13.5 13a2 2 0 0 1 2 2v1q0 .18-.033.355l-.001.006q-.014.07-.032.139l-.02.075a2 2 0 0 1-.045.132l-.02.055.45.338a.5.5 0 1 1-.6.8l-.146-.11-.304-.229a2 2 0 0 1-2.818-.323l-.051-.07A2 2 0 0 1 11.5 16v-1a2 2 0 0 1 2-2m0 1a1 1 0 0 0-1 1v1a1 1 0 0 0 1.393.92l-.693-.52a.5.5 0 0 1 .6-.8l.693.52A1 1 0 0 0 14.5 16v-1a1 1 0 0 0-1-1m3.5-1 .1.01a.5.5 0 0 1 .4.49V17H19a.5.5 0 0 1 0 1h-2a.5.5 0 0 1-.5-.5v-4a.5.5 0 0 1 .5-.5"/></svg>