<svg xmlns="http://www.w3.org/2000/svg" width="32" height="32" fill="none"><path fill="#000" d="M7.5 2A3.5 3.5 0 0 0 4 5.5v4A3.5 3.5 0 0 0 7.5 13h17A3.5 3.5 0 0 0 28 9.5v-4A3.5 3.5 0 0 0 24.5 2zM6 5.5A1.5 1.5 0 0 1 7.5 4h17A1.5 1.5 0 0 1 26 5.5v4a1.5 1.5 0 0 1-1.5 1.5h-17A1.5 1.5 0 0 1 6 9.5zm0 14A1.5 1.5 0 0 1 7.5 18H9a1 1 0 1 0 0-2H7.5A3.5 3.5 0 0 0 4 19.5V21a1 1 0 1 0 2 0zM23 16a1 1 0 1 0 0 2h1.5a1.5 1.5 0 0 1 1.5 1.5V21a1 1 0 1 0 2 0v-1.5a3.5 3.5 0 0 0-3.5-3.5zM6 25a1 1 0 1 0-2 0v1.5A3.5 3.5 0 0 0 7.5 30H9a1 1 0 1 0 0-2H7.5A1.5 1.5 0 0 1 6 26.5zm22 0a1 1 0 1 0-2 0v1.5a1.5 1.5 0 0 1-1.5 1.5H23a1 1 0 1 0 0 2h1.5a3.5 3.5 0 0 0 3.5-3.5zm-14.875-8a1 1 0 0 1 1-1h4.125a1 1 0 1 1 0 2h-4.125a1 1 0 0 1-1-1m1 11a1 1 0 1 0 0 2h4.125a1 1 0 1 0 0-2z"/></svg>