<svg xmlns="http://www.w3.org/2000/svg" width="28" height="28" fill="currentColor"><path d="M3 6.75A3.75 3.75 0 0 1 6.75 3h14.5A3.75 3.75 0 0 1 25 6.75v9.806a2.3 2.3 0 0 0-.514-.056c-.348 0-.683.078-.986.227V6.75a2.25 2.25 0 0 0-2.25-2.25H6.75A2.25 2.25 0 0 0 4.5 6.75v14.5a2.25 2.25 0 0 0 2.25 2.25h7.313a2.27 2.27 0 0 0 .166 1.5H6.75A3.75 3.75 0 0 1 3 21.25z"/><path d="M18.5 16.5c-1.24 0-2.25 1.01-2.25 2.25v.416A7.4 7.4 0 0 1 14 19.5c-2.485 0-4.5-1.12-4.5-2.5v-3.946c.255.23.54.425.832.588.99.55 2.288.858 3.668.858s2.678-.309 3.668-.858c.292-.162.577-.359.832-.588z"/><path d="M9.5 11c0-1.38 2.015-2.5 4.5-2.5s4.5 1.12 4.5 2.5-2.015 2.5-4.5 2.5-4.5-1.12-4.5-2.5m15.531 7.22a.75.75 0 0 0-.536-.22.75.75 0 0 0-.537.22l-2.234 2.234a.75.75 0 0 0 1.06 1.06l.955-.954v5.69a.75.75 0 1 0 1.5 0v-5.701l.966.966a.75.75 0 0 0 1.06-1.061zm-7.281.53v5.701l-.966-.966a.75.75 0 1 0-1.06 1.061l2.234 2.234a.75.75 0 0 0 .537.22.75.75 0 0 0 .536-.22l2.235-2.234a.75.75 0 0 0-1.061-1.06l-.955.954v-5.69a.75.75 0 0 0-1.5 0"/></svg>