<svg xmlns="http://www.w3.org/2000/svg" width="28" height="28" fill="currentColor"><path d="M17.668 13.642c-.99.55-2.288.858-3.668.858s-2.678-.309-3.668-.858a4.6 4.6 0 0 1-.832-.588V17c0 1.38 2.015 2.5 4.5 2.5s4.5-1.12 4.5-2.5v-3.946c-.255.23-.54.425-.832.588"/><path d="M14 8.5c-2.485 0-4.5 1.12-4.5 2.5s2.015 2.5 4.5 2.5 4.5-1.12 4.5-2.5-2.015-2.5-4.5-2.5"/><path d="M6.75 3A3.75 3.75 0 0 0 3 6.75v14.5A3.75 3.75 0 0 0 6.75 25h14.5A3.75 3.75 0 0 0 25 21.25V6.75A3.75 3.75 0 0 0 21.25 3zM4.5 6.75A2.25 2.25 0 0 1 6.75 4.5h14.5a2.25 2.25 0 0 1 2.25 2.25v14.5a2.25 2.25 0 0 1-2.25 2.25H6.75a2.25 2.25 0 0 1-2.25-2.25z"/></svg>