<svg xmlns="http://www.w3.org/2000/svg" width="20" height="20" fill="currentColor"><path d="M17 5.5A2.5 2.5 0 0 0 14.5 3h-9A2.5 2.5 0 0 0 3 5.5v9A2.5 2.5 0 0 0 5.5 17h5.196a3.5 3.5 0 0 1-1.069-1H8v-3h1.145c.107-.361.272-.698.482-1H8V8h4v2.535q.245-.035.5-.035h.5V8h3v2.5h.5q.255 0 .5.035zm-13 9V13h3v3H5.5l-.144-.007A1.5 1.5 0 0 1 4 14.5M12 7H8V4h4zm1-3h1.5l.145.007A1.5 1.5 0 0 1 16 5.5V7h-3zM4 7V5.5l.007-.144A1.5 1.5 0 0 1 5.5 4H7v3zm3 1v4H4V8z"/><path d="M12.5 11.5a2.5 2.5 0 0 0 0 5h.5a.5.5 0 0 0 0-1h-.5a1.5 1.5 0 0 1 0-3h.5a.5.5 0 0 0 0-1zm3.5 0a.5.5 0 0 0 0 1h.5a1.5 1.5 0 0 1 0 3H16a.5.5 0 0 0 0 1h.5a2.5 2.5 0 0 0 0-5z"/><path d="M12 14a.5.5 0 0 1 .5-.5h4a.5.5 0 0 1 0 1h-4a.5.5 0 0 1-.5-.5"/></svg>