<svg xmlns="http://www.w3.org/2000/svg" width="20" height="20" fill="currentColor"><g clip-path="url(#i1aaf7f-a)"><path d="M17 5.5A2.5 2.5 0 0 0 14.5 3h-9A2.5 2.5 0 0 0 3 5.5v9a2.5 2.5 0 0 0 2.2 2.482A3 3 0 0 1 5.035 16v-.073A1.5 1.5 0 0 1 4 14.5V13h1.206a3 3 0 0 1 .593-1H4V8h3v3.184A3 3 0 0 1 8 11V8h4v3h1V8h3v3.796a3 3 0 0 1 1-.612zM12 7H8V4h4zm1-3h1.5l.145.007A1.5 1.5 0 0 1 16 5.5V7h-3zM4 7V5.5l.007-.144A1.5 1.5 0 0 1 5.5 4H7v3z"/><path d="M7.035 14a1 1 0 0 1 2 0 .5.5 0 0 0 1 0 2 2 0 0 0-4 0v2a2 2 0 0 0 4 0 .5.5 0 0 0-1 0 1 1 0 0 1-2 0zm10 0a1 1 0 0 1 2 0 .5.5 0 1 0 1 0 2 2 0 0 0-4 0v2a2 2 0 0 0 4 0 .5.5 0 0 0-1 0 1 1 0 0 1-2 0zm-6-1.5a.5.5 0 0 1 .5-.5h1.5a2 2 0 0 1 2 2v2a2 2 0 0 1-2 2h-1.5a.5.5 0 0 1-.5-.5zm1 .5v4h1a1 1 0 0 0 1-1v-2a1 1 0 0 0-1-1z"/></g><defs><clipPath id="i1aaf7f-a"><path d="M0 0h20v20H0z"/></clipPath></defs></svg>