<svg xmlns="http://www.w3.org/2000/svg" width="20" height="20" fill="currentColor"><path d="M3.5 3a2.5 2.5 0 0 0 0 5H4a.5.5 0 0 0 0-1h-.5a1.5 1.5 0 1 1 0-3H4a.5.5 0 0 0 0-1zM7 3a.5.5 0 0 0 0 1h.5a1.5 1.5 0 1 1 0 3H7a.5.5 0 0 0 0 1h.5a2.5 2.5 0 0 0 0-5z"/><path d="M3 5.5a.5.5 0 0 1 .5-.5h4a.5.5 0 0 1 0 1h-4a.5.5 0 0 1-.5-.5"/><path d="M3 15V8.965Q3.245 9 3.5 9H4v3.5h3V9h.5q.255 0 .5-.035V12.5h4v-4H9.304a3.5 3.5 0 0 0 1.069-1H12v-3h-1.145a3.5 3.5 0 0 0-.482-1H14.5A2.5 2.5 0 0 1 17 6v7.579l-1-1.732V8.5h-3v3.345l-1 1.73V13.5H8v3h2.31l-.578 1H5.5A2.5 2.5 0 0 1 3 15m1 0a1.5 1.5 0 0 0 1.356 1.493l.144.007H7v-3H4zm9-10.5v3h3V6a1.5 1.5 0 0 0-1.355-1.493L14.5 4.5z"/><path d="m14.93 12 3.9 6.75h.004a.5.5 0 0 1-.433.75h-7.8a.5.5 0 0 1-.436-.75l3.9-6.75a.522.522 0 0 1 .866 0Z"/></svg>