<svg xmlns="http://www.w3.org/2000/svg" width="20" height="20" fill="currentColor"><path d="M14.5 3A2.5 2.5 0 0 1 17 5.5V11h-1V8h-3v3.05a2.5 2.5 0 0 0-1 .45V8H8v4h3.5a2.5 2.5 0 0 0-.45 1H8v3h3v1H5.5A2.5 2.5 0 0 1 3 14.5v-9A2.5 2.5 0 0 1 5.5 3zM12 4H8v3h4zm2.5 0H13v3h3V5.5a1.5 1.5 0 0 0-1.355-1.493zm-9 12H7V4H5.5a1.5 1.5 0 0 0-1.493 1.356L4 5.5v9a1.5 1.5 0 0 0 1.356 1.493z"/><path d="M13 13.5a.5.5 0 0 1 .5-.5h1a.5.5 0 0 0 0-1h-1a1.5 1.5 0 0 0-1.5 1.5v4a1.5 1.5 0 0 0 1.5 1.5h1a.5.5 0 0 0 0-1h-1a.5.5 0 0 1-.5-.5zm6 0a.5.5 0 0 0-.5-.5h-1a.5.5 0 0 1 0-1h1a1.5 1.5 0 0 1 1.5 1.5v4a1.5 1.5 0 0 1-1.5 1.5h-1a.5.5 0 0 1 0-1h1a.5.5 0 0 0 .5-.5z"/></svg>