<svg xmlns="http://www.w3.org/2000/svg" width="20" height="20" fill="currentColor"><path d="M3.2 3a2.5 2.5 0 0 0 0 5h.5a.5.5 0 1 0 0-1h-.5a1.5 1.5 0 0 1 0-3h.5a.5.5 0 1 0 0-1zm3.5 0a.5.5 0 0 0 0 1h.5a1.5 1.5 0 1 1 0 3h-.5a.5.5 0 0 0 0 1h.5a2.5 2.5 0 1 0 0-5z"/><path d="M2.7 5.5a.5.5 0 0 1 .5-.5h4a.5.5 0 1 1 0 1h-4a.5.5 0 0 1-.5-.5"/><path d="M2.7 14.5V8.965Q2.945 9 3.2 9h.5v3h3V9h.5q.255 0 .5-.035V12h4V8H9.65a3.5 3.5 0 0 0 .713-1H11.7V4h-1.337a3.5 3.5 0 0 0-.714-1h4.55a2.5 2.5 0 0 1 2.5 2.5V9h-1V8h-3v2.404L11.619 13H7.7v3h3.086c.203.567.74 1 1.415 1H5.2a2.5 2.5 0 0 1-2.5-2.5m1 0a1.5 1.5 0 0 0 1.355 1.493L5.2 16h1.5v-3h-3zm9-10.5v3h3V5.5a1.5 1.5 0 0 0-1.356-1.493L14.2 4z"/><path d="M13.952 16h-1.75a.5.5 0 0 1-.462-.692l2.083-5a.5.5 0 0 1 .462-.308h3.473a.5.5 0 0 1 .474.658L17.452 13h1.097a.75.75 0 0 1 .512 1.298l-4.873 4.548c-.364.34-.947-.004-.826-.487z"/></svg>