<svg xmlns="http://www.w3.org/2000/svg" width="32" height="32" fill="currentColor"><path d="M10 4H9a5 5 0 0 0-5 5v1h6zm10 0h-8v6h8zm-8 8h6.857a9 9 0 0 0-.774.38c-1.54.85-3.072 2.344-3.083 4.462V20h-3zm3 10v4.136c0 .687.16 1.309.429 1.864H12v-6zm7-18v6h6V9a5 5 0 0 0-5-5zM4 12h6v8H4zm0 10h6v6H9a5 5 0 0 1-5-5z"/><path d="M26.144 13.185c.624.11 1.21.268 1.743.465 1.876.694 3.111 1.874 3.111 3.214 0 2.134-3.134 3.864-6.999 3.864S17 18.998 17 16.864 20.134 13 23.999 13c.748 0 1.47.065 2.145.185"/><path d="M23.999 22.273c2.146 0 4.166-.477 5.704-1.326a7 7 0 0 0 1.297-.91l-.002 6.1c0 2.133-3.134 3.863-6.999 3.863S17 28.27 17 26.136v-6.098c.396.354.84.658 1.295.909 1.538.85 3.558 1.326 5.704 1.326"/></svg>