<svg xmlns="http://www.w3.org/2000/svg" width="20" height="20" fill="currentColor"><path d="M17 5.5A2.5 2.5 0 0 0 14.5 3h-9A2.5 2.5 0 0 0 3 5.5v9A2.5 2.5 0 0 0 5.5 17H9c0-.382.14-.729.386-1H8v-3h4v.383l.021-.021a4 4 0 0 1-.021-.425c0-.542.109-1.065.332-1.555q.258-.566.668-1.028V8h3v1q.513 0 1 .123zm-13 9V13h3v3H5.5l-.144-.007A1.5 1.5 0 0 1 4 14.5M12 8v4H8V8zm0-1H8V4h4zm1-3h1.5l.145.007A1.5 1.5 0 0 1 16 5.5V7h-3zM4 7V5.5l.007-.144A1.5 1.5 0 0 1 5.5 4H7v3zm3 1v4H4V8z"/><path d="M10.5 19a.48.48 0 0 1-.352-.148A.48.48 0 0 1 10 18.5V17a.48.48 0 0 1 .148-.352l2.938-2.937a3.7 3.7 0 0 1-.086-.774q0-.609.242-1.14t.656-.938q.415-.405.954-.625A3.2 3.2 0 0 1 16 10q.625 0 1.172.234t.953.641a3.003 3.003 0 0 1 .016 4.227 2.87 2.87 0 0 1-2.078.898q-.274 0-.54-.04a2.7 2.7 0 0 1-.523-.132v.195q0 .11.008.227 0 .141-.016.273a.7.7 0 0 1-.07.235.5.5 0 0 1-.156.172.46.46 0 0 1-.266.07H14q0 .367-.016.563a.45.45 0 0 1-.117.296.47.47 0 0 1-.305.118q-.202.015-.562.023v.266q0 .132-.016.257a.9.9 0 0 1-.062.235.37.37 0 0 1-.149.172.6.6 0 0 1-.273.07zm7-6.75a.72.72 0 0 0-.219-.531.72.72 0 0 0-.531-.219.72.72 0 0 0-.531.219.72.72 0 0 0-.219.531q0 .312.219.531a.72.72 0 0 0 .531.219.72.72 0 0 0 .531-.219.72.72 0 0 0 .219-.531"/></svg>