<svg xmlns="http://www.w3.org/2000/svg" width="20" height="20" fill="currentColor"><path d="M14.5 3A2.5 2.5 0 0 1 17 5.5v4.1a5.5 5.5 0 0 0-1-.393V8h-3v1.207q-.524.149-1 .393V8H8v4h1.6a5.5 5.5 0 0 0-.393 1H8v3h1.207q.149.524.393 1H5.5A2.5 2.5 0 0 1 3 14.5v-9A2.5 2.5 0 0 1 5.5 3zM12 4H8v3h4zm2.5 0H13v3h3V5.5a1.5 1.5 0 0 0-1.355-1.493zm-9 12H7V4H5.5a1.5 1.5 0 0 0-1.493 1.356L4 5.5v9a1.5 1.5 0 0 0 1.356 1.493z"/><path d="M19 14.5a4.5 4.5 0 1 1-9 0 4.5 4.5 0 0 1 9 0m-4.5 1.88a.625.625 0 1 0 0 1.25.625.625 0 0 0 0-1.25m0-4.877c-1.048 0-1.864.818-1.853 1.955a.5.5 0 1 0 1-.01c-.006-.579.36-.945.853-.945.472 0 .853.392.853.95 0 .202-.07.315-.36.544l-.277.215c-.506.404-.716.717-.716 1.288a.5.5 0 0 0 .992.09l.011-.156c.017-.148.1-.254.346-.448l.277-.215c.513-.41.727-.732.727-1.318 0-1.104-.822-1.95-1.853-1.95"/></svg>