<svg xmlns="http://www.w3.org/2000/svg" width="20" height="20" fill="none"><path fill="#000" d="M14.498 11.003a.53.53 0 0 1 .443.24l3.988 6.982h.003a.52.52 0 0 1-.188.706.5.5 0 0 1-.255.069h-7.974a.51.51 0 0 1-.446-.257.52.52 0 0 1 0-.518l3.987-6.983a.53.53 0 0 1 .442-.24M7 17H5.5A2.5 2.5 0 0 1 3 14.5V13h4zM9.616 17H8v-4h3.9zM7 12H3v-2h4zM12 12H8V9.825A3 3 0 0 0 9.826 8H12z"/><path fill="#000" d="M17 12h-.475l-.715-1.253-.034-.054-.112-.15a1.5 1.5 0 0 0-.277-.255l-.16-.1-.173-.08a1.53 1.53 0 0 0-1.112 0l-.171.08a1.54 1.54 0 0 0-.551.505l-.033.054-.187.328V8h4zM7 1a2 2 0 0 1 2 2v4a2 2 0 0 1-2 2H3a2 2 0 0 1-2-2V3a2 2 0 0 1 2-2zM3.5 3a.5.5 0 0 0 0 1h1.793L3.146 6.146a.5.5 0 1 0 .708.708L6 4.707V6.5a.5.5 0 0 0 1 0v-3a.5.5 0 0 0-.5-.5zM12 7h-2V3h2zM14.5 3A2.5 2.5 0 0 1 17 5.5V7h-4V3z"/></svg>