<svg xmlns="http://www.w3.org/2000/svg" width="20" height="20" fill="currentColor"><path d="M17 5.5A2.5 2.5 0 0 0 14.5 3h-9A2.5 2.5 0 0 0 3 5.5v9A2.5 2.5 0 0 0 5.5 17h4.224l-1-1H8v-.724l-.561-.561A1.5 1.5 0 0 1 7 13.708V16H5.5l-.144-.007A1.5 1.5 0 0 1 4 14.5V13h3v.6a1.5 1.5 0 0 1 .88-1.312L8.516 12H8V8h4v1.911a4 4 0 0 1 1-.153V8h3v.878l1-1zM12 7H8V4h4zm1-3h1.5l.145.007A1.5 1.5 0 0 1 16 5.5V7h-3zM4 7V5.5l.007-.144A1.5 1.5 0 0 1 5.5 4H7v3zm3 1v4H4V8z"/><path d="M18.854 8.146a.5.5 0 0 1 0 .707h.002l-3.218 3.22a3.1 3.1 0 0 1 .58 1.801c0 .814-.316 1.555-.832 2.104l-.16.168c-.311.328-.558.588-.705.91l-.714 1.643a.5.5 0 0 1-.812.154l-4.846-4.846a.5.5 0 0 1 .147-.809l1.64-.744c.32-.145.578-.39.904-.699l.009-.008.168-.159a3.06 3.06 0 0 1 2.103-.832c.677 0 1.305.225 1.816.603l3.21-3.213a.5.5 0 0 1 .708 0M11.7 12.317l-.144.137-.075.072 2.946 3.007.047-.049.044-.046.138-.145c.349-.372.56-.87.56-1.419 0-1.15-.956-2.119-2.096-2.119l-.001.001a2.07 2.07 0 0 0-1.42.561Zm-.993.85a3 3 0 0 1-.36.2v-.002l-.982.446 3.816 3.817.423-.973.003-.007q.08-.176.183-.335z"/></svg>