<svg xmlns="http://www.w3.org/2000/svg" width="20" height="20" fill="currentColor"><path fill-rule="evenodd" d="M14.5 3A2.5 2.5 0 0 1 17 5.5V8h-4.502a1.5 1.5 0 0 0-.498.086V8H8v4h4v-.842L13.731 13H13v1.778l-1 1.064V13H8v3h3.851l-.444.473-.001.001a1.5 1.5 0 0 0-.32.526H5.5A2.5 2.5 0 0 1 3 14.5v-9A2.5 2.5 0 0 1 5.5 3zM12 4H8v3h4zm2.5 0H13v3h3V5.5a1.5 1.5 0 0 0-1.355-1.493zm-9 12H7V4H5.5a1.5 1.5 0 0 0-1.493 1.356L4 5.5v9a1.5 1.5 0 0 0 1.356 1.493z" clip-rule="evenodd"/><path d="M12.5 18h6a.5.5 0 0 0 0-1h-4.845l2.968-3.158a.5.5 0 0 0 0-.684L13.655 10H18.5a.5.5 0 0 0 0-1h-6a.5.5 0 0 0-.364.842l3.438 3.658-3.438 3.658A.5.5 0 0 0 12.5 18"/></svg>