<svg xmlns="http://www.w3.org/2000/svg" width="20" height="20" fill="none"><path fill="#000" d="M14.498 11.003a.53.53 0 0 1 .443.24l3.988 6.982h.003a.52.52 0 0 1-.188.706.5.5 0 0 1-.255.069h-7.974a.51.51 0 0 1-.446-.257.52.52 0 0 1 0-.518l3.987-6.983a.53.53 0 0 1 .442-.24"/><path fill="#000" d="M14.5 3A2.5 2.5 0 0 1 17 5.5v7.331l-1-1.75V8h-3v3.075L11.9 13H8v3h2.188l-.572 1H5.5A2.5 2.5 0 0 1 3 14.5V10h1v2h3v-2a3 3 0 0 0 1-.175V12h4V8H9.826A3 3 0 0 0 10 7h2V4h-2V3zM4 14.5a1.5 1.5 0 0 0 1.355 1.493L5.5 16H7v-3H4zM13 7h3V5.5a1.5 1.5 0 0 0-1.355-1.493L14.5 4H13z"/><path fill="#000" d="M7 1a2 2 0 0 1 2 2v4a2 2 0 0 1-2 2H3a2 2 0 0 1-2-2V3a2 2 0 0 1 2-2zM3.5 3a.5.5 0 0 0 0 1h1.793L3.146 6.146a.5.5 0 1 0 .708.708L6 4.707V6.5a.5.5 0 0 0 1 0v-3a.5.5 0 0 0-.5-.5z"/></svg>