<svg xmlns="http://www.w3.org/2000/svg" width="20" height="20" fill="none"><path fill="#000" d="M18.059 10a.5.5 0 0 1 .474.658L17.753 13h1.097a.75.75 0 0 1 .511 1.298l-4.872 4.548c-.364.34-.947-.003-.826-.487l.59-2.359h-1.75a.5.5 0 0 1-.462-.692l2.083-5a.5.5 0 0 1 .462-.308z"/><path fill="#000" d="M14.501 3a2.5 2.5 0 0 1 2.5 2.5V9h-1V8h-3v2.403L11.919 13H8v3h3.086c.202.567.74 1 1.415 1H5.501A2.5 2.5 0 0 1 3 14.5V10h1.001v2h3v-2h.3c.241 0 .475-.032.7-.086V12h4V8H9.826A3 3 0 0 0 10 7h2.001V4H10V3zm-10.5 11.5a1.5 1.5 0 0 0 1.355 1.493l.145.007h1.5v-3h-3zm9-7.5h3V5.5c0-.78-.596-1.42-1.357-1.493L14.502 4h-1.5z"/><path fill="#000" d="M7 1a2 2 0 0 1 2 2v4a2 2 0 0 1-2 2H3a2 2 0 0 1-2-2V3a2 2 0 0 1 2-2zM3.5 3a.5.5 0 0 0 0 1h1.793L3.146 6.146a.5.5 0 1 0 .708.708L6 4.707V6.5a.5.5 0 0 0 1 0v-3a.5.5 0 0 0-.5-.5z"/></svg>