<svg xmlns="http://www.w3.org/2000/svg" width="20" height="20" fill="none"><path fill="#202020" d="M18.059 10a.5.5 0 0 1 .473.658L17.752 13h1.098a.75.75 0 0 1 .511 1.298l-4.873 4.548c-.364.34-.947-.003-.826-.487l.59-2.359h-1.75a.5.5 0 0 1-.462-.692l2.084-5a.5.5 0 0 1 .461-.308zM7 17H5.5A2.5 2.5 0 0 1 3 14.5V13h4zM11.117 14.923A1.5 1.5 0 0 0 12 16.915V17H8v-4h3.918zM7 12H3v-2h4zM12 12H8V9.825a3 3 0 0 0 1.765-1.658q.095-.08.184-.167H12zM17 9h-2.415a1.5 1.5 0 0 0-1.385.923l-.2.48V8h4zM7 1a2 2 0 0 1 2 2v4a2 2 0 0 1-2 2H3a2 2 0 0 1-2-2V3a2 2 0 0 1 2-2zM3.5 3a.5.5 0 0 0 0 1h1.793L3.146 6.146a.5.5 0 1 0 .708.708L6 4.707V6.5a.5.5 0 0 0 1 0v-3a.5.5 0 0 0-.5-.5zM12 7h-2V3h2zM14.5 3A2.5 2.5 0 0 1 17 5.5V7h-4V3z"/></svg>