<svg xmlns="http://www.w3.org/2000/svg" width="20" height="20" fill="currentColor"><path d="M15.501 10v3.379l-1-1V10h-2a1.5 1.5 0 0 1-.446-.068l-.986-.986A1.5 1.5 0 0 1 11 8.5v-5A1.5 1.5 0 0 1 12.5 2h5A1.5 1.5 0 0 1 19 3.5v5a1.5 1.5 0 0 1-1.5 1.5zm2.5-1.5V5h-6v3.5a.5.5 0 0 0 .5.5h5a.5.5 0 0 0 .5-.5m-6-5V4h6v-.5a.5.5 0 0 0-.5-.5h-5a.5.5 0 0 0-.5.5m2.647 11.854 2.5 2.5a.5.5 0 1 0 .707-.707l-15-15a.5.5 0 0 0-.708.707L13.794 14.5H10v-3A1.5 1.5 0 0 0 8.5 10h-5A1.5 1.5 0 0 0 2 11.5v5A1.5 1.5 0 0 0 3.5 18h5a1.5 1.5 0 0 0 1.5-1.5v-1h4c.232 0 .45-.053.647-.146ZM9 16.5a.5.5 0 0 1-.5.5h-5a.5.5 0 0 1-.5-.5V13h6zm-6-5a.5.5 0 0 1 .5-.5h5a.5.5 0 0 1 .5.5v.5H3z"/></svg>