<svg xmlns="http://www.w3.org/2000/svg" width="20" height="20" fill="currentColor"><path d="M12.5 2A1.5 1.5 0 0 0 11 3.5v5a1.5 1.5 0 0 0 1.5 1.5h2v4a.5.5 0 0 1-.5.5h-4v-3A1.5 1.5 0 0 0 8.5 10h-5A1.5 1.5 0 0 0 2 11.5v5A1.5 1.5 0 0 0 3.5 18h5a1.5 1.5 0 0 0 1.5-1.5v-1h4a1.5 1.5 0 0 0 1.5-1.5v-4h2A1.5 1.5 0 0 0 19 8.5v-5A1.5 1.5 0 0 0 17.5 2zM18 8.5a.5.5 0 0 1-.5.5h-5a.5.5 0 0 1-.5-.5V5h6zm-6-5a.5.5 0 0 1 .5-.5h5a.5.5 0 0 1 .5.5V4h-6zm-3 13a.5.5 0 0 1-.5.5h-5a.5.5 0 0 1-.5-.5V13h6zm-6-5a.5.5 0 0 1 .5-.5h5a.5.5 0 0 1 .5.5v.5H3z"/></svg>