<svg xmlns="http://www.w3.org/2000/svg" width="32" height="32" fill="currentColor"><path d="M12 13.438V5h-1a1 1 0 1 1 0-2h10a1 1 0 1 1 0 2h-1v8.438q0 .397.077.784a2.5 2.5 0 0 0-1.187 1.12L17.502 18H9.706l1.582-2.285A4 4 0 0 0 12 13.438M16.458 20H8.322l-2.744 3.963C4.104 26.092 5.628 29 8.218 29h9.801l.87-2.5h-2.111c-1.69 0-2.777-1.793-1.995-3.291z"/><path d="M21.12 15h8.38a.5.5 0 0 1 .428.76L26.748 21h2.491a.75.75 0 0 1 .52 1.29l-8.747 8.427c-.757.73-1.984-.055-1.638-1.05L21 25h-4.251a.75.75 0 0 1-.672-1.083l4.147-8.361A1 1 0 0 1 21.12 15"/></svg>