<svg xmlns="http://www.w3.org/2000/svg" width="32" height="32" fill="currentColor"><path d="M20 5v8.438q0 .397.077.784a2.5 2.5 0 0 0-1.187 1.12l-.329.63A6 6 0 0 1 18 13.438V5h-4v8.438a6 6 0 0 1-1.067 3.415L12.139 18h5.363l-1.044 2H11q-.118 0-.228-.026l-3.55 5.127A1.21 1.21 0 0 0 8.218 27h10.498l-.696 2H8.218c-2.59 0-4.114-2.908-2.64-5.037l5.71-8.248A4 4 0 0 0 12 13.438V5h-1a1 1 0 1 1 0-2h10a1 1 0 1 1 0 2z"/><path d="M21.12 15h8.38a.5.5 0 0 1 .428.76L26.748 21h2.491a.75.75 0 0 1 .52 1.29l-8.747 8.427c-.757.73-1.984-.055-1.638-1.05L21 25h-4.251a.75.75 0 0 1-.672-1.083l4.147-8.361A1 1 0 0 1 21.12 15"/></svg>