<svg xmlns="http://www.w3.org/2000/svg" width="20" height="20" fill="currentColor"><path d="M15 6.501v2.522a5.5 5.5 0 0 1 1 .185V8.001h1.5a.5.5 0 0 0 0-1H16v-.5a2.5 2.5 0 0 0-2.5-2.5H13v-1.5a.5.5 0 0 0-1 0v1.5h-1.5v-1.5a.5.5 0 0 0-1 0v1.5H8v-1.5a.5.5 0 1 0-1 0v1.5h-.5a2.5 2.5 0 0 0-2.5 2.5v.5H2.5a.5.5 0 1 0 0 1H4v1.5H2.5a.5.5 0 0 0 0 1H4v1.5H2.5a.5.5 0 1 0 0 1H4v.5a2.5 2.5 0 0 0 2.5 2.5H7v1.5a.5.5 0 0 0 1 0v-1.5h1.207a5.5 5.5 0 0 1-.185-1H6.5a1.5 1.5 0 0 1-1.5-1.5v-7a1.5 1.5 0 0 1 1.5-1.5h7a1.5 1.5 0 0 1 1.5 1.5"/><path d="m10.986 7.54-.416 1.461h1.529a.4.4 0 0 1 .4.375 5.51 5.51 0 0 0-3.276 3.57.41.41 0 0 1-.2-.487L9.454 11H7.9a.4.4 0 0 1-.307-.657l2.668-3.188c.29-.348.85-.051.726.385ZM12 10.76a4.5 4.5 0 1 1 5 7.483 4.5 4.5 0 0 1-5-7.484Zm4.917 5.424a.5.5 0 0 0 .003-.863l-1.42-.82 1.406-.832a.5.5 0 0 0-.506-.863l-1.4.822v-1.627a.5.5 0 0 0-1 0v1.634l-1.411-.812a.5.5 0 0 0-.5.866l1.42.82-1.415.829a.498.498 0 0 0-.05.83.5.5 0 0 0 .556.033l1.4-.827v1.627a.5.5 0 0 0 1 0v-1.634l1.417.817a.5.5 0 0 0 .5 0"/></svg>