<svg xmlns="http://www.w3.org/2000/svg" width="20" height="20" fill="currentColor"><path d="m13.878.282.348 1.071a2.2 2.2 0 0 0 1.398 1.397l1.072.348.021.006a.423.423 0 0 1 0 .798l-1.071.348a2.2 2.2 0 0 0-1.399 1.397l-.348 1.07a.423.423 0 0 1-.798 0l-.349-1.07a2.2 2.2 0 0 0-.532-.867 2.2 2.2 0 0 0-.866-.536l-1.071-.348a.423.423 0 0 1 0-.798l1.071-.348a2.2 2.2 0 0 0 1.377-1.397l.348-1.07a.423.423 0 0 1 .799 0Zm4.905 7.931-.766-.248a1.58 1.58 0 0 1-.998-.999l-.25-.764a.302.302 0 0 0-.57 0l-.248.764a1.58 1.58 0 0 1-.984.999l-.765.248a.303.303 0 0 0 0 .57l.765.249a1.58 1.58 0 0 1 1 1.002l.248.764a.302.302 0 0 0 .57 0l.249-.764a1.58 1.58 0 0 1 .999-.999l.765-.248a.303.303 0 0 0 0-.57z"/><path d="M6 2h4.43l-.48.154A1.43 1.43 0 0 0 9.089 3H6a1 1 0 0 0-1 1v12a1 1 0 0 0 1 1h8a1 1 0 0 0 1-1v-5.692l.015.04.26.8c.1.251.26.461.481.622a1.3 1.3 0 0 0 .244.13V16a2 2 0 0 1-2 2H6a2 2 0 0 1-2-2V4a2 2 0 0 1 2-2"/><path d="M7.5 6h4.306l.33 1H7.5a.5.5 0 0 1-.09-.992zm5.09 4.492a.5.5 0 0 0-.09-.992h-5l-.09.008a.5.5 0 0 0 .09.992h5zM13 13.5a.5.5 0 0 1-.41.492L12.5 14h-5a.5.5 0 0 1-.09-.992L7.5 13h5a.5.5 0 0 1 .5.5"/></svg>