<svg xmlns="http://www.w3.org/2000/svg" width="48" height="48" fill="none"><path fill="url(#ifeb0c4-i13d1d0-paint0_radial_62220_1872)" d="M30.533 4C35.744 4 40 8.208 40 13.398c0 6.373-5.417 9.223-12.457 8.519-2.126-.437-5.334-1.143-7.17-3.107.354-2.425.548-4.78.86-7.097C21.85 7.118 25.75 4 30.532 4"/><path fill="url(#ifeb0c4-i13d1d0-paint1_linear_62220_1872)" d="M30.533 4C35.744 4 40 8.208 40 13.398c0 6.373-5.417 9.223-12.457 8.519-2.126-.437-5.334-1.143-7.17-3.107.354-2.425.548-4.78.86-7.097C21.85 7.118 25.75 4 30.532 4"/><path fill="url(#ifeb0c4-i13d1d0-paint2_radial_62220_1872)" d="m24.209 30.105 1.44.176c3.807.615 6.35 3.165 6.351 6.855C32 40.926 29.044 44 25.36 44c-3.686 0-6.674-3.073-6.674-6.864 0-2.47-.88-5.254-3.626-6.142q.119.005.237.006c.834 0 1.578 0 2.394-.133 1.61-.262 3.367-.867 6.518-.762"/><path fill="url(#ifeb0c4-i13d1d0-paint3_radial_62220_1872)" d="m24.209 30.105 1.44.176c3.807.615 6.35 3.165 6.351 6.855C32 40.926 29.044 44 25.36 44c-3.686 0-6.674-3.073-6.674-6.864 0-2.47-.88-5.254-3.626-6.142q.119.005.237.006c.834 0 1.578 0 2.394-.133 1.61-.262 3.367-.867 6.518-.762"/><path fill="url(#ifeb0c4-i13d1d0-paint4_linear_62220_1872)" d="M15.311 17c1.961 0 3.74.514 5.042 1.789 1.851 1.998 5.116 2.703 7.249 3.14-3.477-.257-6.602.292-6.602 4.227 0 1.885 1.63 3.417 3.328 3.953-3.226-.124-5.007.493-6.636.758-.817.133-1.561.133-2.395.133-3.994 0-7.217-2.984-7.217-7 0-4.017 3.237-7 7.231-7"/><path fill="url(#ifeb0c4-i13d1d0-paint5_linear_62220_1872)" fill-opacity=".2" d="M15.311 17c1.961 0 3.74.514 5.042 1.789 1.851 1.998 5.116 2.703 7.249 3.14-3.477-.257-6.602.292-6.602 4.227 0 1.885 1.63 3.417 3.328 3.953-3.226-.124-5.007.493-6.636.758-.817.133-1.561.133-2.395.133-3.994 0-7.217-2.984-7.217-7 0-4.017 3.237-7 7.231-7"/><path fill="url(#ifeb0c4-i13d1d0-paint6_linear_62220_1872)" fill-opacity=".8" d="M15.311 17c1.961 0 3.74.514 5.042 1.789 1.851 1.998 5.116 2.703 7.249 3.14-3.477-.257-6.602.292-6.602 4.227 0 1.885 1.63 3.417 3.328 3.953-3.226-.124-5.007.493-6.636.758-.817.133-1.561.133-2.395.133-3.994 0-7.217-2.984-7.217-7 0-4.017 3.237-7 7.231-7"/><defs><radialGradient id="ifeb0c4-i13d1d0-paint0_radial_62220_1872" cx="0" cy="0" r="1" gradientTransform="rotate(131.145 16.745 10.018)scale(22.3109 84.2643)" gradientUnits="userSpaceOnUse"><stop offset=".034" stop-color="#FF6F47"/><stop offset=".207" stop-color="#FB5937"/><stop offset=".404" stop-color="#F83F54"/><stop offset=".721" stop-color="#CA2134"/></radialGradient><linearGradient id="ifeb0c4-i13d1d0-paint1_linear_62220_1872" x1="24.709" x2="19.582" y1="15.69" y2="20.616" gradientUnits="userSpaceOnUse"><stop stop-color="#560B14" stop-opacity="0"/><stop offset="1" stop-color="#560B14" stop-opacity=".9"/></linearGradient><radialGradient id="ifeb0c4-i13d1d0-paint2_radial_62220_1872" cx="0" cy="0" r="1" gradientTransform="matrix(-11.7799 11.74212 -15.70572 -15.75624 30.998 32.258)" gradientUnits="userSpaceOnUse"><stop offset=".019" stop-color="#E82C41"/><stop offset=".529" stop-color="#AA1D2D"/><stop offset=".889" stop-color="#70101B"/></radialGradient><radialGradient id="ifeb0c4-i13d1d0-paint3_radial_62220_1872" cx="0" cy="0" r="1" gradientTransform="matrix(2.49631 5.11607 -21.37871 10.43144 18.214 29.865)" gradientUnits="userSpaceOnUse"><stop offset=".045" stop-color="#560B14"/><stop offset="1" stop-color="#8B1321" stop-opacity="0"/></radialGradient><linearGradient id="ifeb0c4-i13d1d0-paint4_linear_62220_1872" x1="19.676" x2="11.487" y1="16.727" y2="37.145" gradientUnits="userSpaceOnUse"><stop stop-color="#FF6F47"/><stop offset=".718" stop-color="#E82C41"/></linearGradient><linearGradient id="ifeb0c4-i13d1d0-paint5_linear_62220_1872" x1="12.202" x2="23.811" y1="30.75" y2="24.097" gradientUnits="userSpaceOnUse"><stop offset=".364" stop-color="#FF6F47" stop-opacity="0"/><stop offset=".745" stop-color="#FF835C"/></linearGradient><linearGradient id="ifeb0c4-i13d1d0-paint6_linear_62220_1872" x1="22.777" x2="15.213" y1="11.322" y2="33.589" gradientUnits="userSpaceOnUse"><stop offset=".253" stop-color="#FFE4BE"/><stop offset="1" stop-color="#FFC470" stop-opacity="0"/></linearGradient></defs></svg>