<svg xmlns="http://www.w3.org/2000/svg" width="48" height="48" fill="currentColor"><path d="M30.533 4C35.744 4 40 8.208 40 13.398c0 6.27-5.242 9.127-12.115 8.548v.004c-1.654-.112-3.156.128-4.193.703-.955.531-1.557 1.357-1.557 2.72 0 .676.156 1.276.538 1.826.373.537 1.023 1.11 2.153 1.648l.866.154.001-.001c1.91.309 3.69 1.034 5.032 2.278 1.365 1.266 2.203 3.002 2.305 5.152.232 4.883-3.97 7.57-7.8 7.57-4.131 0-7.23-3.51-7.23-7.578 0-1.13-.063-2.156-.358-2.968-.246-.674-.633-1.163-1.34-1.44-.383.029-.77.043-1.172.043-4.98 0-8.13-4.531-8.13-8.797 0-4.403 3.36-8.291 8.216-8.291 2.386 0 3.854.924 5.321 1.816.245-1.728.479-3.46.695-5.072C21.85 7.118 25.751 4 30.533 4m-6.22 27.303a14 14 0 0 0-2.99-.06l-1.851.293c.213.336.385.694.52 1.064.458 1.26.508 2.678.508 3.822 0 2.849 2.137 5.078 4.73 5.078 2.892 0 5.446-1.94 5.303-4.952-.072-1.522-.641-2.633-1.508-3.437-.889-.824-2.167-1.39-3.73-1.642l-.01-.002-.009-.002-.96-.171-.002.009Zm-9.097-13.834c-3.362 0-5.716 2.653-5.716 5.79 0 3.276 2.39 6.298 5.63 6.298.411 0 .793-.016 1.172-.05l1.78-.281c.742-.15 1.626-.33 2.655-.438l-.118-.163c-.722-1.04-.984-2.16-.984-3.253 0-2.27 1.091-3.874 2.71-4.825a18 18 0 0 1-1.95-.95 30 30 0 0 1-.797-.46c-1.72-1.028-2.622-1.668-4.382-1.668M30.533 6.5c-3.672 0-6.39 2.328-6.822 5.546-.253 1.882-.53 3.944-.825 5.978q.184.083.384.17c.413.173.838.338 1.25.487.973.31 2.128.58 3.543.772 2.826.244 5.123-.186 6.695-1.064 1.686-.942 2.742-2.49 2.742-4.99 0-3.79-3.117-6.899-6.967-6.899"/></svg>