<svg xmlns="http://www.w3.org/2000/svg" width="48" height="48" fill="currentColor"><path d="m34.373 20.553.003-.001a27 27 0 0 1 3.869 2.003c.18.112.397-.093.293-.276L29.79 6.976l-.001-.002c-2.583-4.473-9.034-4.472-11.615.002-2.324 4.03-3.828 8.285-3.872 12.99a.2.2 0 0 0 .271.187c6.473-2.417 13.57-2.204 19.797.401h.003Zm1.632 4.737q.058-.3.099-.6a.203.203 0 0 1 .303-.15 24.2 24.2 0 0 1 7.217 6.622h.004c.374.518.711 1.056 1.035 1.602l.89 1.544a6.96 6.96 0 0 1 .947 3.52c-.03 3.45-2.735 6.552-6.753 6.552h-.001l-2.765-.005a24.3 24.3 0 0 1-10.304-3.056.2.2 0 0 1-.03-.328c.45-.383.932-.832 1.418-1.317 1.388-1.387 2.916-3.17 3.975-4.76 1.86-2.792 3.33-6.31 3.965-9.624m-24.283-3.214a27 27 0 0 1-.044-3.052c.01-.212-.28-.3-.387-.116l-8.882 15.4c-2.583 4.478.647 10.072 5.808 10.072h17.725c.212 0 .282-.294.093-.392a26.8 26.8 0 0 1-9.273-8.057 26.8 26.8 0 0 1-5.04-13.855"/></svg>