<svg xmlns="http://www.w3.org/2000/svg" width="48" height="48" fill="currentColor"><path fill="url(#i1a42b3-a)" d="M45.472 33.113 32.57 10.763A24.1 24.1 0 0 1 34.519 21.6l-2.231-.166s1.477.459 1.804 1.164c1.017 2.159-2.352 9.272-3.517 11.018-1.888 2.832-5.544 6.483-6.499 6.483-.298 0-.425-.104-.425-.104-3.468 2.145-7.564 4.245-11.772 4.504h27.02c5.843 0 9.494-6.326 6.573-11.387Z"/><path fill="url(#i1a42b3-b)" fill-opacity=".5" d="M45.472 33.113 32.57 10.763A24.1 24.1 0 0 1 34.519 21.6l-2.231-.166s1.477.459 1.804 1.164c1.017 2.159-2.352 9.272-3.517 11.018-1.888 2.832-5.544 6.483-6.499 6.483-.298 0-.425-.104-.425-.104-3.468 2.145-7.564 4.245-11.772 4.504h27.02c5.843 0 9.494-6.326 6.573-11.387Z"/><path fill="url(#i1a42b3-c)" fill-opacity=".2" d="M45.472 33.113 32.57 10.763A24.1 24.1 0 0 1 34.519 21.6l-2.231-.166s1.477.459 1.804 1.164c1.017 2.159-2.352 9.272-3.517 11.018-1.888 2.832-5.544 6.483-6.499 6.483-.298 0-.425-.104-.425-.104-3.468 2.145-7.564 4.245-11.772 4.504h27.02c5.843 0 9.494-6.326 6.573-11.387Z"/><path fill="url(#i1a42b3-d)" d="M43.58 30.03q.396.549.757 1.11L30.573 7.297c-2.921-5.061-10.224-5.061-13.145 0l-13.53 23.44c2.076-3.1 6.626-5.434 9.92-7.056 0 0-.115-.691.155-1.168.27-.478.64-.609.995-.752 10.064-4.056 21.966-.92 28.611 8.27Z"/><path fill="url(#i1a42b3-e)" fill-opacity=".36" d="M43.58 30.03q.396.549.757 1.11L30.573 7.297c-2.921-5.061-10.224-5.061-13.145 0l-13.53 23.44c2.076-3.1 6.626-5.434 9.92-7.056 0 0-.115-.691.155-1.168.27-.478.64-.609.995-.752 10.064-4.056 21.966-.92 28.611 8.27Z"/><path fill="url(#i1a42b3-f)" d="M36.244 44.495H9.101c-5.843 0-9.494-6.326-6.573-11.386L16.282 9.281c-4.032 7.843-3.613 17.617 1.908 25.251 4.4 6.085 11.105 9.515 18.054 9.962Z"/><path fill="url(#i1a42b3-g)" fill-opacity=".25" d="M36.244 44.495H9.101c-5.843 0-9.494-6.326-6.573-11.386L16.282 9.281c-4.032 7.843-3.613 17.617 1.908 25.251 4.4 6.085 11.105 9.515 18.054 9.962Z"/><path fill="url(#i1a42b3-h)" d="M36.244 44.495H9.101c-5.843 0-9.494-6.326-6.573-11.386L16.282 9.281c-4.032 7.843-3.613 17.617 1.908 25.251 4.4 6.085 11.105 9.515 18.054 9.962Z"/><defs><radialGradient id="i1a42b3-b" cx="0" cy="0" r="1" gradientTransform="matrix(.42653 9.59609 -8.85116 .39342 36.728 22.247)" gradientUnits="userSpaceOnUse"><stop stop-color="#041642"/><stop offset="1" stop-color="#041642" stop-opacity="0"/></radialGradient><radialGradient id="i1a42b3-c" cx="0" cy="0" r="1" gradientTransform="rotate(-23.666 113.904 -39.24)scale(18.3871 20.9206)" gradientUnits="userSpaceOnUse"><stop/><stop offset="1" stop-opacity="0"/></radialGradient><radialGradient id="i1a42b3-d" cx="0" cy="0" r="1" gradientTransform="rotate(119.825 12.531 9.068)scale(18.5002 30.3973)" gradientUnits="userSpaceOnUse"><stop stop-color="#51DEFF"/><stop offset=".349" stop-color="#1ABAFD"/><stop offset="1" stop-color="#247FE0"/></radialGradient><radialGradient id="i1a42b3-e" cx="0" cy="0" r="1" gradientTransform="matrix(22.2892 -18.21039 11.91738 14.58667 -3.071 34.013)" gradientUnits="userSpaceOnUse"><stop offset=".475"/><stop offset="1" stop-opacity="0"/></radialGradient><radialGradient id="i1a42b3-g" cx="0" cy="0" r="1" gradientTransform="matrix(-1.19689 7.77722 -11.40503 -1.7552 13.714 20.91)" gradientUnits="userSpaceOnUse"><stop offset=".177" stop-color="#CCF9FF"/><stop offset="1" stop-color="#4FE3FF" stop-opacity=".12"/></radialGradient><linearGradient id="i1a42b3-a" x1="41.846" x2="42.694" y1="13.078" y2="38.403" gradientUnits="userSpaceOnUse"><stop stop-color="#033E9A"/><stop offset="1" stop-color="#0055C6"/></linearGradient><linearGradient id="i1a42b3-f" x1="11.691" x2="23.119" y1="15.832" y2="46.036" gradientUnits="userSpaceOnUse"><stop stop-color="#59E7FD"/><stop offset=".587" stop-color="#23D4F9"/><stop offset="1" stop-color="#32BBF2"/></linearGradient><linearGradient id="i1a42b3-h" x1="19.817" x2="14.727" y1="43.009" y2="30.909" gradientUnits="userSpaceOnUse"><stop stop-color="#08B0F8"/><stop offset="1" stop-color="#52E5FF" stop-opacity="0"/></linearGradient></defs></svg>