<svg xmlns="http://www.w3.org/2000/svg" width="20" height="20" fill="currentColor"><path d="M8.148 6.148A.5.5 0 0 1 8.5 6a.505.505 0 0 1 .5.5c.003.21.047.417.132.609q.127.286.32.532.165.188.4.429.24.248.523.446.275.195.578.343c.17.088.356.136.547.141a.5.5 0 0 1 0 1 1.3 1.3 0 0 0-.555.143 4 4 0 0 0-.578.351 4.4 4.4 0 0 0-.523.446 5 5 0 0 0-.391.429q-.198.244-.328.531a1.5 1.5 0 0 0-.125.6.5.5 0 0 1-1 0 1.55 1.55 0 0 0-.132-.602 2.5 2.5 0 0 0-.32-.531 5.2 5.2 0 0 0-.923-.883 3.3 3.3 0 0 0-.57-.343A1.3 1.3 0 0 0 5.5 10a.5.5 0 1 1 0-1c.193-.01.381-.06.555-.143a3 3 0 0 0 .578-.343q.276-.206.523-.446.212-.2.391-.429a2.6 2.6 0 0 0 .328-.539c.083-.189.126-.393.125-.6a.5.5 0 0 1 .148-.352m.516 2.108a3 3 0 0 1-.164-.228l-.001.001a4.7 4.7 0 0 1-.649.761 7 7 0 0 1-.619.527 4 4 0 0 1-.271.187 6 6 0 0 1 .882.709q.27.255.5.55.082.104.155.215.084-.123.179-.24a6 6 0 0 1 .46-.506 5.4 5.4 0 0 1 .912-.732 4.7 4.7 0 0 1-.916-.733Q8.877 8.503 8.7 8.3l-.019-.022z"/><path d="M4.82 16.766A2.7 2.7 0 0 0 5.938 17h8.124a2.9 2.9 0 0 0 1.126-.242 3.08 3.08 0 0 0 1.578-1.578c.156-.352.235-.732.234-1.117V12h-3V5a2.1 2.1 0 0 0-.156-.766 1.9 1.9 0 0 0-.422-.632 2.2 2.2 0 0 0-.625-.438A1.8 1.8 0 0 0 12.039 3H4.961a2 2 0 0 0-.761.164 1.9 1.9 0 0 0-.622.438 2.2 2.2 0 0 0-.422.64c-.104.24-.157.497-.156.758v9.063c.004.388.086.77.242 1.125.31.705.873 1.268 1.578 1.578M13 5v11H5.961a1.9 1.9 0 0 1-.75-.164 2.1 2.1 0 0 1-1.055-1.055A1.8 1.8 0 0 1 4 14.039V5a.86.86 0 0 1 .078-.391 1 1 0 0 1 .531-.531A1 1 0 0 1 5 4h7c.134 0 .267.026.391.078q.183.076.32.219.133.142.211.32A.95.95 0 0 1 13 5m1.039 11H14v-3h2v1.039c-.004.258-.06.514-.164.75-.21.47-.585.845-1.055 1.055a1.8 1.8 0 0 1-.742.156"/></svg>