<svg xmlns="http://www.w3.org/2000/svg" width="20" height="20" fill="currentColor"><path d="M3 5v4.6a5.5 5.5 0 0 1 1-.393V5a.86.86 0 0 1 .078-.391 1 1 0 0 1 .531-.531A1 1 0 0 1 5 4h7c.134 0 .267.026.391.078q.183.076.32.219.133.142.211.32A.95.95 0 0 1 13 5v11h-2.207q-.149.524-.393 1h3.662a2.9 2.9 0 0 0 1.126-.242 3.08 3.08 0 0 0 1.578-1.578c.156-.352.235-.732.234-1.117V12h-3V5a2.1 2.1 0 0 0-.156-.766 1.9 1.9 0 0 0-.422-.632 2.2 2.2 0 0 0-.625-.438A1.8 1.8 0 0 0 12.039 3H4.961a2 2 0 0 0-.761.164 1.9 1.9 0 0 0-.622.438 2.2 2.2 0 0 0-.422.64c-.104.24-.157.497-.156.758m11.039 11H14v-3h2v1.039c-.004.258-.06.514-.164.75-.21.47-.585.845-1.055 1.055a1.8 1.8 0 0 1-.742.156"/><path d="M7.267 9.29A5.5 5.5 0 0 0 5.5 9c.193-.01.381-.06.555-.143a3 3 0 0 0 .578-.343q.276-.206.523-.446.212-.2.391-.429a2.6 2.6 0 0 0 .328-.539c.083-.189.126-.393.125-.6a.505.505 0 0 1 .5-.5.505.505 0 0 1 .5.5c.003.21.047.417.132.609q.127.286.32.532.165.188.4.429.24.248.523.446.275.195.578.343c.17.088.356.136.547.141a.5.5 0 0 1 0 1 1.3 1.3 0 0 0-.555.143 4 4 0 0 0-.578.351 4.4 4.4 0 0 0-.605.529 5.5 5.5 0 0 0-.702-.715 6 6 0 0 1 .717-.623q.134-.098.271-.185a4.7 4.7 0 0 1-.916-.733Q8.877 8.503 8.7 8.3l-.019-.022-.017-.022a3 3 0 0 1-.164-.228l-.001.001a4.7 4.7 0 0 1-.649.761q-.278.267-.583.5"/><path d="M8 18.242a4.5 4.5 0 1 1-5-7.483 4.5 4.5 0 0 1 5 7.483m-2.146-6.096A.5.5 0 0 0 5 12.5V14H3.5a.5.5 0 0 0 0 1H5v1.5a.5.5 0 0 0 1 0V15h1.5a.5.5 0 0 0 0-1H6v-1.5a.5.5 0 0 0-.146-.354"/></svg>