<svg xmlns="http://www.w3.org/2000/svg" width="20" height="20" fill="currentColor"><path d="M10 5.5a4.5 4.5 0 1 1-9 0 4.5 4.5 0 0 1 9 0m-4-2a.5.5 0 0 0-1 0V5H3.5a.5.5 0 0 0 0 1H5v1.5a.5.5 0 0 0 1 0V6h1.5a.5.5 0 0 0 0-1H6zm8.5-.5h-4.1a5.5 5.5 0 0 0-.657-1h6.82A2.5 2.5 0 0 1 19 4.5V6a1 1 0 0 1-1 1h-3v5.504-.012a1.5 1.5 0 0 0-1-1.408V4.376h.003a2.5 2.5 0 0 1 .497-1.375Zm2 0A1.5 1.5 0 0 0 15 4.5V6h3V4.5A1.5 1.5 0 0 0 16.501 3ZM4 10.793a5.5 5.5 0 0 0 1 .185V13h5a1 1 0 0 1 .97.759 2 2 0 0 1-.347.196A1 1 0 0 1 10.5 14q-.259 0-.5.088V14H2v1.688C2 16.424 2.593 17 3.375 17H10.5l-.002-.002a.4.4 0 0 1 .129.042q.212.1.4.242.228.17.434.37.161.154.3.328l.015.02H3.375C2.085 18 1 17.021 1 15.687V14a1 1 0 0 1 1-1h2z"/><path d="M13.403 12.013A.5.5 0 0 0 13 12.5c0 .207-.042.411-.125.6a2.6 2.6 0 0 1-.328.54q-.18.228-.391.428-.248.24-.523.446a3 3 0 0 1-.578.343A1.5 1.5 0 0 1 10.5 15a.5.5 0 0 0 0 1c.193.006.383.055.555.143q.302.143.57.343a5.2 5.2 0 0 1 .923.883q.192.246.32.531c.084.19.129.393.132.6a.5.5 0 0 0 1 0c0-.206.042-.41.125-.6q.13-.287.328-.53.183-.226.391-.43a4.4 4.4 0 0 1 .523-.446q.273-.201.578-.35c.172-.09.362-.139.555-.144a.5.5 0 0 0 0-1 1.25 1.25 0 0 1-.547-.14 4 4 0 0 1-.578-.344 3.7 3.7 0 0 1-.523-.446 11 11 0 0 1-.4-.429 2.5 2.5 0 0 1-.32-.532A1.5 1.5 0 0 1 14 12.5a.5.5 0 0 0-.597-.487m.097 2.015q.077.117.164.228l.018.021.019.022q.177.204.432.467a4.6 4.6 0 0 0 .916.733 5.3 5.3 0 0 0-.912.732 6 6 0 0 0-.46.506 4 4 0 0 0-.179.24 3 3 0 0 0-.155-.215 6.2 6.2 0 0 0-1.123-1.08 4 4 0 0 0-.259-.179q.138-.087.271-.187.326-.245.619-.527a4.7 4.7 0 0 0 .649-.76Z"/></svg>