<svg xmlns="http://www.w3.org/2000/svg" width="20" height="20" fill="currentColor"><path d="M16.563 2H6.5A2.5 2.5 0 0 0 4 4.5V13H2a1 1 0 0 0-1 1v1.688C1 17.02 2.086 18 3.375 18h8.4l-.014-.02a3 3 0 0 0-.3-.328 4 4 0 0 0-.434-.37 2.2 2.2 0 0 0-.4-.242.4.4 0 0 0-.129-.042L10.5 17H3.375C2.593 17 2 16.425 2 15.687V14h8v.088q.241-.086.5-.088a1 1 0 0 0 .123-.045q.184-.081.348-.196A1 1 0 0 0 10 13H5V4.5A1.5 1.5 0 0 1 6.5 3h8c-.29.387-.472.86-.497 1.375H14v6.71a1.5 1.5 0 0 1 1 1.407v.012V7h3a1 1 0 0 0 1-1V4.5A2.5 2.5 0 0 0 16.562 2ZM16.5 3A1.5 1.5 0 0 1 18 4.5V6h-3V4.5c0-.828.67-1.5 1.499-1.5z"/><path d="M13.403 12.013A.5.5 0 0 0 13 12.5c0 .207-.042.411-.125.6a2.6 2.6 0 0 1-.328.54q-.18.228-.391.428-.248.24-.523.446a3 3 0 0 1-.578.343A1.5 1.5 0 0 1 10.5 15a.5.5 0 0 0 0 1c.193.006.383.055.555.143q.302.143.57.343a5.2 5.2 0 0 1 .923.883q.192.246.32.531c.084.19.129.393.132.6a.5.5 0 0 0 1 0c0-.206.042-.41.125-.6q.13-.287.328-.53.183-.226.391-.43a4.4 4.4 0 0 1 .523-.446q.273-.201.578-.35c.172-.09.362-.139.555-.144a.5.5 0 0 0 0-1 1.25 1.25 0 0 1-.547-.14 4 4 0 0 1-.578-.344 3.7 3.7 0 0 1-.523-.446 11 11 0 0 1-.4-.429 2.5 2.5 0 0 1-.32-.532A1.5 1.5 0 0 1 14 12.5a.5.5 0 0 0-.597-.487m.097 2.015q.077.117.164.228l.018.021.019.022q.177.204.432.467a4.6 4.6 0 0 0 .916.733 5.3 5.3 0 0 0-.912.732 6 6 0 0 0-.46.506 4 4 0 0 0-.179.24 3 3 0 0 0-.155-.215 6.2 6.2 0 0 0-1.123-1.08 4 4 0 0 0-.259-.179q.138-.087.271-.187.326-.245.619-.527a4.7 4.7 0 0 0 .649-.76Z"/></svg>