<svg xmlns="http://www.w3.org/2000/svg" width="20" height="20" fill="currentColor"><path d="m13.878.282.348 1.071a2.2 2.2 0 0 0 1.398 1.397l1.072.348.021.006a.423.423 0 0 1 0 .798l-1.071.348a2.2 2.2 0 0 0-1.399 1.397l-.348 1.07a.423.423 0 0 1-.798 0l-.349-1.07a2.2 2.2 0 0 0-.532-.867 2.2 2.2 0 0 0-.866-.536l-1.071-.348a.423.423 0 0 1 0-.798l1.071-.348a2.2 2.2 0 0 0 1.377-1.397l.348-1.07a.423.423 0 0 1 .799 0Zm4.905 7.931-.766-.248a1.58 1.58 0 0 1-.998-.999l-.25-.764a.302.302 0 0 0-.57 0l-.248.764a1.58 1.58 0 0 1-.984.999l-.765.248a.303.303 0 0 0 0 .57l.765.249a1.58 1.58 0 0 1 1 1.002l.248.764a.302.302 0 0 0 .57 0l.249-.764a1.58 1.58 0 0 1 .999-.999l.765-.248a.303.303 0 0 0 0-.57z"/><path d="M10.407 2H6.5a3.5 3.5 0 1 0 0 7h6.599A1.3 1.3 0 0 1 13 8.5a1.3 1.3 0 0 1 .014-.5H6.5a2.5 2.5 0 0 1 0-5h2.605a1.5 1.5 0 0 1 .185-.33 1.4 1.4 0 0 1 .71-.52z"/><path d="M8 5.5a1.5 1.5 0 1 1-3 0 1.5 1.5 0 0 1 3 0m7 9a1.5 1.5 0 1 1-3 0 1.5 1.5 0 0 1 3 0"/><path d="M3 14.5A3.5 3.5 0 0 0 6.5 18h7a3.5 3.5 0 1 0 0-7h-7A3.5 3.5 0 0 0 3 14.5M6.5 12h7a2.5 2.5 0 0 1 0 5h-7a2.5 2.5 0 0 1 0-5"/></svg>