<svg xmlns="http://www.w3.org/2000/svg" width="20" height="20" fill="currentColor"><path d="M10 2a2 2 0 0 0-2 2v12a2 2 0 0 0 4 0V4a2 2 0 0 0-2-2m0 1a1 1 0 0 1 1 1v2H9V4a1 1 0 0 1 1-1m0 14a1 1 0 0 1-1-1V7h2v9a1 1 0 0 1-1 1m6-11a2 2 0 0 0-2 2v8a2 2 0 0 0 4 0V8a2 2 0 0 0-2-2m0 1a1 1 0 0 1 1 1v2h-2V8a1 1 0 0 1 1-1m0 10a1 1 0 0 1-1-1v-5h2v5a1 1 0 0 1-1 1M2.586 10.586A2 2 0 0 1 6 12.001v4a2 2 0 0 1-4 0v-4a2 2 0 0 1 .586-1.415m2.121.707A1 1 0 0 0 3 12.001v2h2v-2a1 1 0 0 0-.293-.708m-1.414 5.415A1 1 0 0 0 5 16v-1H3v1a1 1 0 0 0 .293.707Z"/></svg>