<svg xmlns="http://www.w3.org/2000/svg" width="20" height="20" fill="currentColor"><path d="M11.318 2.318a4.5 4.5 0 1 1 6.364 6.364 4.5 4.5 0 0 1-6.364-6.364m5.096 1.768v-.003a.5.5 0 0 0-.144-.349l-.002-.002-.002-.002a.5.5 0 0 0-.352-.144h-2.828a.5.5 0 1 0 0 1h1.621L12.732 6.56a.5.5 0 0 0 .708.707l1.974-1.975v1.621a.5.5 0 0 0 1 0zM5 3a2 2 0 0 0-2 2v10a2 2 0 1 0 4 0V5a2 2 0 0 0-2-2M4 5a1 1 0 0 1 2 0v10a1 1 0 1 1-2 0zm5.05 1.24A2 2 0 0 0 8 8v7a2 2 0 1 0 4 0v-4.6a5.5 5.5 0 0 1-1-.657V15a1 1 0 1 1-2 0V8c0-.278.114-.53.297-.712A5.5 5.5 0 0 1 9.05 6.24m3.96 4.556q-.01.1-.01.204v4a2 2 0 1 0 4 0v-4a2 2 0 0 0-.08-.56 5.4 5.4 0 0 1-.94.358q.02.098.02.202v4a1 1 0 1 1-2 0v-4.023a5.5 5.5 0 0 1-.99-.181"/></svg>