<svg xmlns="http://www.w3.org/2000/svg" width="20" height="20" fill="currentColor"><path d="M3 5a2 2 0 1 1 4 0v10a2 2 0 1 1-4 0zm2-1a1 1 0 0 0-1 1v10a1 1 0 1 0 2 0V5a1 1 0 0 0-1-1m5 2a2 2 0 0 0-2 2v7a2 2 0 0 0 1.257 1.858l.176-.703q.035-.142.083-.28A1 1 0 0 1 9 15V8a1 1 0 0 1 2 0v5.944l1-1V8a2 2 0 0 0-2-2m5 3c.35 0 .678.09.965.248a2.8 2.8 0 0 0-.862.593l-.161.16a1 1 0 0 0-.94.941L13 11.944V11a2 2 0 0 1 2-2m-4.02 6.377 4.83-4.83a1.87 1.87 0 1 1 2.644 2.646l-4.83 4.829a2.2 2.2 0 0 1-1.02.578l-1.498.374a.89.89 0 0 1-1.079-1.078l.375-1.498a2.2 2.2 0 0 1 .578-1.02Z"/></svg>