<svg xmlns="http://www.w3.org/2000/svg" width="20" height="20" fill="currentColor"><g clip-path="url(#i70c476-i8950bd-a)"><path d="M8 4a2 2 0 1 1 4 0v12a2 2 0 1 1-4 0zm2-1a1 1 0 0 0-1 1v12a1 1 0 1 0 2 0V4a1 1 0 0 0-1-1m-8 9a2 2 0 1 1 4 0v4a2 2 0 1 1-4 0zm3 0a1 1 0 1 0-2 0v4a1 1 0 1 0 2 0zm10.75-1A1.75 1.75 0 0 0 14 12.75v5.5c0 .967.784 1.75 1.75 1.75h2.5A1.75 1.75 0 0 0 20 18.25v-5.5A1.75 1.75 0 0 0 18.25 11zm.25 6.5a.5.5 0 0 1 .5-.5h1a.5.5 0 1 1 0 1h-1a.5.5 0 0 1-.5-.5m2-7.5h-1V8a1 1 0 1 0-2 0v2.104a2.75 2.75 0 0 0-1 .525V8a2 2 0 1 1 4 0z"/></g><defs><clipPath id="i70c476-i8950bd-a"><path d="M0 0h20v20H0z"/></clipPath></defs></svg>