<svg xmlns="http://www.w3.org/2000/svg" width="20" height="20" fill="currentColor"><path d="M3 2.5a.5.5 0 1 0-1 0v15a.5.5 0 0 0 .5.5h10.313a9 9 0 0 1-.74-1H3V9.825L6.972 8.06l3.28 1.875a.5.5 0 0 0 .56-.044L15 6.54v2.487a4.7 4.7 0 0 1 1 0V5.5a.5.5 0 0 0-.812-.39l-4.735 3.788-3.205-1.832a.5.5 0 0 0-.45-.022L3 8.73z"/><path fill-rule="evenodd" d="M15.501 10.002c2.034 0 3.499 1.648 3.499 3.68 0 1.525-.979 3.53-3.253 5.237a.41.41 0 0 1-.491 0C12.982 17.213 12 15.207 12 13.683c0-2.033 1.468-3.681 3.501-3.681M15.5 15a1.5 1.5 0 1 0 0-3 1.5 1.5 0 0 0 0 3" clip-rule="evenodd"/></svg>