<svg xmlns="http://www.w3.org/2000/svg" width="20" height="20" fill="currentColor"><path d="M12.293 4.793A1 1 0 0 0 12 5.5v7a1 1 0 0 0 2 0v-7a1 1 0 0 0-1.707-.707m-6 4A1 1 0 0 0 6 9.5v3a1 1 0 1 0 2 0v-3a1 1 0 0 0-1.707-.707m3-2A1 1 0 0 0 9 7.5v5a1 1 0 1 0 2 0v-5a1 1 0 0 0-1.707-.707"/><path d="M5.5 2A2.5 2.5 0 0 0 3 4.5v9A2.5 2.5 0 0 0 5.5 16h2.691l1.362 2.724a.5.5 0 0 0 .894 0L11.81 16h2.69a2.5 2.5 0 0 0 2.5-2.5v-9A2.5 2.5 0 0 0 14.5 2zM4.44 3.44A1.5 1.5 0 0 1 5.5 3h9A1.5 1.5 0 0 1 16 4.5v9a1.5 1.5 0 0 1-1.5 1.5h-3a.5.5 0 0 0-.447.276L10 17.382l-1.053-2.106A.5.5 0 0 0 8.5 15h-3A1.5 1.5 0 0 1 4 13.5v-9c0-.398.158-.78.44-1.06"/></svg>